<?xml version="1.0" encoding="utf-8" standalone="no"?>
<!DOCTYPE svg PUBLIC "-//W3C//DTD SVG 1.1//EN" "http://www.w3.org/Graphics/SVG/1.1/DTD/svg11.dtd">
<svg version="1.1" width="360pt" height="360pt" viewBox="0 0 360 360" overflow="visible" xmlns="http://www.w3.org/2000/svg">
  <path d="M181.7997,13.6756 L190.1525,13.88782 L198.4843,14.52393 L206.7745,15.58232 L215.0023,17.06031 L223.1471,18.95413 L231.1885,21.25898 L239.1065,23.96901 L246.8812,27.07733 L254.4933,30.57605 L261.9237,34.45628 L269.1538,38.70817 L276.1655,43.32092 L282.9414,48.28282 L289.4645,53.58126 L295.7185,59.2028 L301.6878,65.13314 L307.3574,71.35724 L312.7132,77.85928 L317.7417,84.62275 L322.4305,91.63048 L326.7678,98.86467 L330.7427,106.3069 L334.3453,113.9384 L337.5667,121.7397 L340.3987,129.6909 L342.8343,137.772 L344.8674,145.9623 L346.4929,154.2411 L347.7068,162.5874 L348.506,170.9799 L348.8885,179.3973 L348.8534,187.8183 L348.4007,196.2215 L347.5316,204.5856 L346.2483,212.8892 L344.5539,221.1113 L342.4528,229.2311 L339.95,237.2279 L337.052,245.0813 L333.766,252.7715 L330.1001,260.279 L326.0635,267.5845 L321.6664,274.6697 L316.9196,281.5165 L311.8351,288.1075 L306.4256,294.426 L300.7047,300.456 L294.6864,306.182 L288.3861,311.5897 L281.8193,316.6651 L275.0026,321.3955 L267.9528,325.7689 L260.6878,329.7741 L253.2255,333.401 L245.5848,336.6403 L237.7846,339.4839 L229.8444,341.9244 L221.7842,343.9558 L213.6241,345.5728 L205.3844,346.7713 L197.0857,347.5484 L188.7489,347.9019 L180.3946,347.8311 L172.0439,347.3361 L163.7176,346.4182 L155.4364,345.0797 L147.2212,343.3239 L139.0924,341.1554 L131.0703,338.5797 L123.1751,335.6032 L115.4263,332.2336 L107.8435,328.4795 L100.4455,324.3503 L93.25085,319.8565 L86.27753,315.0096 L79.54297,309.8218 L73.064,304.3064 L66.8568,298.4773 L60.93691,292.3493 L55.31911,285.9381 L50.01744,279.2599 L45.04517,272.3316 L40.41471,265.1708 L36.13763,257.7958 L32.22464,250.2253 L28.6855,242.4784 L25.52907,234.5749 L22.76324,226.5348 L20.39491,218.3786 L18.43002,210.1269 L16.87346,201.8008 L15.72913,193.4213 L14.99989,185.0098 L14.68756,176.5876 L14.79293,168.1761 L15.31573,159.7967 L16.25465,151.4706 L17.60735,143.2189 L19.37044,135.0628 L21.53952,127.0227 L24.10917,119.1193 L27.07296,111.3725 L30.42348,103.802 L34.15237,96.42711 L38.25031,89.26646 L42.70704,82.33827 L47.51143,75.66015 L52.65146,69.24903 L58.11431,63.12122 L63.8863,57.29226 L69.95301,51.77697 L76.29929,46.58936 L82.90926,41.74258 L89.7664,37.24897 L96.85358,33.11992 L104.1531,29.36592 L111.6467,25.99651 L119.3156,23.02024 L127.1407,20.44468 L135.1024,18.27635 L143.1808,16.52078 L151.3558,15.18242 L159.6068,14.26467 L167.9134,13.76985 L176.2546,13.69923 L184.6097,14.05298 L192.9578,14.83021 L201.278,16.02894 L209.5495,17.64613 L217.7516,19.67766 L225.8639,22.11839 L233.866,24.96212 L241.738,28.20161 L249.4602,31.82865 L257.0133,35.83401 L264.3784,40.20755 L271.537,44.93813 L278.4714,50.01375 L285.1642,55.42152 L291.5985,61.14771 L297.7585,67.17776 L303.6286,73.49638 L309.1942,80.08752 L314.4414,86.93442 L319.3571,94.01971 L323.9289,101.3254 L328.1454,108.8329 L331.9962,116.5232 L335.4716,124.3767 L338.5629,132.3735 L341.2623,140.4933 L343.5632,148.7155 L345.4598,157.0192 L346.9473,165.3832 L348.022,173.7864 L348.6812,182.2075 L348.9233,190.6249 L348.7477,199.0174 L348.1548,207.3636 L347.1461,215.6424 L345.7242,223.8327 L343.8925,231.9137 L341.6556,239.8649 L339.0192,247.6661 L335.9899,255.2975 L332.5751,262.7397 L328.7835,269.9738 L324.6245,276.9814 L320.1085,283.7447 L315.2468,290.2466 L310.0516,296.4706 L304.5358,302.4008 L298.7132,308.0222 L292.5984,313.3205 L286.2067,318.2823 L279.554,322.8949 L272.6569,327.1466 L265.5328,331.0267 L258.1993,334.5252 L250.675,337.6334 L242.9784,340.3432 L235.129,342.6479 L227.1462,344.5415 L219.0502,346.0193 L210.861,347.0775 L202.5991,347.7135 L194.2853,347.9255 L185.9403,347.7131 L177.5849,347.0768 L169.2401,346.0182 L160.9266,344.5401 L152.6653,342.6461 L144.4769,340.341 L136.3817,337.6308 L128.4001,334.5223 L120.5519,331.0234 L112.8568,327.143 L105.334,322.891 L98.00238,318.2781 L90.88019,313.316 L83.98524,308.0175 L77.33479,302.3958 L70.94544,296.4653 L64.83317,290.2411 L59.01325,283.7389 L53.50024,276.9753 L48.3079,269.9675 L43.44923,262.7332 L38.93636,255.2909 L34.78058,247.6593 L30.99227,239.858 L27.58089,231.9067 L24.55499,223.8256 L21.92211,215.6352 L19.68884,207.3564 L17.86077,199.0101 L16.44246,190.6176 L15.43746,182.2001 L14.84827,173.7791 L14.67638,165.3759 L14.9222,157.0119 L15.58514,148.7083 L16.66352,140.4862 L18.15466,132.3665 L20.05482,124.3698 L22.35927,116.5164 L25.06223,108.8263 L28.15696,101.3189 L31.63571,94.01341 L35.48979,86.92832 L39.70957,80.08163 L44.2845,73.49074 L49.20315,67.17236 L54.45322,61.14256 L60.02159,55.41665 L65.89434,50.00916 L72.0568,44.93384 L78.49355,40.20356 L85.18852,35.83035 L92.12497,31.82531 L99.28555,28.1986 L106.6524,24.95946 L114.207,22.11608 L121.9306,19.67571 L129.8039,17.64453 L137.8071,16.02771 L145.9203,14.82934 L154.1231,14.05248 L162.3951,13.6991 L170.7157,13.7701 L179.0639,14.26528 L187.4189,15.18341 L195.76,16.52214 L204.0661,18.27807 L212.3166,20.44675 L220.4908,23.02267 L228.5683,25.99928 L236.5288,29.36904 L244.3526,33.12336 L252.0201,37.25274 L259.512,41.74667 L266.8097,46.59375 L273.8949,51.78166 L280.7499,57.29723 L287.3576,63.12645 L293.7015,69.25452 L299.7657,75.66587 L305.535,82.34423 L310.995,89.27263 L316.1321,96.43347 L320.9335,103.8086 L325.3871,111.3792 L329.4818,119.1262 L333.2073,127.0297 L336.5545,135.0699 L339.5148,143.2261 L342.0809,151.4778 L344.2464,159.804 L346.0059,168.1834 L347.3549,176.595 L348.2901,185.0172 L348.8092,193.4287 L348.9109,201.8081 L348.5948,210.1342 L347.8619,218.3858 L346.7139,226.5419 L345.1537,234.5818 L343.1852,242.4852 L340.8133,250.2319 L338.044,257.8023 L334.8841,265.1772 L331.3416,272.3377 L327.4254,279.2658 L323.1451,285.9438 L318.5115,292.3548 L313.5363,298.4825 L308.2318,304.3113 L302.6112,309.8265 L296.6887,315.0139 L290.479,319.8606 L283.9977,324.354 L277.2609,328.4829 L270.2856,332.2368 L263.0891,335.606 L255.6893,338.5821 L248.1049,341.1575 L240.3548,343.3256 L232.4583,345.081 L224.4352,346.4192 L216.3056,347.3368 L208.0896,347.8314 L199.808,347.9018 L191.4814,347.5479 L183.1305,346.7705 L174.7764,345.5716 L166.4398,343.9542 L158.1415,341.9225 L149.9025,339.4816 L141.7431,336.6377 L133.6839,333.398 L125.7449,329.7708 L117.946,325.7653 L110.3068,321.3916 L102.8462,316.6608 L95.58296,311.5851 L88.53523,306.1772 L81.72061,300.4508 L75.15614,294.4206 L68.85822,288.1019 L62.8426,281.5107 L57.12431,274.6636 L51.71764,267.5782 L46.6361,260.2725 L41.89241,252.7649 L37.49841,245.0745 L33.46509,237.2209 L29.80253,229.224 L26.51988,221.1042 L23.62536,212.882 L21.12618,204.5783 L19.02861,196.2142 L17.33787,187.811 L16.05821,179.39 L15.19281,170.9725 L14.74385,162.58 L14.71244,154.2338 L15.09866,145.9551 L15.90154,137.7648 L17.11908,129.6839 L18.74824,121.7328 L20.78494,113.9316 L23.2241,106.3003 L26.05961,98.85825 L29.28439,91.62425 L32.89038,84.61673 L36.86857,77.85348 L41.20901,71.35167 L45.90085,65.12782 L50.93237,59.19774 L56.29099,53.57649 L61.96331,48.27833 L67.93516,43.31673 L74.19161,38.70429 L80.71703,34.45272 L87.49511,30.57282 L94.5089,27.07444 L101.7409,23.96646 L109.1729,21.25679 L116.7865,18.95229 L124.5626,17.05883 L132.4818,15.58121 L140.5242,14.52319 L148.6698,13.88745 L156.8982,13.6756 L165.1889,13.88819 L173.521,14.52467 L181.8739,15.58343 L190.2266,17.06178 L198.5582,18.95597 L206.8479,21.26118 L215.075,23.97155 L223.219,27.08022 L231.2594,30.57928 L239.1762,34.45984 L246.9496,38.71205 L254.5601,43.32511 L261.9888,48.28731 L269.217,53.58604 L276.2268,59.20785 L283.0005,65.13846 L289.5213,71.36281 L295.7728,77.86508 L301.7395,84.62878 L307.4064,91.63671 L312.7593,98.87109 L317.7849,106.3135 L322.4706,113.9452 L326.8047,121.7466 L330.7763,129.6979 L334.3756,137.7791 L337.5936,145.9695 L340.4221,154.2484 L342.8542,162.5947 L344.8836,170.9872 L346.5055,179.4047 L347.7157,187.8257 L348.5112,196.2289 L348.89,204.5929 L348.8512,212.8964 L348.3948,221.1185 L347.522,229.2381 L346.235,237.2348 L344.537,245.0881 L342.4323,252.7782 L339.926,260.2854 L337.0245,267.5909 L333.7351,274.6758 L330.0659,281.5224 L326.026,288.1132 L321.6257,294.4314 L316.8759,300.4611 L311.7885,306.1869 L306.3762,311.5942 L300.6525,316.6694 L294.6317,321.3995 L288.3289,325.7726 L281.7599,329.7775 L274.9409,333.404 L267.8892,336.643 L260.6223,339.4862 L253.1584,341.9264 L245.5162,343.9574 L237.7146,345.574 L229.7733,346.7722 L221.7122,347.5489 L213.5512,347.9021 L205.3109,347.8309 L197.0118,347.3355 L188.6747,346.4172 L180.3204,345.0783 L171.9698,343.3222 L163.6438,341.1533 L155.3632,338.5772 L147.1486,335.6004 L139.0206,332.2305 L130.9996,328.476 L123.1056,324.3465 L115.3582,319.8524 L107.7769,315.0052 L100.3807,309.8171 L93.18792,304.3014 L86.21664,298.472 L79.48428,292.3438 L73.00764,285.9324 L66.80294,279.2539 L60.88567,272.3254 L55.27061,265.1645 L49.97182,257.7892 L45.00252,250.2185 L40.37514,242.4715 L36.10126,234.5679 L32.19154,226.5277 L28.65577,218.3714 L25.50278,210.1197 L22.74045,201.7935 L20.37568,193.414 L18.41439,185.0025 L16.86147,176.5802 L15.72082,168.1688 L14.99528,159.7894 L14.68666,151.4633 L14.79574,143.2118 L15.32224,135.0557 L16.26484,127.0158 L17.6212,119.1125 L19.38792,111.3658 L21.56059,103.7955 L24.13376,96.42075 L27.10102,89.2603 L30.45495,82.33232 L34.18716,75.65442 L38.28832,69.24355 L42.74819,63.11599 L47.55561,57.2873 L52.69858,51.77229 L58.16423,46.58497 L63.9389,41.7385 L70.00817,37.24519 L76.35686,33.11647 L82.96909,29.3628 L89.82835,25.99373 L96.9175,23.01781 L104.2188,20.4426 L111.714,18.27464 L119.3844,16.51943 L127.2108,15.18143 L135.1737,14.26405 L143.253,13.7696 L151.4288,13.69935 L159.6804,14.05347 L167.9873,14.83107 L176.3288,16.03017 L184.6839,17.64772 L193.0318,19.67962 L201.3517,22.1207 L209.6227,24.96478 L217.8241,28.20461 L225.9355,31.83199 L233.9365,35.83768 L241.8073,40.21153 L249.5281,44.94242 L257.0796,50.01834 L264.4429,55.42639 L271.5996,61.15285 L278.532,67.18317 L285.2225,73.50204 L291.6545,80.09339 L297.8119,86.94051 L303.6794,94.026 L309.2422,101.3319 L314.4865,108.8396 L319.3992,116.53 L323.9679,124.3837 L328.1813,132.3806 L332.0288,140.5005 L335.5008,148.7227 L338.5886,157.0265 L341.2845,165.3906 L343.5818,173.7938 L345.4748,182.2148 L346.9586,190.6323 L348.0297,199.0247 L348.6852,207.3709 L348.9236,215.6496 L348.7443,223.8398 L348.1477,231.9207 L347.1353,239.8718 L345.7097,247.6728 L343.8744,255.3041 L341.634,262.7461 L338.994,269.98 L335.9612,276.9874 L332.5431,283.7505 L328.7482,290.2522 L324.5859,296.476 L320.0668,302.4059 L315.2021,308.027 L310.004,313.325 L304.4854,318.2865 L298.6602,322.8987 L292.5428,327.1502 L286.1487,331.0299 L279.4937,334.5281 L272.5946,337.6359 L265.4685,340.3454 L258.1333,342.6497 L250.6073,344.543 L242.9094,346.0204 L235.0587,347.0783 L227.0748,347.7138 L218.9778,347.9255 L210.7879,347.7127 L202.5255,347.076 L194.2113,346.0171 L185.8661,344.5386 L177.5107,342.6442 L169.1661,340.3388 L160.853,337.6283 L152.5923,334.5194 L144.4045,331.0202 L136.3103,327.1395 L128.3297,322.8871 L120.4828,318.2739 L112.7892,313.3116 L105.268,308.0127 L97.93818,302.3907 L90.81792,296.46 L83.92508,290.2355 L77.27687,283.7331 L70.88991,276.9693 L64.78017,269.9613 L58.96291,262.7268 L53.45269,255.2843 L48.26326,247.6526 L43.40761,239.8511 L38.89787,231.8997 L34.7453,223.8185 L30.96029,215.628 L27.55231,207.3491 L24.52986,199.0028 L21.90051,190.6102 L19.67082,182.1927 L17.84636,173.7717 L16.43171,165.3686 L15.43039,157.0046 L14.8449,148.7011 L14.67672,140.479 L14.92626,132.3594 L15.59289,124.3628 L16.67495,116.5096 L18.16974,108.8196 L20.07352,101.3124 L22.38153,94.00712 L25.088,86.92223 L28.18617,80.07576 L31.6683,73.48509 L35.52567,67.16696 L39.74865,61.13742 L44.32669,55.41178 L49.24834,50.00458 L54.5013,44.92955 L60.07243,40.19958 L65.94782,35.82669 L72.11279,31.82197 L78.5519,28.1956 L85.24909,24.95679 L92.18761,22.11377 L99.3501,19.67375 L106.7187,17.64293 L114.2749,16.02647 L121.9999,14.82848 L129.8744,14.05199 L137.8787,13.69898 L145.9928,13.77034 L154.1963,14.2659 L162.4688,15.18439 L170.7897,16.52349 L179.1381,18.27979 L187.4931,20.44883 L195.8339,23.0251 L204.1396,26.00206 L212.3895,29.37215 L220.563,33.12681 L228.6395,37.25651 L236.599,41.75076 L244.4214,46.59814 L252.0874,51.78634 L259.5777,57.30219 L266.8736,63.13168 L273.9568,69.26 L280.8098,75.6716 L287.4152,82.35018 L293.7566,89.27879 L299.8182,96.43983 L305.5848,103.8151 L311.0421,111.3859 L316.1763,119.133 L320.9746,127.0367 L325.425,135.0769 L329.5165,143.2333 L333.2387,151.4851 L336.5825,159.8113 L339.5393,168.1908 L342.1019,176.6023 L344.2638,185.0245 L346.0197,193.436 L347.365,201.8154 L348.2966,210.1414 L348.812,218.3929 L348.9099,226.549 L348.5902,234.5888 L347.8535,242.4921 L346.7019,250.2386 L345.138,257.8089 L343.1659,265.1835 L340.7905,272.3439 L338.0176,279.2718 L334.8543,285.9496 L331.3085,292.3603 L327.3889,298.4877 L323.1055,304.3163 L318.4688,309.8311 L313.4906,315.0183 L308.1832,319.8647 L302.5599,324.3578 L296.6348,328.4864 L290.4226,332.2399 L283.939,335.6088 L277.2,338.5845 L270.2226,341.1595 L263.0242,343.3273 L255.6228,345.0824 L248.0368,346.4202 L240.2853,347.3374 L232.3876,347.8316 L224.3635,347.9017 L216.2329,347.5474 L208.0163,346.7696 L199.7342,345.5703 L191.4073,343.9526 L183.0563,341.9205 L174.7022,339.4792 L166.3659,336.635 L158.0681,333.395 L149.8296,329.7675 L141.6711,325.7616 L133.6128,321.3876 L125.675,316.6566 L117.8774,311.5805 L110.2397,306.1723 L102.7808,300.4457 L95.51939,294.4152 L88.47366,288.0963 L81.66119,281.5048 L75.09901,274.6575 L68.80353,267.572 L62.79048,260.266 L57.07489,252.7582 L51.67105,245.0677 L46.59247,237.214 L41.85183,229.217 L37.46099,221.097 L33.43092,212.8747 L29.77169,204.571 L26.49246,196.2069 L23.60141,187.8036 L21.10578,179.3826 L19.01179,170.9652 L17.32469,162.5727 L16.0487,154.2266 L15.18699,145.9479 L14.74173,137.7577 L14.71403,129.6769 L15.10395,121.7259 L15.91053,113.9249 L17.13175,106.2938 L18.76454,98.85183 L20.80484,91.61802 L23.24755,84.6107 L26.08655,77.84767 L29.31475,71.3461 L32.92409,65.12251 L36.90554,59.19269 L41.24915,53.57171 L45.94406,48.27384 L50.97854,43.31255 L56.34,38.70041 L62.01505,34.44917 L67.98949,30.56959 L74.24841,27.07155 L80.77615,23.96392 L87.55639,21.25459 L94.57219,18.95046 L101.806,17.05736 L109.2398,15.5801 L116.8549,14.52245 L124.6324,13.88708 L132.5527,13.6756 L140.5961,13.88856 L148.7426,14.52541 L156.9716,15.58454 L165.2627,17.06326 L173.5952,18.9578 L181.9481,21.26337 L190.3007,23.9741 L198.632,27.08311 L206.9213,30.5825 L215.1478,34.46339 L223.2909,38.71593 L231.3303,43.3293 L239.2459,48.2918 L247.0179,53.59082 L254.6269,59.2129 L262.0539,65.14378 L269.2803,71.36837 L276.288,77.87089 L283.0596,84.6348 L289.578,91.64294 L295.8271,98.87751 L301.7912,106.3201 L307.4553,113.9519 L312.8054,121.7534 L317.828,129.7049 L322.5106,137.7862 L326.8416,145.9767 L330.8099,154.2557 L334.4059,162.602 L337.6204,170.9946 L340.4454,179.4121 L342.874,187.8331 L344.8998,196.2362 L346.5181,204.6002 L347.7246,212.9037 L348.5164,221.1256 L348.8915,229.2452 L348.849,237.2417 L348.3889,245.0949 L347.5124,252.7848 L346.2218,260.2919 L344.5201,267.5971 L342.4118,274.6819 L339.902,281.5283 L336.997,288.1188 L333.7042,294.4369 L330.0316,300.4662 L325.9885,306.1918 L321.5851,311.5988 L316.8322,316.6737 L311.7419,321.4035 L306.3267,325.7762 L300.6003,329.7808 L294.5769,333.407 L288.2717,336.6456 L281.7004,339.4885 L274.8793,341.9283 L267.8256,343.959 L260.5569,345.5753 L253.0913,346.7731 L245.4475,347.5494 L237.6447,347.9022 L229.7023,347.8306 L221.6401,347.3349 L213.4783,346.4162 L205.2374,345.0769 L196.9379,343.3205 L188.6006,341.1512 L180.2462,338.5748 L171.8957,335.5977 L163.57,332.2274 L155.2899,328.4726 L147.076,324.3427 L138.9489,319.8483 L130.9289,315.0008 L123.0361,309.8124 L115.2901,304.2964 L107.7104,298.4668 L100.3159,292.3383 L93.125,285.9266 L86.15577,279.248 L79.42561,272.3192 L72.95132,265.1581 L66.7491,257.7827 L60.83444,250.2118 L55.22214,242.4647 L49.92621,234.5609 L44.9599,226.5206 L40.33562,218.3642 L36.06492,210.1124 L32.15848,201.7862 L28.62607,193.4066 L25.47651,184.9951 L22.71768,176.5729 L20.35648,168.1614 L18.39879,159.782 L16.84953,151.4561 L15.71255,143.2046 L14.9907,135.0486 L14.68579,127.0088 L14.79858,119.1056 L15.32878,111.3591 L16.27508,103.789 L17.63509,96.4144 L19.40544,89.25414 L21.58169,82.32637 L24.15839,75.6487 L27.12912,69.23806 L30.48645,63.11076 L34.22198,57.28234 L38.32637,51.76761 L42.78938,46.58058 L47.59983,41.73441 L52.74572,37.24142 L58.21418,33.11302 L63.99154,29.35969 L70.06335,25.99096 L76.41444,23.01538 L83.02895,20.44053 L89.89034,18.27292 L96.98144,16.51808 L104.2845,15.18045 L111.7814,14.26343 L119.4533,13.76935 L127.281,13.69948 L135.2449,14.05397 L143.3253,14.83194 L151.5018,16.0314 L159.754,17.64932 L168.0613,19.68158 L176.403,22.12302 L184.7581,24.96744 L193.1059,28.20762 L201.4254,31.83533 L209.6958,35.84135 L217.8965,40.21551 L226.007,44.94671 L234.007,50.02292 L241.8766,55.43126 L249.5959,61.15799 L257.1458,67.18858 L264.5074,73.50768 L271.6622,80.09927 L278.5924,86.94661 L285.2808,94.0323 L291.7104,101.3383 L297.8653,108.8462 L303.7302,116.5368 L309.2902,124.3906 L314.5316,132.3876 L319.4413,140.5076 L324.0069,148.73 L328.2171,157.0338 L332.0613,165.3979 L335.5299,173.8012 L338.6143,182.2222 L341.3067,190.6396 L343.6005,199.032 L345.4898,207.3782 L346.97,215.6568 L348.0373,223.8469 L348.6891,231.9277 L348.9238,239.8787 L348.7408,247.6796 L348.1405,255.3107 L347.1245,262.7525 L345.6952,269.9862 L343.8563,276.9934 L341.6123,283.7563 L338.9688,290.2578 L335.9326,296.4813 L332.511,302.4109 L328.7128,308.0318 L324.5474,313.3295 L320.0251,318.2906 L315.1574,322.9026 L309.9564,327.1537 L304.435,331.0331 L298.6071,334.531 L292.4872,337.6385 L286.0907,340.3476 L279.4335,342.6516 L272.5323,344.5445 L265.4043,346.0215 L258.0673,347.079 L250.5397,347.7142 L242.8403,347.9255 L234.9883,347.7124 L227.0034,347.0753 L218.9054,346.016 L210.7148,344.5371 L202.4518,342.6424 L194.1373,340.3366 L185.7919,337.6257 L177.4365,334.5165 L169.0921,331.017 L160.7794,327.1359 L152.5192,322.8832 L144.3322,318.2697 L136.2389,313.3071 L128.2594,308.0079 L120.4138,302.3857 L112.7216,296.4547 L105.2021,290.2299 L97.87399,283.7273 L90.75568,276.9633 L83.86493,269.955 L77.21897,262.7204 L70.8344,255.2777 L64.7272,247.6458 L58.9126,239.8442 L53.40517,231.8927 L48.21865,223.8113 L43.36602,215.6208 L38.8594,207.3418 L34.71005,198.9954 L30.92835,190.6028 L27.52376,182.1854 L24.50477,173.7644 L21.87893,165.3612 L19.65282,156.9973 L17.83199,148.6938 L16.42099,140.4719 L15.42336,132.3524 L14.84157,124.3559 L14.6771,116.5028 L14.93034,108.813 L15.60067,101.3059 L16.68642,94.00082 L18.18486,86.91614 L20.09225,80.06988 L22.40382,73.47945 L25.11381,67.16156 L28.21542,61.13228 L31.70092,55.40691 L35.56158,49.99999 L39.78777,44.92526 L44.36891,40.1956 L49.29355,35.82302 L54.5494,31.81863 L60.1233,28.1926 L66.00133,24.95413 L72.16879,22.11146 L78.61028,19.67179 L85.30968,17.64134 L92.25026,16.02524 L99.41467,14.82761 L106.785,14.0515 L114.3428,13.69886 L122.0692,13.77059 L129.945,14.26652 L137.9503,15.18538 L146.0652,16.52485 L154.2695,18.28151 L162.5426,20.4509 L170.8638,23.02753 L179.2123,26.00484 L187.5673,29.37527 L195.9079,33.13026 L204.2132,37.26028 L212.4625,41.75484 L220.6351,46.60253 L228.7107,51.79102 L236.6691,57.30715 L244.4903,63.13691 L252.1548,69.26549 L259.6434,75.67732 L266.9375,82.35613 L274.0187,89.28496 L280.8695,96.44619 L287.4727,103.8217 L293.8117,111.3926 L299.8708,119.1398 L305.6347,127.0437 L311.0891,135.084 L316.2204,143.2405 L321.0157,151.4923 L325.463,159.8186 L329.5512,168.1981 L333.2701,176.6097 L336.6104,185.0319 L339.5638,193.4434 L342.1229,201.8227 L344.2812,210.1487 L346.0334,218.4001 L347.3751,226.5561 L348.303,234.5958 L348.8147,242.4989 L348.9089,250.2453 L348.5854,257.8154 L347.8451,265.1899 L346.6898,272.35 L345.1223,279.2777 L343.1466,285.9553 L340.7676,292.3658 L337.9912,298.493 L334.8245,304.3213 L331.2753,309.8358 L327.3525,315.0227 L323.0658,319.8687 L318.4261,324.3616 L313.4449,328.4898 L308.1346,332.243 L302.5086,335.6115 L296.5808,338.5869 L290.3662,341.1616 L283.8802,343.329 L277.1391,345.0837 L270.1596,346.4211 L262.9593,347.338 L255.5562,347.8319 L247.9687,347.9016 L240.2158,347.5469 L232.3169,346.7687 L224.2917,345.5691 L216.1603,343.951 L207.9431,341.9185 L199.6604,339.4769 L191.3332,336.6323 L182.9821,333.392 L174.6281,329.7641 L166.292,325.7579 L157.9946,321.3836 L149.7568,316.6523 L141.599,311.5759 L133.5417,306.1674 L125.6051,300.4406 L117.8089,294.4098 L110.1726,288.0906 L102.7154,281.4989 L95.45584,274.6515 L88.41209,267.5656 L81.60178,260.2595 L75.0419,252.7516 L68.74886,245.0609 L62.73839,237.2071 L57.02551,229.2099 L51.6245,221.0899 L46.54886,212.8675 L41.81128,204.5637 L37.42359,196.1995 L33.39677,187.7963 L29.74088,179.3752 L26.46506,170.9578 L23.57749,162.5654 L21.0854,154.2193 L18.99501,145.9407 L17.31155,137.7506 L16.03922,129.6699 L15.1812,121.719 L14.73965,113.9181 L14.71566,106.2872 L15.10929,98.84541 L15.91956,91.61179 L17.14444,84.60468 L18.78088,77.84187 L20.82478,71.34054 L23.27103,65.11719 L26.11352,59.18764 L29.34515,53.56693 L32.95783,48.26936 L36.94254,43.30836 L41.28931,38.69654 L45.9873,34.44561 L51.02473,30.56636 L56.38905,27.06866 L62.06682,23.96137 L68.04385,21.2524 L74.30523,18.94862 L80.83528,17.05588 L87.61769,15.579 L94.63551,14.52171 L101.8712,13.88671 L109.3066,13.6756 L116.9233,13.88893 L124.7021,14.52616 L132.6236,15.58565 L140.6681,17.06473 L148.8153,18.95964 L157.045,21.26556 L165.3366,23.97664 L173.6693,27.086 L182.0223,30.58573 L190.3748,34.46695 L198.7059,38.7198 L206.9947,43.33349 L215.2205,48.29629 L223.3628,53.5956 L231.4012,59.21796 L239.3156,65.14909 L247.0862,71.37394 L254.6937,77.87669 L262.119,84.64082 L269.3435,91.64917 L276.3492,98.88393 L283.1186,106.3267 L289.6347,113.9587 L295.8813,121.7603 L301.8428,129.712 L307.5042,137.7933 L312.8514,145.9839 L317.8711,154.2629 L322.5507,162.6093 L326.8784,171.0019 L330.8435,179.4194 L334.4361,187.8404 L337.6472,196.2435 L340.4688,204.6075 L342.8937,212.9109 L344.916,221.1328 L346.5306,229.2522 L347.7335,237.2487 L348.5216,245.1017 L348.893,252.7915 L348.8467,260.2984 L348.3829,267.6034 L347.5028,274.688 L346.2085,281.5342 L344.5032,288.1245 L342.3913,294.4422 L339.8779,300.4714 L336.9695,306.1966 L333.6732,311.6034 L329.9973,316.678 L325.951,321.4075 L321.5444,325.7799 L316.7885,329.7841 L311.6952,333.41 L306.2772,336.6483 L300.5481,339.4908 L294.5222,341.9303 L288.2145,343.9606 L281.6409,345.5765 L274.8177,346.7739 L267.762,347.5499 L260.4914,347.9023 L253.0242,347.8304 L245.3789,347.3343 L237.5747,346.4152 L229.6311,345.0756 L221.568,343.3188 L213.4055,341.1492 L205.1639,338.5724 L196.864,335.5949 L188.5264,332.2243 L180.172,328.4691 L171.8217,324.3389 L163.4963,319.8442 L155.2166,314.9964 L147.0034,309.8077 L138.8772,304.2915 L130.8582,298.4616 L122.9666,292.3329 L115.222,285.9209 L107.6439,279.242 L100.2511,272.3131 L93.0621,265.1517 L86.09492,257.7762 L79.36695,250.2051 L72.89501,242.4578 L66.69527,234.5539 L60.78325,226.5135 L55.17369,218.357 L49.88063,210.1052 L44.9173,201.7789 L40.29611,193.3993 L36.02861,184.9877 L32.12545,176.5655 L28.5964,168.1541 L25.45028,159.7747 L22.69495,151.4488 L20.33731,143.1974 L18.38323,135.0415 L16.83761,127.0018 L15.70431,119.0988 L14.98616,111.3524 L14.68495,103.7824 L14.80145,96.40804 L15.33536,89.24797 L16.28534,82.32042 L17.64902,75.64297 L19.42299,69.23257 L21.60282,63.10553 L24.18305,57.27738 L27.15725,51.76293 L30.51797,46.57619 L34.25682,41.73033 L38.36445,37.23765 L42.83059,33.10957 L47.64408,29.35657 L52.79289,25.98818 L58.26415,23.01295 L64.04419,20.43845 L70.11855,18.27121 L76.47206,16.51672 L83.08883,15.17946 L89.95232,14.26281 L97.04539,13.76911 L104.3503,13.6996 L111.8488,14.05446 L119.5221,14.8328 L127.3511,16.03263 L135.3162,17.65092 L143.3975,19.68353 L151.5747,22.12533 L159.8275,24.9701 L168.1353,28.21062 L176.4771,31.83867 L184.8323,35.84501 L193.1799,40.21949 L201.4991,44.951 L209.769,50.02751 L217.969,55.43613 L226.0786,61.16314 L234.0775,67.19398 L241.9458,73.51333 L249.6637,80.10516 L257.212,86.95271 L264.5719,94.0386 L271.7248,101.3448 L278.653,108.8529 L285.339,116.5436 L291.7663,124.3975 L297.9187,132.3947 L303.7809,140.5148 L309.3382,148.7372 L314.5767,157.041 L319.4834,165.4052 L324.0459,173.8085 L328.2528,182.2296 L332.0938,190.647 L335.559,199.0394 L338.6399,207.3855 L341.3289,215.664 L343.619,223.854 L345.5047,231.9347 L346.9813,239.8856 L348.0449,247.6863 L348.6931,255.3172 L348.924,262.7589 L348.7373,269.9924 L348.1333,276.9995 L347.1136,283.7621 L345.6807,290.2634 L343.8381,296.4866 L341.5905,302.416 L338.9436,308.0366 L335.9038,313.334 L332.4789,318.2948 L328.6774,322.9065 L324.5088,327.1573 L319.9834,331.0363 L315.1126,334.5339 L309.9087,337.641 L304.3846,340.3498 L298.554,342.6534 L292.4316,344.546 L286.0327,346.0227 L279.3733,347.0798 L272.47,347.7146 L265.34,347.9255 L258.0013,347.712 L250.472,347.0746 L242.7712,346.0149 L234.9179,344.5356 L226.9319,342.6405 L218.8331,340.3344 L210.6417,337.6232 L202.3782,334.5137 L194.0633,331.0138 L185.7177,327.1324 L177.3623,322.8794 L169.0181,318.2655 L160.7057,313.3026 L152.4461,308.0031 L144.2599,302.3806 L136.1675,296.4493 L128.1891,290.2244 L120.3448,283.7215 L112.654,276.9573 L105.1361,269.9488 L97.80981,262.714 L90.69345,255.2711 L83.8048,247.6391 L77.16109,239.8373 L70.77892,231.8856 L64.67424,223.8042 L58.86232,215.6136 L53.35767,207.3345 L48.17406,198.9881 L43.32445,190.5955 L38.82096,182.178 L34.67483,173.757 L30.89644,165.3539 L27.49523,156.99 L24.47971,148.6866 L21.8574,140.4648 L19.63486,132.3453 L17.81765,124.349 L16.41031,116.496 L15.41636,108.8063 L14.83827,101.2995 L14.67751,93.99453 L14.93446,86.91004 L15.60849,80.064 L16.69791,73.47379 L18.2,67.15616 L20.11101,61.12714 L22.42615,55.40204 L25.13964,49.99541 L28.2447,44.92097 L31.73357,40.19162 L35.59753,35.81936 L39.82691,31.81529 L44.41115,28.1896 L49.33879,24.95147 L54.59752,22.10915 L60.17419,19.66984 L66.05485,17.63974 L72.22482,16.02401 L78.66866,14.82675 L85.37029,14.051 L92.31293,13.69873 L99.47925,13.77084 L106.8513,14.26714 L114.4107,15.18637 L122.1386,16.5262" stroke="#000000" stroke-width="0.24" fill="none" />
</svg>