<?xml version="1.0" encoding="utf-8" standalone="no"?>
<!DOCTYPE svg PUBLIC "-//W3C//DTD SVG 1.1//EN" "http://www.w3.org/Graphics/SVG/1.1/DTD/svg11.dtd">
<svg version="1.1" width="360pt" height="360pt" viewBox="0 0 360 360" overflow="visible" xmlns="http://www.w3.org/2000/svg">
  <path d="M180.4542,32.62065 L183.0264,32.71387 L185.5978,32.9934 L188.1678,33.45892 L190.7355,34.10984 L193.3004,34.94537 L195.8615,35.96449 L198.4183,37.16595 L200.9699,38.54827 L203.5157,40.10977 L206.0549,41.84853 L208.5867,43.76242 L211.1106,45.84909 L213.6256,48.106 L216.1313,50.53037 L218.6267,53.11924 L221.1112,55.86944 L223.5841,58.77759 L226.0447,61.84014 L228.4922,65.05333 L230.9261,68.41323 L233.3455,71.91573 L235.7498,75.55652 L238.1384,79.33116 L240.5104,83.23502 L242.8653,87.26331 L245.2024,91.41111 L247.521,95.67334 L249.8204,100.0448 L252.1,104.52 L254.3592,109.0937 L256.5972,113.7601 L258.8135,118.5135 L261.0074,123.3482 L263.1784,128.2582 L265.3257,133.2375 L267.4487,138.2799 L269.5469,143.3794 L271.6197,148.5296 L273.6664,153.7244 L275.6865,158.9572 L277.6794,164.2216 L279.6446,169.5114 L281.5814,174.8199 L283.4893,180.1406 L285.3678,185.4671 L287.2163,190.7928 L289.0344,196.1112 L290.8214,201.4158 L292.5769,206.7001 L294.3004,211.9575 L295.9914,217.1818 L297.6493,222.3664 L299.2738,227.505 L300.8644,232.5913 L302.4206,237.6192 L303.9419,242.5824 L305.428,247.4748 L306.8784,252.2905 L308.2927,257.0236 L309.6704,261.6682 L311.0113,266.2188 L312.3148,270.6696 L313.5808,275.0152 L314.8087,279.2505 L315.9982,283.37 L317.149,287.3688 L318.2607,291.2421 L319.3332,294.985 L320.3659,298.593 L321.3587,302.0616 L322.3112,305.3866 L323.2233,308.564 L324.0945,311.5898 L324.9247,314.4603 L325.7137,317.1721 L326.4612,319.7217 L327.167,322.1061 L327.8308,324.3224 L328.4526,326.3678 L329.0322,328.2398 L329.5692,329.9362 L330.0638,331.4548 L330.5155,332.7938 L330.9244,333.9516 L331.2903,334.9267 L331.6132,335.718 L331.8929,336.3244 L332.1293,336.7453 L332.3224,336.9801 L332.6414,336.5663 L332.6608,336.0562 L332.6367,335.3608 L332.5692,334.4811 L332.4583,333.4181 L332.3039,332.173 L332.1061,330.7475 L331.8651,329.1432 L331.5807,327.3622 L331.2533,325.4066 L330.8828,323.2788 L330.4692,320.9814 L330.0129,318.5172 L329.5138,315.8893 L328.9722,313.1009 L328.3882,310.1553 L327.7619,307.0562 L327.0935,303.8074 L326.3832,300.4129 L325.6313,296.8768 L324.8379,293.2034 L324.0033,289.3973 L323.1277,285.4631 L322.2113,281.4056 L321.2544,277.2299 L320.2574,272.9409 L319.2204,268.5441 L318.1437,264.0447 L317.0278,259.4482 L315.8728,254.7604 L314.6792,249.9869 L313.4472,245.1336 L312.1772,240.2064 L310.8697,235.2114 L309.5248,230.1547 L308.1432,225.0424 L306.725,219.8809 L305.2708,214.6765 L303.7809,209.4355 L302.2558,204.1643 L300.6959,198.8695 L299.1017,193.5575 L297.4736,188.2348 L295.8121,182.9079 L294.1176,177.5833 L292.3907,172.2676 L290.6318,166.9674 L288.8414,161.6889 L287.0201,156.4389 L285.1683,151.2236 L283.2867,146.0494 L281.3756,140.9228 L279.4357,135.8499 L277.4676,130.8371 L275.4718,125.8903 L273.4488,121.0158 L271.3993,116.2194 L269.3237,111.507 L267.2228,106.8845 L265.0972,102.3574 L262.9473,97.93135 L260.7739,93.61172 L258.5776,89.40383 L256.3589,85.31282 L254.1186,81.3437 L251.8572,77.50134 L249.5754,73.79043 L247.2739,70.21553 L244.9533,66.78101 L242.6143,63.49109 L240.2575,60.34979 L237.8837,57.36096 L235.4934,54.52826 L233.0875,51.85516 L230.6665,49.34494 L228.2311,47.00066 L225.7821,44.8252 L223.3202,42.82123 L220.846,40.9912 L218.3603,39.33735 L215.8638,37.86171 L213.3571,36.56607 L210.8411,35.45205 L208.3163,34.52098 L205.7836,33.77403 L203.2437,33.2121 L200.6973,32.83587 L198.1451,32.64582 L195.5878,32.64217 L193.0262,32.82492 L190.4611,33.19387 L187.893,33.74854 L185.3229,34.48827 L182.7513,35.41214 L180.1791,36.51902 L177.607,37.80757 L175.0357,39.2762 L172.4659,40.92311 L169.8984,42.74628 L167.334,44.74348 L164.7732,46.91227 L162.217,49.24999 L159.666,51.75378 L157.1209,54.42056 L154.5824,57.24707 L152.0514,60.22986 L149.5285,63.36526 L147.0144,66.64944 L144.5098,70.07836 L142.0155,73.64784 L139.5322,77.35351 L137.0606,81.19081 L134.6014,85.15506 L132.1552,89.24139 L129.7229,93.44481 L127.3051,97.76015 L124.9024,102.1821 L122.5156,106.7054 L120.1453,111.3243 L117.7923,116.0332 L115.4572,120.8264 L113.1406,125.698 L110.8433,130.6421 L108.5658,135.6525 L106.3089,140.7231 L104.0731,145.8477 L101.8592,151.0201 L99.66769,156.2339 L97.49927,161.4828 L95.35454,166.7602 L93.23412,172.0598 L91.1386,177.3749 L89.0686,182.6993 L87.02469,188.0262 L85.00747,193.3492 L83.01751,198.6618 L81.05538,203.9574 L79.12164,209.2296 L77.21684,214.4719 L75.34151,219.6779 L73.49622,224.8412 L71.68147,229.9555 L69.89778,235.0145 L68.14568,240.012 L66.42564,244.942 L64.73817,249.7983 L63.08376,254.575 L61.46286,259.2664 L59.87595,263.8665 L58.32347,268.3698 L56.80588,272.7708 L55.3236,277.064 L53.87706,281.2443 L52.46667,285.3065 L51.09283,289.2456 L49.75595,293.0568 L48.45638,296.7355 L47.19452,300.277 L45.97071,303.6772 L44.78532,306.9318 L43.63867,310.0368 L42.5311,312.9884 L41.46292,315.7831 L40.43443,318.4174 L39.44594,320.888 L38.49771,323.192 L37.59003,325.3265 L36.72316,327.2889 L35.89733,329.0768 L35.11279,330.688 L34.36976,332.1206 L33.66845,333.3727 L33.00906,334.4429 L32.39178,335.3299 L31.8168,336.0324 L31.28426,336.5498 L30.79433,336.8814 L30.34714,337.0266 L29.94282,336.9855 L29.58148,336.758 L29.26324,336.3444 L28.98818,335.7452 L28.75637,334.9612 L28.5679,333.9932 L28.4228,332.8426 L28.32112,331.5106 L28.26289,329.999 L28.24813,328.3095 L28.27684,326.4443 L28.34901,324.4057 L28.46462,322.1961 L28.62364,319.8182 L28.82603,317.275 L29.07172,314.5695 L29.36064,311.7051 L29.69272,308.6854 L30.06786,305.5139 L30.48594,302.1945 L30.94686,298.7315 L31.45048,295.1289 L31.99665,291.3911 L32.58523,287.5229 L33.21603,283.5289 L33.88889,279.414 L34.60361,275.1832 L35.35998,270.8418 L36.15779,266.395 L36.99682,261.8482 L37.87681,257.2072 L38.79753,252.4775 L39.7587,247.6649 L40.76006,242.7753 L41.80131,237.8148 L42.88216,232.7894 L44.00231,227.7052 L45.16143,222.5685 L46.35918,217.3856 L47.59523,212.1628 L48.86923,206.9065 L50.18081,201.6232 L51.5296,196.3193 L52.91521,191.0013 L54.33724,185.6757 L55.79529,180.3492 L57.28895,175.028 L58.81778,169.719 L60.38135,164.4284 L61.97921,159.1628 L63.61092,153.9286 L65.27599,148.7323 L66.97395,143.5802 L68.70433,138.4786 L70.46663,133.4338 L72.26034,128.4519 L74.08494,123.5391 L75.93993,118.7014 L77.82477,113.9446 L79.73891,109.2747 L81.68182,104.6973 L83.65295,100.2181 L85.65172,95.84251 L87.67756,91.5759 L89.7299,87.42353 L91.80815,83.39046 L93.91173,79.48164 L96.04002,75.70185 L98.19241,72.05573 L100.3683,68.54774 L102.5671,65.18217 L104.7881,61.96316 L107.0307,58.89464 L109.2943,55.98037 L111.5782,53.22393 L113.8818,50.62868 L116.2044,48.19781 L118.5453,45.93429 L120.9039,43.8409 L123.2796,41.9202 L125.6715,40.17454 L128.0792,38.60606 L130.5017,37.21669 L132.9386,36.00812 L135.389,34.98183 L137.8522,34.1391 L140.3277,33.48093 L142.8146,33.00814 L145.3123,32.72131 L147.8199,32.62079 L150.337,32.70671 L152.8626,32.97896 L155.3961,33.4372 L157.9367,34.08087 L160.4838,34.90919 L163.0366,35.92114 L165.5943,37.11549 L168.1564,38.49076 L170.7219,40.04527 L173.2902,41.77713 L175.8605,43.6842 L178.4322,45.76416 L181.0044,48.01445 L183.5765,50.43232 L186.1476,53.0148 L188.7172,55.75874 L191.2844,58.66078 L193.8485,61.71735 L196.4088,64.92471 L198.9645,68.27895 L201.5149,71.77593 L204.0594,75.4114 L206.597,79.18088 L209.1272,83.07977 L211.6493,87.10329 L214.1624,91.2465 L216.6659,95.50433 L219.159,99.87158 L221.6411,104.3429 L224.1114,108.9128 L226.5693,113.5757 L229.014,118.3258 L231.4448,123.1574 L233.8611,128.0646 L236.2621,133.0412 L238.6471,138.0813 L241.0156,143.1787 L243.3667,148.3271 L245.6999,153.5202 L248.0144,158.7516 L250.3097,164.015 L252.585,169.3038 L254.8397,174.6117 L257.0731,179.9321 L259.2847,185.2585 L261.4738,190.5844 L263.6397,195.9032 L265.7818,201.2084 L267.8996,206.4936 L269.9924,211.7522 L272.0597,216.9779 L274.1007,222.1642 L276.1151,227.3047 L278.1021,232.3932 L280.0612,237.4235 L281.9919,242.3893 L283.8936,247.2846 L285.7657,252.1034 L287.6078,256.8399 L289.4192,261.4881 L291.1995,266.0424 L292.9482,270.4972 L294.6648,274.8471 L296.3488,279.0867 L297.9996,283.2109 L299.6169,287.2146 L301.2002,291.0928 L302.7489,294.8409 L304.2628,298.4543 L305.7412,301.9284 L307.1839,305.2592 L308.5904,308.4424 L309.9603,311.4742 L311.2932,314.3509 L312.5888,317.0689 L313.8466,319.6249 L315.0663,322.0159 L316.2476,324.2388 L317.3901,326.2909 L318.4934,328.1698 L319.5574,329.873 L320.5816,331.3987 L321.5658,332.7448 L322.5097,333.9097 L323.4131,334.892 L324.2755,335.6905 L325.097,336.3042 L325.8771,336.7323 L326.6157,336.9744 L327.3125,337.0302 L327.9674,336.8995 L328.5801,336.5825 L329.1506,336.0797 L329.6786,335.3916 L330.164,334.519 L330.6066,333.4631 L331.0063,332.2252 L331.363,330.8067 L331.6767,329.2094 L331.9471,327.4353 L332.1743,325.4865 L332.3581,323.3653 L332.4986,321.0745 L332.5956,318.6168 L332.6492,315.9953 L332.6593,313.213 L332.6259,310.2736 L332.5491,307.1804 L332.4289,303.9374 L332.2652,300.5485 L332.0582,297.0179 L331.8079,293.3498 L331.5143,289.5488 L331.1776,285.6195 L330.7979,281.5668 L330.3752,277.3956 L329.9097,273.111 L329.4016,268.7182 L328.8508,264.2227 L328.2578,259.63 L327.6224,254.9456 L326.9451,250.1754 L326.2259,245.3251 L325.4651,240.4007 L324.6629,235.4082 L323.8195,230.3538 L322.9351,225.2436 L322.01,220.0839 L321.0446,214.881 L320.0389,209.6413 L318.9934,204.3712 L317.9083,199.0772 L316.784,193.7657 L315.6208,188.4433 L314.4189,183.1165 L313.1787,177.7917 L311.9007,172.4756 L310.5851,167.1745 L309.2324,161.8952 L307.8429,156.6439 L306.417,151.4271 L304.9551,146.2512 L303.4576,141.1226 L301.9251,136.0475 L300.3578,131.0322 L298.7563,126.0827 L297.121,121.2052 L295.4524,116.4057 L293.7509,111.6899 L292.0172,107.0637 L290.2515,102.5328 L288.4544,98.10271 L286.6266,93.77882 L284.7683,89.56644 L282.8803,85.47076 L280.9631,81.49678 L279.0172,77.64936 L277.043,73.93322 L275.0414,70.35291 L273.0126,66.91282 L270.9575,63.61716 L268.8765,60.46996 L266.7703,57.47509 L264.6394,54.63621 L262.4844,51.9568 L260.3061,49.44014 L258.1049,47.08931 L255.8815,44.90718 L253.6366,42.89645 L251.3708,41.05956 L249.0848,39.39877 L246.7792,37.91611 L244.4546,36.61341 L242.1117,35.49224 L239.7512,34.55399 L237.3738,33.7998 L234.9801,33.23061 L232.5709,32.84711 L230.1468,32.64975 L227.7084,32.6388 L225.2566,32.81426 L222.792,33.17592 L220.3153,33.72333 L217.8272,34.45583 L215.3284,35.37251 L212.8197,36.47225 L210.3018,37.75371 L207.7753,39.21532 L205.241,40.85528 L202.6996,42.67159 L200.1519,44.66203 L197.5985,46.82415 L195.0403,49.1553 L192.4779,51.65264 L189.912,54.3131 L187.3435,57.13342 L184.7729,60.11015 L182.2012,63.23965 L179.629,66.51807 L177.0569,69.94141 L174.4859,73.50547 L171.9165,77.20589 L169.3496,81.03812 L166.7859,84.99749 L164.2261,89.07913 L161.6709,93.27806 L159.1211,97.58912 L156.5773,102.007 L154.0404,106.5264 L151.5111,111.1417 L148.9899,115.8472 L146.4778,120.6372 L143.9754,125.5059 L141.4834,130.4472 L139.0026,135.4551 L136.5335,140.5235 L134.0771,145.6461 L131.6338,150.8168 L129.2045,156.0291 L126.7899,161.2766 L124.3905,166.5531 L122.0072,171.8519 L119.6406,177.1666 L117.2913,182.4907 L114.9601,187.8176 L112.6476,193.1409 L110.3545,198.454 L108.0813,203.7504 L105.8289,209.0237 L103.5977,214.2672 L101.3885,219.4748 L99.20193,224.6399 L97.03852,229.7562 L94.89894,234.8175 L92.7838,239.8176 L90.69369,244.7503 L88.62922,249.6096 L86.59097,254.3896 L84.57954,259.0843 L82.59547,263.6881 L80.63937,268.1953 L78.71177,272.6004 L76.81322,276.898 L74.94429,281.0828 L73.10548,285.1497 L71.29733,289.0937 L69.52036,292.91 L67.77507,296.594 L66.06196,300.141 L64.38152,303.5468 L62.73423,306.8071 L61.12057,309.9181 L59.54099,312.8758 L57.99593,315.6767 L56.48586,318.3173 L55.01119,320.7944 L53.57235,323.1049 L52.16974,325.2461 L50.80377,327.2153 L49.47483,329.0101 L48.1833,330.6283 L46.92955,332.0679 L45.71393,333.3271 L44.5368,334.4044 L43.39848,335.2986 L42.2993,336.0084 L41.23959,336.5331 L40.21964,336.8719 L39.23973,337.0245 L38.30016,336.9906 L37.40118,336.7704 L36.54306,336.3641 L35.72605,335.7722 L34.95037,334.9953 L34.21624,334.0346 L33.52388,332.8911 L32.87349,331.5662 L32.26524,330.0615 L31.69932,328.379 L31.17588,326.5207 L30.69508,324.4888 L30.25705,322.2858 L29.86192,319.9145 L29.50979,317.3777 L29.20078,314.6785 L28.93496,311.8203 L28.71242,308.8065 L28.53321,305.6409 L28.3974,302.3273 L28.30501,298.8697 L28.25608,295.2725 L28.25062,291.54 L28.28862,287.6768 L28.37008,283.6876 L28.49499,279.5773 L28.66329,275.351 L28.87494,271.0138 L29.12988,266.571 L29.42805,262.0281 L29.76934,257.3906 L30.15367,252.6643 L30.58093,247.8548 L31.05099,242.9682 L31.56373,238.0103 L32.11898,232.9873 L32.71661,227.9053 L33.35642,222.7706 L34.03825,217.5893 L34.76189,212.368 L35.52715,207.1129 L36.33379,201.8305 L37.1816,196.5273 L38.07033,191.2097 L38.99972,185.8843 L39.96951,180.5577 L40.97942,175.2363 L42.02917,169.9266 L43.11846,164.6351 L44.24696,159.3684 L45.41437,154.1329 L46.62035,148.935 L47.86455,143.781 L49.14662,138.6774 L50.46619,133.6302 L51.82288,128.6458 L53.21631,123.7301 L54.64608,118.8893 L56.11179,114.1293 L57.613,109.4559 L59.1493,104.8748 L60.72025,100.3916 L62.32539,96.01183 L63.96426,91.74087 L65.63641,87.58392 L67.34135,83.54609 L69.0786,79.63231 L70.84766,75.84738 L72.64801,72.19594 L74.47916,68.68246 L76.34058,65.31124 L78.23173,62.08641 L80.15208,59.01193 L82.10107,56.09155 L84.07816,53.32886 L86.08276,50.72724 L88.11432,48.28987 L90.17226,46.01974 L92.25597,43.91964 L94.36488,41.99213 L96.49837,40.23958 L98.65585,38.66413 L100.8367,37.26771 L103.0403,36.05203 L105.2659,35.01858 L107.5131,34.16863 L109.7811,33.50322 L112.0693,33.02316 L114.377,32.72904 L116.7036,32.62122 L119.0483,32.69984 L121.4107,32.96479 L123.7898,33.41576 L126.1852,34.05219 L128.5961,34.87329 L131.0218,35.87807 L133.4616,37.0653 L135.9148,38.43352 L138.3807,39.98105 L140.8587,41.706 L143.3479,43.60625 L145.8478,45.67948 L148.3575,47.92315 L150.8764,50.33451 L153.4038,52.91061 L155.9389,55.64829 L158.481,58.5442 L161.0294,61.59479 L163.5833,64.79633 L166.142,68.14488 L168.7048,71.63636 L171.271,75.26648 L173.8398,79.0308 L176.4105,82.92471 L178.9823,86.94344 L181.5546,91.08205 L184.1265,95.3355 L186.6974,99.69857 L189.2665,104.1659 L191.8331,108.732 L194.3965,113.3914 L196.9558,118.1382 L199.5105,122.9668 L202.0597,127.8711 L204.6027,132.8451 L207.1389,137.8829 L209.6674,142.9781 L212.1876,148.1246 L214.6987,153.3161 L217.2,158.5461 L219.6909,163.8083 L222.1705,169.0963 L224.6382,174.4036 L227.0933,179.7236 L229.5351,185.0499 L231.9628,190.3759 L234.3759,195.6951 L236.7735,201.001 L239.1551,206.2871 L241.5199,211.5469 L243.8673,216.7739 L246.1965,221.9619 L248.507,227.1043 L250.798,232.195 L253.069,237.2277 L255.3192,242.1961 L257.548,247.0943 L259.7548,251.9162 L261.939,256.656 L264.0999,261.3078 L266.2368,265.8659 L268.3494,270.3247 L270.4367,274.6788 L272.4984,278.9229 L274.5338,283.0516 L276.5424,287.0601 L278.5235,290.9434 L280.4766,294.6967 L282.4011,298.3154 L284.2965,301.7951 L286.1622,305.1315 L287.9978,308.3206 L289.8026,311.3584 L291.5762,314.2412 L293.3181,316.9655 L295.0277,319.5279 L296.7047,321.9254 L298.3484,324.1549 L299.9584,326.2138 L301.5343,328.0995 L303.0757,329.8097 L304.582,331.3423 L306.0528,332.6954 L307.4878,333.8675 L308.8865,334.857 L310.2485,335.6627 L311.5735,336.2836 L312.861,336.7191 L314.1107,336.9684 L315.3222,337.0315 L316.4952,336.9081 L317.6294,336.5984 L318.7243,336.1028 L319.7798,335.422 L320.7955,334.5566 L321.7711,333.5079 L322.7064,332.2771 L323.601,330.8656 L324.4547,329.2753 L325.2673,327.5081 L326.0385,325.566 L326.7682,323.4516 L327.4561,321.1674 L328.102,318.7162 L328.7057,316.101 L329.2671,313.325 L329.786,310.3916 L330.2622,307.3044 L330.6957,304.0672 L331.0862,300.6839 L331.4337,297.1587 L331.7381,293.4959 L331.9993,289.7001 L332.2173,285.7758 L332.3918,281.7278 L332.523,277.5611 L332.6107,273.2808 L332.655,268.8922 L332.6558,264.4007 L332.6132,259.8116 L332.527,255.1307 L332.3975,250.3637 L332.2246,245.5164 L332.0083,240.5948 L331.7487,235.6049 L331.4459,230.5528 L331.1,225.4447 L330.7111,220.2868 L330.2793,215.0855 L329.8046,209.8471 L329.2874,204.5781 L328.7275,199.2849 L328.1254,193.974 L327.4811,188.6519 L326.7948,183.3251 L326.0667,178.0001 L325.297,172.6835 L324.4859,167.3818 L323.6337,162.1014 L322.7406,156.8489 L321.8069,151.6306 L320.8328,146.453 L319.8186,141.3224 L318.7646,136.2452 L317.6711,131.2274 L316.5385,126.2752 L315.3669,121.3948 L314.1568,116.5921 L312.9086,111.8729 L311.6225,107.2431 L310.2989,102.7084 L308.9383,98.27423 L307.5409,93.94608 L306.1073,89.72924 L304.6378,85.62889 L303.1328,81.65005 L301.5928,77.79758 L300.0182,74.07622 L298.4094,70.49051 L296.7669,67.04485 L295.0912,63.74345 L293.3828,60.59037 L291.6422,57.58946 L289.8697,54.7444 L288.066,52.05869 L286.2316,49.53559 L284.367,47.17821 L282.4727,44.98943 L280.5493,42.97194 L278.5973,41.1282 L276.6172,39.46047 L274.6097,37.9708 L272.5753,36.66101 L270.5146,35.53271 L268.4281,34.58728 L266.3165,33.82587 L264.1805,33.24941 L262.0204,32.85862 L259.8372,32.65398 L257.6312,32.63572 L255.4032,32.80389 L253.1538,33.15826 L250.8836,33.69841 L248.5933,34.42367 L246.2835,35.33316 L243.955,36.42575 L241.6083,37.70013 L239.2441,39.15471 L236.8632,40.78773 L234.4661,42.59718 L232.0536,44.58083 L229.6264,46.73628 L227.1851,49.06087 L224.7305,51.55175 L222.2633,54.20589 L219.7841,57.02001 L217.2936,59.99068 L214.7927,63.11427 L212.2819,66.38693 L209.7621,69.80468 L207.2339,73.3633 L204.698,77.05846 L202.1552,80.88563 L199.6062,84.8401 L197.0517,88.91705 L194.4925,93.11148 L191.9293,97.41825 L189.3628,101.8321 L186.7938,106.3476 L184.223,110.9592 L181.651,115.6613 L179.0788,120.4481 L176.5069,125.3138 L173.9362,130.2524 L171.3673,135.2578 L168.801,140.3239 L166.2381,145.4446 L163.6792,150.6134 L161.125,155.8242 L158.5765,161.0706 L156.0341,166.346 L153.4988,171.644 L150.9711,176.9582 L148.4519,182.2821 L145.9418,187.609 L143.4415,192.9326 L140.9518,198.2462 L138.4734,203.5434 L136.007,208.8177 L133.5533,214.0625 L131.113,219.2716 L128.6868,224.4385 L126.2754,229.5568 L123.8794,234.6204 L121.4996,239.623 L119.1366,244.5585 L116.7912,249.4208 L114.4639,254.2039 L112.1555,258.9021 L109.8666,263.5096 L107.5978,268.0207 L105.3498,272.4299 L103.1233,276.7318 L100.9189,280.9211 L98.73723,284.9927 L96.57887,288.9417 L94.44447,292.7631 L92.33463,296.4522 L90.24995,300.0047 L88.19104,303.4161 L86.15848,306.6822 L84.15285,309.7991 L82.17472,312.7629 L80.22466,315.57 L78.30324,318.2169 L76.41098,320.7005 L74.54844,323.0176 L72.71614,325.1655 L70.91462,327.1415 L69.14438,328.9431 L67.40593,330.5683 L65.69977,332.0149 L64.02638,333.2812 L62.38625,334.3657 L60.77983,335.267 L59.2076,335.9841 L57.66999,336.516 L56.16745,336.8621 L54.70041,337.022 L53.26929,336.9955 L51.87449,336.7826 L50.5164,336.3835 L49.19543,335.7988 L47.91195,335.0292 L46.66633,334.0756 L45.45891,332.9392 L44.29005,331.6214 L43.16008,330.1238 L42.06932,328.4482 L41.01808,326.5967 L40.00667,324.5716 L39.03537,322.3752 L38.10445,320.0104 L37.2142,317.4801 L36.36485,314.7872 L35.55666,311.9352 L34.78984,308.9274 L34.06464,305.7676 L33.38124,302.4597 L32.73984,299.0078 L32.14064,295.416 L31.58379,291.6887 L31.06946,287.8305 L30.59779,283.8461 L30.16892,279.7405 L29.78298,275.5186 L29.44007,271.1856 L29.14029,266.7469 L28.88372,262.2078 L28.67044,257.5739 L28.50051,252.851 L28.37399,248.0447 L28.29089,243.1609 L28.25126,238.2057 L28.25509,233.1852 L28.30239,228.1054 L28.39315,222.9726 L28.52734,217.793 L28.70491,212.5731 L28.92583,207.3192 L29.19003,202.0378 L29.49742,196.7353 L29.84793,191.4181 L30.24145,186.093 L30.67788,180.7662 L31.15708,175.4445 L31.67892,170.1342 L32.24325,164.8419 L32.84991,159.5741 L33.49873,154.3373 L34.18952,149.1378 L34.92208,143.9819 L35.69621,138.8762 L36.51168,133.8267 L37.36826,128.8397 L38.2657,123.9212 L39.20376,119.0774 L40.18216,114.3141 L41.20061,109.6372 L42.25884,105.0524 L43.35654,100.5652 L44.4934,96.18134 L45.66909,91.90601 L46.88327,87.74451 L48.13559,83.70191 L49.42572,79.78318 L50.75326,75.99312 L52.11784,72.33636 L53.51908,68.8174 L54.95657,65.44053 L56.4299,62.2099 L57.93866,59.12945 L59.48241,56.20297 L61.0607,53.43404 L62.6731,50.82605 L64.31914,48.38219 L65.99834,46.10546 L67.71023,43.99865 L69.45432,42.06434 L71.23011,40.30489 L73.0371,38.72247 L74.87477,37.319 L76.74259,36.09621 L78.64003,35.05561 L80.56655,34.19845 L82.5216,33.52579 L84.50462,33.03846 L86.51504,32.73705 L88.55229,32.62194 L90.61579,32.69325 L92.70494,32.95092 L94.81916,33.39461 L96.95784,34.02378 L99.12036,34.83768 L101.3061,35.83529 L103.5145,37.01539 L105.7448,38.37655 L107.9965,39.9171 L110.2688,41.63514 L112.5612,43.52856 L114.873,45.59507 L117.2036,47.83212 L119.5522,50.23697 L121.9181,52.80667 L124.3008,55.53809 L126.6996,58.42786 L129.1137,61.47247 L131.5424,64.66816 L133.9852,68.01103 L136.4412,71.49699 L138.9097,75.12177 L141.3902,78.88092 L143.8818,82.76984 L146.3838,86.78378 L148.8956,90.91779 L151.4163,95.16684 L153.9454,99.52571 L156.4821,103.9891 L159.0255,108.5514 L161.5752,113.2072 L164.1302,117.9508 L166.6898,122.7762 L169.2534,127.6777 L171.8202,132.6491 L174.3895,137.6845 L176.9605,142.7776 L179.5325,147.9222 L182.1047,153.112 L184.6765,158.3406 L187.2471,163.6017 L189.8157,168.8888 L192.3817,174.1955 L194.9442,179.5151 L197.5027,184.8413 L200.0562,190.1674 L202.6042,195.487 L205.1458,200.7935 L207.6804,206.0805 L210.2072,211.3415 L212.7254,216.5699 L215.2345,221.7595 L217.7337,226.9039 L220.2222,231.9967 L222.6993,237.0317 L225.1644,242.0028 L227.6167,246.9039 L230.0556,251.7289 L232.4802,256.472 L234.89,261.1273 L237.2843,265.6892 L239.6624,270.152 L242.0235,274.5103 L244.367,278.7588 L246.6923,282.8922 L248.9987,286.9055 L251.2855,290.7937 L253.552,294.5522 L255.7977,298.1762 L258.0219,301.6615 L260.2239,305.0036 L262.4031,308.1985 L264.559,311.2423 L266.6908,314.1313 L268.7979,316.8618 L270.8799,319.4307 L272.936,321.8347 L274.9657,324.0708 L276.9684,326.1364 L278.9436,328.0289 L280.8906,329.746 L282.809,331.2856 L284.6981,332.6458 L286.5574,333.825 L288.3864,334.8217 L290.1846,335.6346 L291.9515,336.2628 L293.6865,336.7055 L295.3892,336.9622 L297.059,337.0325 L298.6956,336.9164 L300.2984,336.614 L301.8669,336.1257 L303.4008,335.4521 L304.8996,334.594 L306.3628,333.5524 L307.79,332.3287 L309.1809,330.9243 L310.5351,329.3409 L311.8521,327.5805 L313.1315,325.6453 L314.373,323.5376 L315.5764,321.26 L316.7411,318.8153 L317.8669,316.2064 L318.9534,313.4367 L320.0004,310.5094 L321.0075,307.4281 L321.9745,304.1967 L322.9011,300.8191 L323.787,297.2994 L324.632,293.6419 L325.4358,289.8512 L326.1981,285.9318 L326.9189,281.8885 L327.5978,277.7264 L328.2347,273.4505 L328.8294,269.0661 L329.3817,264.5784 L329.8914,259.9931 L330.3586,255.3157 L330.7828,250.552 L331.1642,245.7077 L331.5025,240.7889 L331.7976,235.8015 L332.0496,230.7518 L332.2582,225.6457 L332.4235,220.4897 L332.5454,215.2899 L332.6238,210.0529 L332.6588,204.785 L332.6504,199.4926 L332.5984,194.1822 L332.503,188.8604 L332.3642,183.5337 L332.1819,178.2085 L331.9564,172.8915 L331.6876,167.589 L331.3756,162.3077 L331.0204,157.054 L330.6223,151.8343 L330.1813,146.655 L329.6976,141.5224 L329.1712,136.4429 L328.6023,131.4227 L327.9911,126.4678 L327.3378,121.5845 L326.6425,116.7786 L325.9055,112.0561 L325.127,107.4227 L324.3071,102.8841 L323.4461,98.44592 L322.5443,94.11351 L321.602,89.89222 L320.6193,85.78721 L319.5965,81.80352 L318.5341,77.94601 L317.4322,74.21942 L316.2911,70.62832 L315.1113,67.17709 L313.893,63.86997 L312.6367,60.71101 L311.3425,57.70407 L310.011,54.85284 L308.6425,52.16082 L307.2373,49.63129 L305.796,47.26737 L304.3188,45.07194 L302.8063,43.04769 L301.2589,41.1971 L299.6769,39.52245 L298.0609,38.02576 L296.4113,36.7089 L294.7286,35.57346 L293.0132,34.62085 L291.2657,33.85221 L289.4865,33.2685 L287.6762,32.87043 L285.8353,32.65849 L283.9643,32.63293 L282.0638,32.7938 L280.1342,33.14088 L278.1761,33.67377 L276.1901,34.3918 L274.1768,35.29409 L272.1367,36.37954 L270.0704,37.64682 L267.9786,39.09438 L265.8617,40.72045 L263.7205,42.52302 L261.5554,44.4999 L259.3672,46.64867 L257.1565,48.96669 L254.9238,51.45112 L252.6699,54.09892 L250.3954,56.90684 L248.1009,59.87145 L245.787,62.98912 L243.4545,66.25602 L241.1041,69.66816 L238.7363,73.22135 L236.3518,76.91125 L233.9514,80.73333 L231.5357,84.68291 L229.1054,88.75516 L226.6612,92.94508 L224.2038,97.24755 L221.734,101.6573 L219.2523,106.1689 L216.7596,110.7769 L214.2565,115.4755 L211.7437,120.2591 L209.222,125.1218 L206.6921,130.0577 L204.1547,135.0606 L201.6105,140.1245 L199.0603,145.2431 L196.5047,150.4102 L193.9446,155.6195 L191.3806,160.8645 L188.8135,166.1389 L186.2441,171.4362 L183.6729,176.7499 L181.1009,182.0735 L178.5286,187.4005 L175.9569,192.7243 L173.3865,198.0384 L170.8181,203.3363 L168.2525,208.6116 L165.6904,213.8578 L163.1324,219.0684 L160.5795,224.237 L158.0321,229.3574 L155.4912,234.4232 L152.9575,239.4283 L150.4315,244.3665 L147.9142,249.2318 L145.4061,254.0182 L142.9081,258.7198 L140.4208,263.331 L137.9449,267.8459 L135.4811,272.2592 L133.0302,276.5654 L130.5929,280.7592 L128.1698,284.8355 L125.7616,288.7894 L123.369,292.6158 L120.9928,296.3103 L118.6335,299.8682 L116.2918,303.2852 L113.9686,306.5571 L111.6642,309.6799 L109.3796,312.6497 L107.1152,315.463 L104.8718,318.1163 L102.65,320.6064 L100.4504,322.9301 L98.27361,325.0846 L96.12032,327.0674 L93.99111,328.8759 L91.8866,330.508 L89.80739,331.9616 L87.75407,333.235 L85.72722,334.3267 L83.72742,335.2352 L81.75525,335.9595 L79.81127,336.4987 L77.89603,336.8521 L76.01009,337.0193 L74.15398,337 L72.32822,336.7944 L70.53334,336.4026 L68.76986,335.8252 L67.03828,335.0628 L65.33908,334.1164 L63.67277,332.9872 L62.03981,331.6764 L60.44067,330.1858 L58.8758,328.5172 L57.34566,326.6725 L55.85067,324.6541 L54.39128,322.4644 L52.96789,320.1062 L51.58091,317.5822 L50.23073,314.8957 L48.91775,312.0498 L47.64234,309.0481 L46.40485,305.8942 L45.20565,302.592 L44.04509,299.1456 L42.92347,295.5592 L41.84114,291.8371 L40.7984,287.984 L39.79554,284.0045 L38.83285,279.9035 L37.91061,275.6861 L37.02909,271.3574 L36.18852,266.9226 L35.38916,262.3874 L34.63123,257.7571 L33.91494,253.0375 L33.24051,248.2344 L32.60813,243.3536 L32.01797,238.4011 L31.4702,233.3829 L30.96498,228.3053 L30.50246,223.1745 L30.08276,217.9967 L29.70601,212.7782 L29.37232,207.5255 L29.08177,202.245 L28.83446,196.9432 L28.63045,191.6266 L28.4698,186.3016 L28.35256,180.9748 L28.27876,175.6527 L28.24842,170.3418 L28.26155,165.0488 L28.31815,159.7799 L28.4182,154.5417 L28.56167,149.3406 L28.74852,144.183 L28.9787,139.0751 L29.25214,134.0233 L29.56877,129.0337 L29.92849,124.1125 L30.3312,119.2656 L30.77678,114.4991 L31.26511,109.8186 L31.79606,105.2301 L32.36946,100.7391 L32.98515,96.35101 L33.64296,92.07133 L34.3427,87.90527 L35.08417,83.85792 L35.86716,79.93425 L36.69144,76.13906 L37.55678,72.47701 L38.46294,68.95256 L39.40964,65.57005 L40.39663,62.33361 L41.42362,59.24721 L42.49032,56.31463 L43.59642,53.53946 L44.74161,50.92511 L45.92556,48.47477 L47.14793,46.19144 L48.40837,44.07793 L49.70652,42.13681 L51.04202,40.37048 L52.41448,38.78108 L53.82351,37.37057 L55.2687,36.14068 L56.74965,35.09291 L58.26592,34.22855 L59.8171,33.54865 L61.40273,33.05405 L63.02235,32.74535 L64.67552,32.62294 L66.36176,32.68695 L68.08057,32.93732 L69.83149,33.37374 L71.614,33.99566 L73.4276,34.80234 L75.27176,35.79278 L77.14596,36.96576 L79.04967,38.31986 L80.98233,39.85341 L82.94341,41.56454 L84.93233,43.45115 L86.94855,45.51092 L88.99146,47.74134 L91.06049,50.13967 L93.15506,52.70298 L95.27456,55.42812 L97.41839,58.31176 L99.58593,61.35037 L101.7766,64.54022 L103.9897,67.8774 L106.2246,71.35784 L108.4808,74.97726 L110.7575,78.73124 L113.0541,82.61517 L115.3699,86.62429 L117.7044,90.75371 L120.0568,94.99834 L122.4264,99.35302 L124.8126,103.8124 L127.2147,108.371 L129.632,113.0232 L132.0638,117.7634 L134.5094,122.5858 L136.9681,127.4844 L139.4393,132.4532 L141.9222,137.4861 L144.4161,142.5771 L146.9202,147.7198 L149.434,152.908 L151.9566,158.1352 L154.4874,163.3952 L157.0255,168.6814 L159.5704,173.9874 L162.1212,179.3066 L164.6773,184.6327 L167.2378,189.9589 L169.8022,195.2789 L172.3696,200.5861 L174.9393,205.8739 L177.5105,211.136 L180.0826,216.3659 L182.6549,221.5571 L185.2264,226.7034 L187.7967,231.7983 L190.3648,236.8357 L192.9301,241.8094 L195.4918,246.7134 L198.0493,251.5415 L200.6017,256.2879 L203.1483,260.9467 L205.6885,265.5124 L208.2215,269.9792 L210.7465,274.3417 L213.2629,278.5945 L215.7699,282.7325 L218.2669,286.7506 L220.753,290.6439 L223.2276,294.4075 L225.69,298.0369 L228.1395,301.5276 L230.5754,304.8755 L232.9969,308.0762 L235.4035,311.126 L237.7943,314.0211 L240.1688,316.7579 L242.5262,319.3332 L244.8659,321.7437 L247.1872,323.9864 L249.4895,326.0587 L251.772,327.9581 L254.0341,329.6821 L256.2753,331.2287 L258.4948,332.596 L260.692,333.7823 L262.8662,334.7861 L265.017,335.6062 L267.1436,336.2417 L269.2454,336.6917 L271.3219,336.9557" stroke="#000000" stroke-width="0.24" fill="none" />
</svg>