<?xml version="1.0" encoding="utf-8" standalone="no"?>
<!DOCTYPE svg PUBLIC "-//W3C//DTD SVG 1.1//EN" "http://www.w3.org/Graphics/SVG/1.1/DTD/svg11.dtd">
<svg version="1.1" width="360pt" height="360pt" viewBox="0 0 360 360" overflow="visible" xmlns="http://www.w3.org/2000/svg">
  <path d="M-1271.801,42.4063 C-1269.071,42.51376 -1266.319,42.98782 -1263.742,43.91128 C-1260.849,44.94788 -1258.175,46.55076 -1255.703,48.39111 C-1252.785,50.56342 -1250.148,53.0666 -1247.704,55.74126 C-1244.823,58.89439 -1242.209,62.28583 -1239.766,65.79022 C-1236.946,69.83369 -1234.354,74.02753 -1231.907,78.30354 C-1229.157,83.10999 -1226.592,88.02025 -1224.148,92.98923 C-1221.471,98.43315 -1218.941,103.9475 -1216.509,109.5046" stroke="#960000" stroke-width="0.24" fill="none" />
  <path d="M-1156.127,270.4707 C-1154.411,274.3295 -1152.613,278.1505 -1150.657,281.8999 C-1149.074,284.9326 -1147.389,287.9185 -1145.489,290.7509 C-1144.049,292.8976 -1142.485,294.956 -1140.637,296.8173 C-1139.327,298.1368 -1137.875,299.3572 -1136.113,299.9575 C-1134.774,300.4138 -1133.255,300.5116 -1131.928,300.0982 C-1130.412,299.6257 -1129.146,298.4855 -1128.093,297.2362 C-1126.605,295.4713 -1125.542,293.4886 -1124.617,291.4383 C-1123.367,288.6651 -1122.372,285.7681 -1121.509,282.8396 C-1120.422,279.1476 -1119.546,275.4054 -1118.777,271.641 C-1117.86,267.1539 -1117.096,262.6352 -1116.427,258.1035" stroke="#960000" stroke-width="0.24" fill="none" />
  <path d="M-1114.767,79.58855 C-1115.331,75.32903 -1115.988,71.08176 -1116.795,66.85907 C-1117.456,63.3965 -1118.218,59.95047 -1119.209,56.569 C-1119.97,53.97506 -1120.865,51.41911 -1122.006,48.95843 C-1122.81,47.22434 -1123.736,45.53756 -1125.176,44.20495 C-1126.175,43.28088 -1127.421,42.5271 -1128.713,42.41946 C-1130.045,42.30855 -1131.425,42.88364 -1132.608,43.64363 C-1134.339,44.75565 -1135.646,46.26354 -1136.85,47.84889 C-1138.552,50.08856 -1140.05,52.48281 -1141.43,54.93712 C-1143.224,58.12588 -1144.822,61.41602 -1146.336,64.74294" stroke="#960000" stroke-width="0.24" fill="none" />
  <path d="M-1202.886,221.9533 C-1205.244,227.8235 -1207.688,233.6595 -1210.258,239.44 C-1212.641,244.7982 -1215.132,250.1089 -1217.784,255.3393 C-1220.183,260.0693 -1222.713,264.7336 -1225.445,269.2803 C-1227.852,273.2856 -1230.415,277.1997 -1233.222,280.9375 C-1235.633,284.1476 -1238.224,287.2277 -1241.095,290.0392 C-1243.52,292.4138 -1246.145,294.5967 -1249.046,296.3727 C-1251.53,297.8939 -1254.218,299.1165 -1257.052,299.7905 C-1259.675,300.4141 -1262.425,300.568 -1265.096,300.2127 C-1267.904,299.8393 -1270.626,298.9035 -1273.157,297.6295 C-1276.079,296.1587 -1278.746,294.2372 -1281.214,292.1011 C-1284.14,289.569 -1286.786,286.7353 -1289.248,283.7567 C-1292.132,280.2676 -1294.765,276.5798 -1297.238,272.7907 C-1300.065,268.4594 -1302.682,263.9956 -1305.164,259.4593 C-1307.928,254.4082 -1310.524,249.267 -1313.008,244.0732 C-1315.705,238.4333 -1318.271,232.7314 -1320.748,226.9917" stroke="#960000" stroke-width="0.24" fill="none" />
  <path d="M-1376.715,80.8923 C-1378.614,76.5335 -1380.591,72.20754 -1382.704,67.94925 C-1384.479,64.37261 -1386.351,60.84372 -1388.416,57.42017 C-1390.063,54.68916 -1391.834,52.02518 -1393.836,49.55074 C-1395.339,47.69368 -1396.973,45.94338 -1398.952,44.52458 C-1400.393,43.49118 -1402.016,42.63366 -1403.749,42.45895 C-1405.264,42.30622 -1406.862,42.6753 -1408.217,43.40205 C-1409.907,44.30902 -1411.218,45.77304 -1412.344,47.33188 C-1413.884,49.46544 -1415.078,51.77663 -1416.119,54.15675 C-1417.474,57.2548 -1418.569,60.46964 -1419.534,63.71741 C-1420.717,67.70077 -1421.704,71.73367 -1422.579,75.79078 C-1423.603,80.53201 -1424.473,85.30627 -1425.248,90.09515" stroke="#960000" stroke-width="0.24" fill="none" />
  <path d="M-1430.223,268.0699 C-1429.765,272.0427 -1429.219,276.002 -1428.522,279.9529 C-1427.965,283.1064 -1427.312,286.2545 -1426.429,289.3032 C-1425.779,291.5463 -1425.004,293.7357 -1423.949,295.9027 C-1423.25,297.3388 -1422.428,298.765 -1421.09,299.5973 C-1420.142,300.1866 -1418.935,300.4781 -1417.857,300.3009 C-1416.465,300.072 -1415.288,299.0615 -1414.259,297.997 C-1412.675,296.3578 -1411.444,294.5906 -1410.305,292.7394 C-1408.72,290.1615 -1407.315,287.4207 -1406.005,284.6508 C-1404.334,281.1162 -1402.817,277.5341 -1401.37,273.9198" stroke="#960000" stroke-width="0.24" fill="none" />
  <path d="M-1346.719,114.4103 C-1344.419,108.7106 -1342.024,103.049 -1339.489,97.44961 C-1337.16,92.30599 -1334.713,87.21493 -1332.089,82.21452 C-1329.74,77.73672 -1327.249,73.33161 -1324.539,69.06054 C-1322.176,65.33612 -1319.648,61.71362 -1316.857,58.29461 C-1314.482,55.38363 -1311.917,52.62016 -1309.063,50.16792 C-1306.655,48.0987 -1304.041,46.25108 -1301.175,44.87009 C-1298.672,43.66386 -1295.976,42.81363 -1293.214,42.52475 C-1290.538,42.24482 -1287.801,42.49197 -1285.2,43.18659 C-1282.341,43.95004 -1279.647,45.25402 -1277.151,46.84019 C-1274.217,48.70539 -1271.557,50.96079 -1269.09,53.40031 C-1266.167,56.29049 -1263.515,59.43912 -1261.035,62.71386 C-1258.154,66.52036 -1255.506,70.49727 -1253.008,74.56354 C-1250.178,79.16877 -1247.54,83.88862 -1245.027,88.67286 C-1242.254,93.95168 -1239.633,99.30889 -1237.113,104.7126" stroke="#960000" stroke-width="0.24" fill="none" />
  <path d="M-1172.07,266.8397 C-1170.116,270.9327 -1168.07,274.9825 -1165.862,278.946 C-1164.029,282.2346 -1162.084,285.4637 -1159.918,288.5432 C-1158.211,290.9709 -1156.366,293.3055 -1154.254,295.4072 C-1152.67,296.9845 -1150.935,298.4305 -1148.884,299.378 C-1147.301,300.1096 -1145.528,300.5439 -1143.822,300.3628 C-1142.115,300.1816 -1140.474,299.3853 -1139.079,298.3387 C-1137.277,296.9875 -1135.885,295.2193 -1134.667,293.3529 C-1133.054,290.8787 -1131.748,288.2319 -1130.599,285.5218 C-1129.15,282.1031 -1127.952,278.5837 -1126.884,275.028 C-1125.604,270.7672 -1124.511,266.4543 -1123.531,262.1165 C-1122.405,257.1345 -1121.428,252.1196 -1120.548,247.0884" stroke="#960000" stroke-width="0.24" fill="none" />
  <path d="M-1112.266,70.19272 C-1112.616,66.51863 -1113.042,62.85839 -1113.638,59.19213 C-1114.099,56.35903 -1114.662,53.52234 -1115.406,50.80984 C-1115.924,48.91888 -1116.529,47.08828 -1117.564,45.24144 C-1118.197,44.11113 -1118.991,42.97474 -1120.108,42.61684 C-1121.008,42.32822 -1122.118,42.54589 -1123.03,42.9973 C-1124.49,43.7198 -1125.442,45.04107 -1126.325,46.37393 C-1127.688,48.43069 -1128.889,50.51507 -1129.984,52.66794 C-1131.474,55.59949 -1132.767,58.65804 -1133.996,61.73249" stroke="#960000" stroke-width="0.24" fill="none" />
  <path d="M-1191.011,234.6819 C-1193.249,240.1942 -1195.591,245.6646 -1198.087,251.0653 C-1200.358,255.9794 -1202.756,260.8358 -1205.347,265.5901 C-1207.643,269.8036 -1210.09,273.9369 -1212.773,277.9173 C-1215.088,281.3521 -1217.579,284.6732 -1220.346,287.7593 C-1222.685,290.3671 -1225.221,292.8072 -1228.049,294.8865 C-1230.444,296.6482 -1233.05,298.1509 -1235.86,299.1325 C-1238.39,300.016 -1241.085,300.4773 -1243.761,300.3983 C-1246.49,300.3178 -1249.198,299.6754 -1251.733,298.6544 C-1254.623,297.4904 -1257.287,295.8343 -1259.755,293.9415 C-1262.686,291.6929 -1265.338,289.1103 -1267.806,286.3695 C-1270.719,283.1349 -1273.375,279.6799 -1275.868,276.1151 C-1278.742,272.006 -1281.4,267.751 -1283.919,263.4175 C-1286.747,258.5542 -1289.401,253.592 -1291.941,248.573 C-1294.719,243.0835 -1297.36,237.5261 -1299.912,231.9281" stroke="#960000" stroke-width="0.24" fill="none" />
  <path d="M-1359.525,84.91328 C-1361.639,80.34061 -1363.836,75.80582 -1366.178,71.34555 C-1368.182,67.52709 -1370.292,63.76324 -1372.595,60.11255 C-1374.483,57.1182 -1376.5,54.19997 -1378.759,51.47637 C-1380.526,49.34636 -1382.44,47.3354 -1384.657,45.63852 C-1386.345,44.34586 -1388.209,43.23549 -1390.272,42.73523 C-1392.009,42.31421 -1393.887,42.32533 -1395.591,42.83421 C-1397.479,43.39768 -1399.154,44.57142 -1400.601,45.93318 C-1402.477,47.69818 -1403.971,49.77903 -1405.289,51.95981 C-1406.986,54.76763 -1408.393,57.74109 -1409.643,60.7735 C-1411.18,64.49976 -1412.482,68.31503 -1413.653,72.16859 C-1415.029,76.69508 -1416.225,81.27439 -1417.308,85.8792 C-1418.534,91.08696 -1419.615,96.32734 -1420.6,101.5854" stroke="#960000" stroke-width="0.24" fill="none" />
  <path d="M-1432.174,276.8668 C-1431.936,280.2379 -1431.642,283.6049 -1431.133,286.9516" stroke="#960000" stroke-width="0.24" fill="none" />
  <path d="M-1429.695,294.3405 C-1429.329,295.9154 -1428.934,297.4721 -1427.861,298.861 C-1427.266,299.6322 -1426.462,300.3516 -1425.638,300.4076 C-1424.728,300.4695 -1423.794,299.7225 -1423.03,298.9443 C-1421.663,297.552 -1420.839,296.0598 -1420.044,294.5051" stroke="#960000" stroke-width="0.24" fill="none" />
  <path d="M-1416.688,287.1937 C-1415.318,283.882 -1414.121,280.5432 -1412.969,277.1807" stroke="#960000" stroke-width="0.24" fill="none" />
  <path d="M-1365.017,119.4207 C-1362.892,113.5891 -1360.674,107.7908 -1358.324,102.0458 C-1356.153,96.73734 -1353.868,91.47448 -1351.415,86.28928 C-1349.206,81.61883 -1346.861,77.01137 -1344.307,72.51881 C-1342.069,68.58064 -1339.67,64.73077 -1337.018,61.05568 C-1334.754,57.9177 -1332.305,54.90714 -1329.566,52.16737 C-1327.265,49.86521 -1324.759,47.75424 -1321.97,46.06128 C-1319.579,44.61058 -1316.981,43.46682 -1314.248,42.87986 C-1311.685,42.32955 -1309.005,42.26869 -1306.42,42.69736 C-1303.645,43.15735 -1300.98,44.18101 -1298.505,45.51803 C-1295.606,47.0841 -1292.969,49.08009 -1290.524,51.27605 C-1287.608,53.89482 -1284.964,56.79799 -1282.496,59.83709 C-1279.6,63.40194 -1276.945,67.15384 -1274.441,71.00137 C-1271.58,75.39756 -1268.916,79.91862 -1266.38,84.50842 C-1263.558,89.61343 -1260.893,94.80347 -1258.332,100.0431" stroke="#960000" stroke-width="0.24" fill="none" />
  <path d="M-1196.82,248.1342 C-1194.566,253.1435 -1192.236,258.1194 -1189.779,263.0334 C-1187.621,267.3504 -1185.365,271.6195 -1182.943,275.7947 C-1180.891,279.3313 -1178.719,282.8004 -1176.329,286.1204 C-1174.387,288.8164 -1172.302,291.4139 -1169.953,293.7695 C-1168.12,295.6087 -1166.127,297.3003 -1163.833,298.5635 C-1162.024,299.5593 -1160.028,300.2888 -1157.981,300.3905 C-1156.081,300.485 -1154.137,300.0382 -1152.415,299.2081 C-1150.383,298.2284 -1148.66,296.7149 -1147.147,295.0436 C-1145.205,292.899 -1143.609,290.4945 -1142.19,287.9944 C-1140.41,284.8574 -1138.907,281.5696 -1137.558,278.2248 C-1135.935,274.2053 -1134.533,270.1035 -1133.261,265.9629 C-1131.792,261.1833 -1130.495,256.3521 -1129.31,251.4946 C-1127.988,246.077 -1126.804,240.6267 -1125.715,235.1578" stroke="#960000" stroke-width="0.24" fill="none" />
  <path d="M-1110.869,62.02133 C-1110.997,58.94673 -1111.164,55.84452 -1111.576,52.88271" stroke="#960000" stroke-width="0.24" fill="none" />
  <path d="M-1112.683,46.50961 C-1112.92,45.19016 -1113.154,43.78832 -1114.189,43.05073 C-1114.725,42.66844 -1115.477,42.46458 -1116.088,42.58677 C-1117.157,42.80053 -1117.796,44.01203 -1118.376,45.12857" stroke="#960000" stroke-width="0.24" fill="none" />
  <path d="M-1121.048,50.61681 C-1122.182,53.23372 -1123.164,56.09232 -1124.097,58.92344" stroke="#960000" stroke-width="0.24" fill="none" />
  <path d="M-1173.195,229.8075 C-1175.247,235.4635 -1177.398,241.0837 -1179.695,246.645 C-1181.797,251.7339 -1184.02,256.7735 -1186.425,261.7269 C-1188.569,266.1405 -1190.856,270.4856 -1193.369,274.7014 C-1195.546,278.3543 -1197.892,281.9102 -1200.509,285.2658 C-1202.719,288.1012 -1205.123,290.7936 -1207.826,293.1735 C-1210.093,295.1686 -1212.57,296.944 -1215.304,298.24 C-1217.697,299.3742 -1220.286,300.1411 -1222.923,300.3472 C-1225.523,300.5503 -1228.168,300.2082 -1230.664,299.4458 C-1233.469,298.5892 -1236.085,297.2021 -1238.508,295.5569 C-1241.396,293.596 -1244.008,291.2684 -1246.435,288.7712 C-1249.328,285.796 -1251.959,282.5798 -1254.426,279.2471 C-1257.298,275.3667 -1259.949,271.3282 -1262.46,267.2067 C-1265.303,262.5391 -1267.968,257.765 -1270.517,252.9311 C-1273.328,247.6012 -1275.999,242.1986 -1278.578,236.7533" stroke="#960000" stroke-width="0.24" fill="none" />
  <path d="M-1340.781,89.09309 C-1343.073,84.31683 -1345.453,79.58213 -1347.98,74.92561 C-1350.178,70.87478 -1352.487,66.8831 -1354.988,63.0093 C-1357.084,59.76122 -1359.315,56.59601 -1361.788,53.62223 C-1363.781,51.22506 -1365.93,48.95229 -1368.363,46.98343 C-1370.277,45.43398 -1372.367,44.07276 -1374.697,43.24779 C-1376.637,42.56095 -1378.743,42.24582 -1380.773,42.50248 C-1382.839,42.76364 -1384.825,43.61684 -1386.577,44.76488 C-1388.714,46.1643 -1390.504,48.00183 -1392.095,49.98222 C-1394.104,52.48407 -1395.795,55.21394 -1397.311,58.03275 C-1399.171,61.49014 -1400.767,65.08133 -1402.214,68.72864 C-1403.92,73.02773 -1405.419,77.40477 -1406.791,81.8203 C-1408.35,86.83891 -1409.745,91.90723 -1411.031,97.0023 C-1412.447,102.6136 -1413.731,108.2573 -1414.922,113.9204" stroke="#960000" stroke-width="0.24" fill="none" />
  <path d="M-1431.869,297.8907 C-1431.662,298.9381 -1431.403,300.1276 -1430.694,300.2775 C-1430.244,300.3726 -1429.612,300.0483 -1429.122,299.6573 C-1427.929,298.7059 -1427.575,297.3599 -1427.157,296.0448" stroke="#960000" stroke-width="0.24" fill="none" />
  <path d="M-1424.803,289.5241 C-1423.736,286.4897 -1422.901,283.366 -1422.068,280.2473" stroke="#960000" stroke-width="0.24" fill="none" />
  <path d="M-1375.627,106.7694 C-1373.653,101.3059 -1371.571,95.88091 -1369.331,90.52035 C-1367.303,85.66599 -1365.146,80.86449 -1362.791,76.15866 C-1360.718,72.01418 -1358.492,67.9439 -1356.024,64.01939 C-1353.912,60.66047 -1351.622,57.40833 -1349.046,54.38579 C-1346.891,51.85661 -1344.536,49.48819 -1341.875,47.48264 C-1339.638,45.79617 -1337.186,44.36629 -1334.529,43.471 C-1332.126,42.661 -1329.556,42.28858 -1327.027,42.44448 C-1324.39,42.607 -1321.798,43.3436 -1319.386,44.42704 C-1316.573,45.68998 -1314.005,47.42421 -1311.626,49.37241 C-1308.765,51.71571 -1306.178,54.36856 -1303.767,57.1652 C-1300.906,60.48304 -1298.291,64.00326 -1295.828,67.62359 C-1292.983,71.80401 -1290.342,76.11793 -1287.828,80.50354 C-1285.007,85.42648 -1282.346,90.43976 -1279.789,95.50454 C-1276.993,101.042 -1274.321,106.6411 -1271.73,112.2766" stroke="#960000" stroke-width="0.24" fill="none" />
  <path d="M-1216.441,243.6208 C-1214.036,248.8122 -1211.553,253.9678 -1208.941,259.0589 C-1206.617,263.5895 -1204.192,268.069 -1201.598,272.4518 C-1199.364,276.2275 -1197.005,279.9315 -1194.431,283.487 C-1192.292,286.4412 -1190.004,289.293 -1187.456,291.907 C-1185.409,294.0078 -1183.195,295.955 -1180.693,297.5155 C-1178.683,298.7691 -1176.487,299.7732 -1174.157,300.1815 C-1172.078,300.5459 -1169.891,300.4355 -1167.866,299.8427 C-1165.651,299.1943 -1163.629,297.9685 -1161.834,296.5073 C-1159.62,294.7052 -1157.752,292.545 -1156.077,290.2528 C-1153.998,287.4069 -1152.218,284.3574 -1150.609,281.2254 C-1148.675,277.46 -1146.987,273.5752 -1145.445,269.6356 C-1143.657,265.0701 -1142.064,260.4309 -1140.596,255.7538 C-1138.949,250.5112 -1137.459,245.2211 -1136.075,239.904" stroke="#960000" stroke-width="0.24" fill="none" />
  <path d="M-1110.949,65.0514 C-1110.761,61.75226 -1110.578,58.43992 -1110.584,55.17323" stroke="#960000" stroke-width="0.24" fill="none" />
  <path d="M-1110.621,48.00714 C-1110.579,46.53165 -1110.476,45.01661 -1111.062,43.72032" stroke="#960000" stroke-width="0.24" fill="none" />
  <path d="M179.4577,58.5314 L187.5169,58.85894 L195.556,59.83968 L203.5548,61.4679 L211.4934,63.73418 L219.3519,66.62535 L227.1107,70.12463 L234.7504,74.21172 L242.2518,78.8629 L249.5964,84.05116 L256.7656,89.74641 L263.7416,95.9156 L270.5069,102.5229 L277.0446,109.53 L283.3385,116.8962 L289.3727,124.5787 L295.1321,132.5331 L300.6024,140.713 L305.77,149.0711 L310.6218,157.5588 L315.1458,166.1269 L319.3306,174.7256 L323.1658,183.305 L326.6418,191.8155 L329.75,200.2074 L332.4825,208.4323 L334.8325,216.4422 L336.7941,224.1908 L338.3625,231.633 L339.5337,238.7257 L340.3048,245.4277 L340.6739,251.7002 L340.64,257.5066 L340.2032,262.8134 L339.3647,267.5896 L338.1265,271.8076 L336.4916,275.443 L334.4643,278.4746 C333.7441,279.3571 332.9378,280.1712 332.0496,280.8848 C331.1873,281.5775 330.2478,282.1753 329.2534,282.6596 C328.2429,283.1518 327.1757,283.5267 326.0829,283.7888 C324.924,284.0667 323.7362,284.2177 322.5458,284.2657 L318.6511,284.0877 L314.4085,283.2557 L309.8286,281.7745 L304.9228,279.6529 L299.7034,276.903 L294.1835,273.5408 L288.3769,269.5859 L282.2979,265.0612 L275.962,259.993 L269.3848,254.4107 L262.5829,248.3466 L255.5731,241.8361 L248.3732,234.9167 L241.0009,227.6288 L233.4749,220.0146 L225.8138,212.1183 L218.0369,203.9857 L210.1636,195.664 L202.2135,187.2016 L194.2065,178.6475 L186.1627,170.0514 L178.1021,161.4631 L170.0448,152.9326 L162.0112,144.5093 L154.0211,136.2421 L146.0946,128.1789 L138.2515,120.3667 L130.5114,112.8506 L122.8936,105.6744 L115.4172,98.87973 L108.1009,92.50595 L100.9629,86.59008 L94.02113,81.16646 L87.2929,76.26656 L80.79504,71.91882 L74.54378,68.14848 L68.55475,64.9774 L62.84292,62.42402 L57.42257,60.50312 L52.30725,59.22587 L47.50973,58.59968 L43.04202,58.62819 L38.91527,59.31122 C37.62048,59.64194 36.3537,60.08564 35.1398,60.64481 C33.94367,61.1958 32.79889,61.8589 31.72506,62.62123 C30.63382,63.39591 29.61586,64.27306 28.67957,65.229 L26.01094,68.45299 L23.72586,72.27448 L21.83002,76.67131 L20.32817,81.61794 L19.22406,87.08569 L18.52045,93.04279 L18.21911,99.4547 L18.32077,106.2842 L18.82519,113.4916 L19.73111,121.0352 L21.03626,128.8711 L22.73739,136.9539 L24.83023,145.2366 L27.30956,153.6712 L30.16919,162.2087 L33.40195,170.7997 L36.99979,179.3941 L40.95369,187.9422 L45.25377,196.3943 L49.8893,204.7014 L54.84869,212.8153 L60.11953,220.6889 L65.68865,228.2764 L71.54214,235.5339 L77.66535,242.4193 L84.043,248.8925 L90.65913,254.916 L97.49722,260.4548 L104.5402,265.4769 L111.7704,269.953 L119.1697,273.8572 L126.7198,277.1668 L134.4017,279.8626 L142.1962,281.929 L150.0838,283.3539 L158.0449,284.1292 L166.0595,284.2502 L174.1075,283.7164 L182.169,282.5307 L190.2236,280.7002 L198.2514,278.2353 L206.2322,275.1505 L214.146,271.4635 L221.9732,267.1959 L229.6941,262.3723 L237.2894,257.0208 L244.7402,251.1725 L252.0278,244.8612 L259.134,238.1236 L266.0411,230.9988 L272.7317,223.5282 L279.1892,215.7551 L285.3975,207.7245 L291.3409,199.4833 L297.0047,191.0791 L302.3747,182.5607 L307.4375,173.9775 L312.1804,165.3795 L316.5915,156.8165 L320.6599,148.3381 L324.3753,139.9936 L327.7285,131.8314 L330.7112,123.8989 L333.3157,116.2421 L335.5357,108.9055 L337.3656,101.9316 L338.8008,95.36095 L339.8378,89.23161 L340.4738,83.5792 L340.7075,78.43651 L340.538,73.83338 L339.966,69.79653 L338.9927,66.3494 L337.6208,63.51198 C337.1213,62.70895 336.5349,61.95713 335.8534,61.30075 C335.2107,60.68159 334.4834,60.14733 333.6952,59.72853 C332.8964,59.30405 332.035,58.99818 331.1515,58.80445 C330.1932,58.59433 329.2088,58.51614 328.2286,58.53388 L324.9338,58.91838 L321.2755,59.95573 L317.2627,61.63989 L312.9054,63.96111 L308.2146,66.9059 L303.2019,70.45718 L297.88,74.59434 L292.2621,79.29336 L286.3622,84.52697 L280.1951,90.26481 L273.7762,96.47356 L267.1216,103.1172 L260.2478,110.1572 L253.1722,117.5526 L245.9122,125.2606 L238.4862,133.2364 L230.9127,141.4338 L223.2105,149.8051 L215.399,158.3017 L207.4976,166.8745 L199.5261,175.4735 L191.5045,184.0489 L183.4528,192.551 L175.3911,200.9303 L167.3395,209.1383 L159.3183,217.1273 L151.3474,224.851 L143.4467,232.2646 L135.6361,239.3249 L127.9349,245.991 L120.3626,252.2243 L112.938,257.9886 L105.6796,263.2504 L98.60565,267.9791 L91.73378,272.1474 L85.08118,275.731 L78.66447,278.7092 L72.49968,281.0646 L66.60224,282.7836 L60.98687,283.8563 L55.66763,284.2763 L50.65779,284.0412 L45.96989,283.1525 C44.48192,282.753 43.02366,282.2408 41.61563,281.6152 C40.22441,280.9971 38.88224,280.2682 37.60591,279.4384 L33.95074,276.6346 L30.65927,273.22 L27.73972,269.2146 L25.19938,264.6415 L23.04461,259.5273 L21.28078,253.9018 L19.91232,247.7974 L18.94264,241.2497 L18.37416,234.2967 L18.20831,226.9787 L18.4455,219.3382 L19.08513,211.4195 L20.12561,203.2685 L21.56434,194.9327 L23.39772,186.4603 L25.62117,177.9006 L28.22913,169.3032 L31.21509,160.718 L34.57157,152.1948 L38.29019,143.7831 L42.36166,135.5318 L46.7758,127.4886 L51.52157,119.7004 L56.58712,112.2122 L61.95977,105.0676 L67.62612,98.30795 L73.57198,91.97257 L79.7825,86.09821 L86.24216,80.71893 L92.93481,75.86599 L99.84373,71.56753 L106.9516,67.8485 L114.2408,64.73049 L121.6929,62.23159 L129.2894,60.36631 L137.0113,59.14546 L144.8394,58.57614 L152.7539,58.66164 L160.7352,59.40149 L168.7633,60.79137 L176.8181,62.82322 L184.8795,65.48525 L192.9273,68.76202 L200.9415,72.6345 L208.902,77.08022 L216.7889,82.07338 L224.5825,87.58499 L232.2633,93.58308 L239.8121,100.0328 L247.2101,106.8968 L254.4387,114.1352 L261.4799,121.706 L268.3161,129.5652 L274.9302,137.6672 L281.3056,145.9651 L287.4265,154.4106 L293.2776,162.9547 L298.8441,171.5479 L304.1122,180.1403 L309.0688,188.682 L313.7014,197.1235 L317.9984,205.4157 L321.9492,213.5105 L325.5439,221.361 L328.7733,228.9216 L331.6296,236.1483 L334.1055,242.9994 L336.1949,249.4349 L337.8925,255.4176 L339.1942,260.9127 L340.0965,265.8884 L340.5974,270.3157 L340.6955,274.169 L340.3905,277.426 L339.6833,280.0676 L338.5757,282.0786 C338.158,282.6168 337.6507,283.0914 337.0703,283.4473 C336.4911,283.8024 335.8392,284.0393 335.171,284.1657 C334.4177,284.3083 333.6439,284.3105 332.8825,284.2298 L330.2105,283.639 L327.1617,282.397 L323.7437,280.5107 L319.9651,277.9913 L315.8353,274.8533 L311.3646,271.115 L306.5642,266.7979 L301.4461,261.9273 L296.0231,256.5313 L290.3087,250.6413 L284.3173,244.2914 L278.0638,237.5185 L271.5638,230.362 L264.8336,222.8633 L257.89,215.066 L250.7504,207.0152 L243.4325,198.7579 L235.9548,190.3418 L228.3359,181.8158 L220.5948,173.2294 L212.7508,164.6324 L204.8237,156.0748 L196.8331,147.6061 L188.7991,139.2755 L180.7418,131.1315 L172.6813,123.2212 L164.6377,115.5905 L156.6311,108.2838 L148.6816,101.3434 L140.809,94.80963 L133.033,88.72042 L125.3731,83.11109 L117.8483,78.0142 L110.4776,73.45932 L103.2792,69.4729 L96.27127,66.07807 L89.47124,63.29453 L82.89614,61.13843 L76.56239,59.62229 L70.48582,58.75491 L64.68163,58.54132 L59.16432,58.98276 L53.94768,60.07668 L49.04475,61.81671 L44.46778,64.19276 L40.22822,67.19105 L36.33666,70.79417 L32.80283,74.98121 L29.63556,79.72787 L26.84276,85.0066 L24.43142,90.78677 L22.40757,97.03483 L20.77626,103.7145 L19.54158,110.7871 L18.7066,118.2114 L18.27341,125.9445 L18.2431,133.9415 L18.61575,142.1559 L19.39041,150.54 L20.56516,159.0452 L22.13706,167.6222 L24.10218,176.2212 L26.45561,184.7922 L29.19146,193.2856 L32.3029,201.6519 L35.78215,209.8427 L39.62051,217.8105 L43.8084,225.509 L48.33533,232.8934 L53.19001,239.9211 L58.36029,246.5511 L63.83324,252.7449 L69.59521,258.4668 L75.63177,263.6833 L81.92783,268.3644 L88.46767,272.4827 L95.23495,276.0144 L102.2127,278.9391 L109.3836,281.2396 L116.7296,282.9027 L124.2324,283.9188 L131.8732,284.2818 L139.633,283.9898 L147.4923,283.0444 L155.4315,281.4511 L163.4307,279.2191 L171.4701,276.3615 L179.5293,272.8947 L187.5884,268.8389 L195.6272,264.2177 L203.6256,259.0578 L211.5635,253.3892 L219.4212,247.2449 L227.1791,240.6604 L234.8176,233.674 L242.3178,226.3262 L249.6608,218.6596 L256.8284,210.7189 L263.8026,202.55 L270.566,194.2003 L277.1017,185.7184 L283.3932,177.1534 L289.425,168.5551 L295.182,159.9733 L300.6497,151.4578 L305.8145,143.0582 L310.6635,134.8231 L315.1844,126.8003 L319.3662,119.0363 L323.1983,111.5764 L326.6711,104.4636 L329.7759,97.73937 L332.505,91.44268 L334.8516,85.61008 L336.8098,80.2754 L338.3746,75.46962 L339.5423,71.22063 L340.3098,67.55309 L340.6753,64.48827 L340.6379,62.04396 L340.1975,60.23437 C340.0034,59.78968 339.7315,59.36789 339.3554,59.06998 C339.0039,58.79148 338.5613,58.62125 338.1137,58.55755 C337.5656,58.47957 337.01,58.56124 336.4753,58.70006 L334.4446,59.49668 L332.0264,60.94279 L329.2269,63.02999 L326.053,65.74617 L322.5128,69.07557 L318.6149,72.99886 L314.3693,77.49328 L309.7864,82.53274 L304.8778,88.08799 L299.6557,94.12679 L294.1332,100.6141 L288.324,107.5123 L282.2428,114.7813 L275.9046,122.3789 L269.3253,130.2611 L262.5215,138.382 L255.51,146.6947 L248.3084,155.1507 L240.9348,163.7011 L233.4074,172.2962 L225.7453,180.8862 L217.9674,189.4211 L210.0933,197.8515 L202.1426,206.1285 L194.1352,214.2039 L186.0911,222.0309 L178.0305,229.5642 L169.9734,236.7599 L161.94,243.5763 L153.9504,249.9739 L146.0245,255.9155 L138.1823,261.3667 L130.4431,266.2957 L122.8265,270.6741 L115.3515,274.4764 L108.0367,277.6805 L100.9004,280.2678 L93.9604,282.2233 L87.23415,283.5357 L80.7384,284.1973 L74.48941,284.2044 L68.50278,283.5568 L62.79348,282.2583 L57.37578,280.3165 L52.26322,277.7426 L47.46858,274.5516 L43.00385,270.762 L38.88017,266.3958 L35.10787,261.4782 L31.69637,256.038 L28.6542,250.1066 L25.98895,243.7184 L23.7073,236.9106 L21.81494,229.7226 L20.31661,222.1961 L19.21605,214.375 L18.51601,206.3044 L18.21824,198.0313 L18.32348,189.6037 L18.83147,181.0704 L19.74095,172.4812 L21.04964,163.8856 L22.75426,155.3337 L24.85056,146.8751 L27.3333,138.5589 L30.19627,130.4333 L33.43232,122.5455 L37.03335,114.9413 L40.99037,107.6648 L45.29348,100.7582 L49.93194,94.26169 L54.89415,88.21286 L60.16769,82.64687 L65.7394,77.59599 L71.59535,73.08958 L77.7209,69.15375 L84.10074,65.81136 L90.71892,63.08182 L97.5589,60.98096 L104.6036,59.52097 L111.8354,58.71032 L119.2362,58.55372 L126.7875,59.05209 L134.4705,60.20251 L142.2659,61.99834 L150.1543,64.42912 L158.1159,67.48077 L166.1308,71.13557 L174.1791,75.37231 L182.2406,80.1664 L190.2951,85.49002 L198.3225,91.31226 L206.3028,97.59936 L214.216,104.3148 L222.0423,111.4196 L229.7621,118.8726 L237.3562,126.6304 L244.8057,134.6482 L252.0917,142.8792 L259.1963,151.2758 L266.1015,159.7893 L272.7901,168.3702 L279.2455,176.9687 L285.4514,185.5349 L291.3925,194.0192 L297.0537,202.3722 L302.4211,210.5455 L307.481,218.4916 L312.221,226.1645 L316.6292,233.5196 L320.6944,240.5142 L324.4067,247.1078 L327.7567,253.262 L330.736,258.9412 L333.3372,264.1123 L335.5537,268.7454 L337.3801,272.8136 L338.8118,276.2933 L339.8452,279.1642 L340.4777,281.4098 L340.7077,283.0169 C340.7292,283.3612 340.7343,283.7267 340.5347,283.9763 L339.9591,284.2824 C339.6135,284.3207 339.2874,284.1283 338.9823,283.9335 L337.6068,282.9314 L335.836,281.2821 L333.6743,278.9951 L331.1272,276.0838 L328.201,272.5649 L324.903,268.459 L321.2414,263.7897 L317.2255,258.5844 L312.8652,252.8731 L308.1714,246.689 L303.156,240.0679 L297.8314,233.0484 L292.2109,225.6712 L286.3086,217.979 L280.1392,210.0166 L273.7181,201.83 L267.0615,193.4669 L260.1859,184.9758 L253.1085,176.4059 L245.847,167.8071 L238.4196,159.2291 L230.8448,150.7218 L223.1416,142.3345 L215.3291,134.116 L207.4271,126.1139 L199.4551,118.3746 L191.4331,110.9431 L183.3812,103.8626 L175.3195,97.17404 L167.2681,90.91631 L159.2472,85.12572 L151.2769,79.83587 L143.3769,75.07747 L135.5672,70.87813 L127.8671,67.26222 L120.296,64.25074 L112.8727,61.86115 L105.6159,60.10732 L98.54371,58.99944 L91.67371,58.54392 L85.02312,58.74343 L78.60858,59.59679 L72.44611,61.09906 L66.5511,63.24152 L60.93831,66.01173 L55.62175,69.39361 L50.61472,73.36755 L45.92973,77.91046 L41.57849,82.996 L37.57187,88.59464 L33.9199,94.6739 L30.63169,101.1985 L27.71548,108.1305 L25.17854,115.4298 L23.02721,123.054 L21.26688,130.9588 L19.90195,139.0983 L18.93582,147.4253 L18.37092,155.8916 L18.20864,164.4478 L18.44941,173.0445 L19.09261,181.6316 L20.13664,190.1594 L21.5789,198.5784 L23.41576,206.8397 L25.64265,214.8954 L28.254,222.6986 L31.24328,230.2042 L34.60302,237.3685 L38.32481,244.1501 L42.39937,250.5094 L46.81651,256.4097 L51.56517,261.8167 L56.6335,266.6989 L62.00883,271.0281 L67.67772,274.7792 L73.626,277.9303 L79.83881,280.4632 L86.30061,282.3632 L92.99525,283.6192 L99.90601,284.224 L107.0156,284.174 L114.3063,283.4696 L121.7598,282.1148 L129.3575,280.1175 L137.0804,277.4893 L144.9093,274.2454 L152.8245,270.4047 L160.8063,265.9894 L168.8347,261.0253 L176.8897,255.541 L184.951,249.5684 L192.9987,243.1422 L201.0125,236.2997 L208.9724,229.0806 L216.8586,221.5268 L224.6513,213.6821 L232.331,205.592 L239.8785,197.3035 L247.2751,188.8648 L254.5021,180.3247 L261.5415,171.7329 L268.3758,163.1392 L274.9879,154.5934 L281.3611,146.1453 L287.4797,137.8437 L293.3283,129.737 L298.8922,121.8721 L304.1576,114.2946 L309.1114,107.0487 L313.741,100.1762 L318.0351,93.71714 L321.9827,87.70896 L325.5742,82.18654 L328.8004,77.18192 L331.6533,72.72414 L334.1258,68.83909 L336.2117,65.5493 L337.9059,62.87388 L339.2039,60.82834 L340.1028,59.42456 L340.6,58.67068 C340.796,58.48168 340.5641,58.84251 340.386,59.12635 L339.6753,60.33324 L338.5641,62.18478 L337.0552,64.67019 L335.1524,67.77507 L332.8604,71.48139 L330.1851,75.76764 L327.1329,80.60895 L323.7117,85.97722 L319.9299,91.84129 L315.797,98.16713 L311.3234,104.918 L306.5201,112.0548 L301.3992,119.536 L295.9736,127.3183 L290.2567,135.3565 L284.2629,143.6039 L278.0071,152.0126 L271.505,160.5339 L264.7729,169.1183 L257.8274,177.716 L250.6861,186.277 L243.3668,194.7518 L235.8877,203.0911 L228.2676,211.2465 L220.5255,219.1707 L212.6808,226.8177 L204.7529,234.1431 L196.7619,241.1044 L188.7276,247.6612 L180.6702,253.7754 L172.6097,259.4117 L164.5664,264.5371 L156.5602,269.1221 L148.6113,273.14 L140.7395,276.5675 L132.9645,279.3846 L125.3056,281.5751 L117.7822,283.1263 L110.4128,284.029 L103.2161,284.2781 L96.20993,283.8722 L89.41183,282.8135 L82.8388,281.1083 L76.50726,278.7664 L70.43305,275.8015 L64.63135,272.2307 L59.11665,268.0747 L53.90274,263.3578 L49.00265,258.1071 L44.42863,252.3533 L40.19211,246.1297 L36.30368,239.4725 L32.77307,232.4202" stroke="#000000" stroke-width="2.88" fill="none" />
</svg>