<?xml version="1.0" encoding="UTF-8"?>
<svg xmlns="http://www.w3.org/2000/svg" version="1.1" xmlns:xlink="http://www.w3.org/1999/xlink" viewBox="0 0 360 360">
  <defs>
    <style>
      .cls-1 {
        stroke: #009600;
      }

      .cls-1, .cls-2, .cls-3, .cls-4, .cls-5 {
        fill: none;
      }

      .cls-1, .cls-6 {
        stroke-width: .5px;
      }

      .cls-3 {
        stroke-width: .5px;
      }

      .cls-3, .cls-6, .cls-5 {
        stroke: #000;
      }

      .cls-6 {
        fill: #dadada;
      }

      .cls-4 {
        stroke: #960000;
      }

      .cls-4, .cls-5 {
        stroke-linecap: round;
        stroke-linejoin: round;
      }

      .cls-7 {
        fill: #79b6ff;
      }

      .cls-8 {
        font-family: ErasITC-Light, 'Eras Light ITC';
        font-size: 51px;
        font-weight: 300;
      }

      .cls-9 {
        clip-path: url(#clippath);
      }
    </style>
    <clipPath id="clippath">
      <rect class="cls-2" x="1840.9" y="-273.1" width="612" height="792"/>
    </clipPath>
  </defs>
  <!-- Generator: Adobe Illustrator 28.7.1, SVG Export Plug-In . SVG Version: 1.2.0 Build 142)  -->
  <g>
    <g id="_レイヤー_1" data-name="レイヤー_1">
      <path class="cls-1" d="M1330.5,65.8c-.5,0-1.1.1-1.6.3"/>
      <path class="cls-1" d="M1330,295.1c-.5.1-1,.2-1.4.2"/>
      <path class="cls-1" d="M1327.4,294.8c-.3-.3-.6-.7-.7-1.1"/>
      <path class="cls-1" d="M1328.1,66c-.3-.1-.7-.2-1,0"/>
      <path class="cls-1" d="M1326.5,66.4c-.2.4-.2.8-.3,1.2"/>
      <path class="cls-1" d="M1327.7,294.6c-.2.3-.5.5-.9.6-.7-.1-.7-.4-.6-.6"/>
      <path class="cls-1" d="M1326.7,66.4c-.1-.3-.3-.7-.4-.5,0,.4.2.6.3.8"/>
      <path class="cls-1" d="M1326.2,67.2c0-.3,0-.7.2-1"/>
      <path class="cls-1" d="M1327,65.8c.3,0,.6.1.9.3"/>
      <path class="cls-1" d="M1326.6,294.1c.2.3.4.7.7.9"/>
      <path class="cls-1" d="M1328.8,66c.5-.2,1-.2,1.5-.1"/>
      <path class="cls-1" d="M1328,293.2c.4.5.8,1,1.3,1.3"/>
      <path class="cls-1" d="M1331.5,66.5c.7-.3,1.4-.5,2.1-.6"/>
      <g>
        <g>
          <polygon class="cls-7" points="290.9 293.3 287.8 294.3 285.4 294.6 284.5 294.5 287.3 293.9 289.9 293 290.9 293.3"/>
          <polygon class="cls-7" points="296 294.6 295.1 294.8 290.9 295.2 286.3 294.8 285.4 294.6 287.8 294.3 290.9 293.3 293.8 294.2 296 294.6"/>
          <polygon class="cls-7" points="289.9 293 287.3 293.9 284.5 294.5 281.5 293.9 279.9 293.3 284.7 291.6 285.5 291.1 289.4 292.8 289.9 293"/>
          <polygon class="cls-7" points="285.5 291.1 284.7 291.6 279.9 293.3 278.8 293 279.2 292.9 284.1 290.9 284.5 290.7 284.8 290.8 285.5 291.1"/>
          <polygon class="cls-7" points="44 294.7 43.7 294.8 41.4 295.1 39.3 294.9 38.8 294.6 39.9 294.1 41.1 293.3 42.9 294.4 44 294.7"/>
          <polygon class="cls-7" points="38.8 291.2 38.7 291.3 37.1 293.2 37 293.3 36.7 293 37 292.7 38.5 290.7 38.7 291.1 38.8 291.2"/>
          <polygon class="cls-7" points="38.8 291.2 40.7 293 39.7 293.7 38.5 294.5 37.6 294 37 293.3 37.1 293.2 38.7 291.3 38.8 291.2"/>
          <polygon class="cls-7" points="321.1 102.8 321.2 109.2 321 116.1 320.9 117.1 320.8 114 320 107.2 318.9 100.9 317.5 95 315.6 89.5 313.5 84.6 311 80.2 308.2 76.3 305 73 301.6 70.3 297.8 68.2 293.7 66.8 290.9 66.2 292.3 66 296.5 65.7 300.4 66.1 303.9 67.2 307.2 68.8 310.1 71.1 312.7 74 315 77.4 316.9 81.5 318.5 86 319.7 91.1 320.5 96.7 321.1 102.8"/>
          <polygon class="cls-7" points="320.9 252.3 321.2 257.2 321.1 263.3 320.8 268.9 320 274.1 318.9 278.8 317.5 282.9 315.7 286.4 313.5 289.4 311 291.8 308.2 293.5 305.1 294.6 301.6 295.1 297.8 295 296 294.6 299.1 293.9 302.8 292.4 306.1 290.2 309.2 287.4 311.9 284 314.2 280.1 316.3 275.6 318 270.6 319.3 265 320.3 259.1 320.9 252.6 320.9 252.3"/>
          <polygon class="cls-7" points="319.3 118.9 320.2 125.4 320 127.1 319.2 121.1 317.8 114 316.1 107.3 314 100.9 311.6 95 308.8 89.5 305.7 84.6 302.3 80.2 298.6 76.3 294.6 73 290.3 70.3 285.7 68.3 284.5 67.9 285.6 67.6 286.3 67.7 290.8 69.6 295.1 72.1 299.1 75.2 302.7 78.9 306.1 83.2 309.1 88 311.9 93.3 314.2 99 316.3 105.2 318 111.9 319.3 118.9"/>
          <polygon class="cls-7" points="318.7 233.9 319 235.4 318.9 235.8 317.4 243.1 315.6 250 313.5 256.6 311 262.8 308.2 268.5 305 273.7 301.5 278.4 297.8 282.5 293.7 286.1 289.3 289.2 285.5 291.1 284.8 290.8 284.5 290.7 288.8 288.3 293.2 285.1 297.3 281.3 301.1 277 304.6 272.1 307.8 266.8 310.7 260.9 313.2 254.6 315.4 247.9 317.2 240.9 318.7 233.9"/>
          <polygon class="cls-7" points="318.7 215.4 318.9 216.9 318 222.7 317.2 226.3 316.8 224.6 317.8 220.2 318.7 215.1 318.7 215.4"/>
          <polygon class="cls-7" points="318.9 134.6 318.6 136.2 318.3 133.9 316.7 126.3 314.7 118.9 312.4 111.9 309.8 105.3 306.8 99 303.5 93.3 299.9 88 296 83.2 291.7 78.9 287.2 75.3 282.5 72.1 278.6 70.2 279.7 69.8 283 71.3 287.8 74.2 292.2 77.7 296.4 81.8 300.3 86.4 303.9 91.6 307.1 97.2 310.1 103.3 312.7 109.8 314.9 116.7 316.9 124 318.4 131.6 318.9 134.6"/>
          <polygon class="cls-7" points="318.6 195.5 318.9 197.3 318.4 200.6 317.2 207.1 316.8 205.5 318.3 198.1 318.6 195.5"/>
          <polygon class="cls-7" points="317.2 207.1 316.9 209 315 217 314.5 215.2 314.7 214.6 316.6 206.4 316.8 205.5 317.2 207.1"/>
          <polygon class="cls-7" points="317.2 187.3 315.6 194.8 315 197.3 314.5 195.5 315.4 192.2 316.8 185.5 317.2 187.3"/>
          <polygon class="cls-7" points="315.6 137 317.2 143.9 316.8 145.7 315.4 139.4 313.2 131.6 310.6 124 307.8 116.8 304.6 109.8 301.1 103.3 297.3 97.2 293.1 91.6 288.8 86.5 284.1 81.8 279.1 77.8 273.9 74.2 272.4 73.4 272.9 73.2 273.6 72.8 274.5 73.3 279.7 76.6 284.6 80.5 289.3 85 293.6 90 297.7 95.5 301.5 101.4 305 107.8 308.1 114.6 311 121.7 313.5 129.2 315.6 137"/>
          <polygon class="cls-7" points="316.8 224.6 317.2 226.3 316.3 230.5 314.2 238 311.8 245.2 309.1 252.1 306.1 258.5 302.7 264.6 299 270.1 295 275.2 290.8 279.7 286.2 283.7 281.4 287.1 279.7 288.1 278.6 287.4 280.8 286.1 285.7 282.5 290.3 278.4 294.6 273.7 298.6 268.4 302.3 262.7 305.7 256.6 308.8 250 311.5 243 314 235.7 316 228.1 316.8 224.6"/>
          <polygon class="cls-7" points="314.5 215.2 315 217 314.9 217.1 312.6 225.1 310 232.8 307.1 240.3 303.8 247.4 300.3 254.1 296.4 260.4 292.2 266.3 287.7 271.7 283 276.6 278 281 273.6 284.2 272.5 283.4 277.4 279.7 282.4 275.2 287.2 270.1 291.7 264.5 295.9 258.5 299.8 252.1 303.5 245.2 306.8 238 309.7 230.5 312.4 222.7 314.5 215.2"/>
          <polygon class="cls-7" points="314.2 150.7 315 153.7 314.6 155 314.5 155.5 313.9 153.2 311.5 145 308.8 137 305.7 129.2 302.3 121.8 298.5 114.6 294.5 107.8 290.2 101.4 285.6 95.5 280.8 90 275.7 85 270.3 80.5 265.9 77.5 267.1 76.7 270.9 79.3 276.3 83.6 281.4 88.4 286.2 93.7 290.7 99.5 295 105.8 299 112.5 302.7 119.5 306 126.9 309.1 134.6 311.8 142.5 314.2 150.7"/>
          <polygon class="cls-7" points="314.5 195.5 315 197.3 313.4 203.2 312.2 207.2 311.7 205.4 313.2 200.6 314.5 195.5"/>
          <polygon class="cls-7" points="311.7 205.4 312.2 207.2 310.9 211.5 308.1 219.6 305 227.5 301.5 235.1 297.7 242.5 293.6 249.4 289.2 256.1 284.6 262.3 279.7 268 274.5 273.3 269.1 278 267.1 279.5 265.9 278.6 268.4 276.6 273.9 271.7 279.1 266.3 284 260.4 288.7 254.1 293.1 247.3 297.2 240.2 301 232.8 304.6 225.1 307.8 217.1 310.6 208.9 311.7 205.4"/>
          <polygon class="cls-7" points="305.6 187.8 308.5 195.5 305.6 203.2 302.2 211.4 298.5 219.6 294.5 227.5 290.2 235.1 285.6 242.4 280.7 249.4 275.6 256 270.2 262.2 264.6 268 259.1 273 257.8 271.9 251.9 266.7 254.8 264 260.8 258 266.5 251.5 272 244.6 277.3 237.4 282.4 229.8 287.1 222 291.6 213.9 295.9 205.7 299.8 197.3 303.4 188.9 304.7 185.5 305.6 187.8"/>
          <polygon class="cls-7" points="307.7 173.3 308.4 175.4 306.7 180.3 304.7 185.5 302.2 179.2 298.5 170.7 294.5 162.3 290.1 153.9 285.5 145.7 280.7 137.7 275.6 129.9 270.2 122.4 264.6 115.2 258.8 108.4 252.8 102 246.6 96 244.5 94.2 249.7 89.8 252 87.9 256.8 92.1 262.7 97.7 268.4 103.9 273.8 110.4 279 117.4 284 124.6 288.7 132.2 293.1 140.1 297.2 148.2 301 156.4 304.5 164.8 307.7 173.3"/>
          <polygon class="cls-7" points="290.9 66.2 287.9 66.8 285.6 67.6 281.4 66.5 279.5 66.2 279.8 66.2 284.7 65.7 289.4 65.9 290.9 66.2"/>
          <polygon class="cls-7" points="285.6 67.6 284.5 67.9 280.9 66.8 278.6 66.4 279.5 66.2 281.4 66.5 285.6 67.6"/>
          <polygon class="cls-7" points="284.5 67.9 283.1 68.3 279.7 69.8 278 69 273.6 67.5 274.6 67.2 278.6 66.4 280.9 66.8 284.5 67.9"/>
          <polygon class="cls-7" points="284.5 290.7 284.1 290.9 279.2 292.9 278.8 293 276.4 292.3 273.6 291.1 276.3 290 279.7 288.1 279.8 288.2 284.5 290.7"/>
          <polygon class="cls-7" points="279.7 69.8 278.6 70.2 277.5 69.6 272.5 67.9 273.6 67.5 278 69 279.7 69.8"/>
          <polygon class="cls-7" points="279.7 288.1 276.3 290 273.6 291.1 272.4 290.6 275.7 289.2 278.6 287.4 279.7 288.1"/>
          <polygon class="cls-7" points="278.6 287.4 275.7 289.2 272.4 290.6 271.1 290.1 267.2 288.1 267.2 288.1 272.7 284.8 273.6 284.2 274.7 285 278.6 287.4"/>
          <polygon class="cls-7" points="278.6 70.2 278.1 70.4 273.6 72.8 269.1 70.5 267.1 69.8 269.2 68.9 272.5 67.9 277.5 69.6 278.6 70.2"/>
          <polygon class="cls-7" points="272.5 283.4 273.6 284.2 272.7 284.8 267.2 288.1 267.2 288.1 265.9 287.5 266.6 287.1 272.1 283.7 272.5 283.4"/>
          <polygon class="cls-7" points="273.6 72.8 272.9 73.2 272.4 73.4 268.5 71.3 265.9 70.3 267.1 69.8 269.1 70.5 273.6 72.8"/>
          <polygon class="cls-7" points="272.5 283.4 272.1 283.7 266.6 287.1 265.9 287.5 265.5 287.3 260.3 284.2 263.4 282.2 267.1 279.5 269.3 281.2 272.5 283.4"/>
          <polygon class="cls-7" points="272.4 73.4 267.4 76.5 267.1 76.7 265.4 75.5 260.4 72.8 263.6 71.2 265.9 70.3 268.5 71.3 272.4 73.4"/>
          <polygon class="cls-7" points="265.9 278.6 267.1 279.5 263.4 282.2 260.3 284.2 259.7 283.9 259 283.4 262.8 281 265.9 278.6"/>
          <polygon class="cls-7" points="267.1 76.7 265.9 77.5 264.7 76.6 259.1 73.4 260.4 72.8 265.4 75.5 267.1 76.7"/>
          <polygon class="cls-7" points="265.9 77.5 261.7 80.4 259.1 82.3 254.9 79.3 251.9 77.5 257.7 74.1 259.1 73.4 264.7 76.6 265.9 77.5"/>
          <polygon class="cls-7" points="263.6 276.8 265.9 278.6 262.8 281 259 283.4 253.7 279.9 252 278.6 252.8 278 258.8 273.2 259.1 273 263.6 276.8"/>
          <polygon class="cls-7" points="259.1 273 258.8 273.2 252.8 278 252 278.6 247.6 275.4 244.5 273 248.7 269.6 251.9 266.7 257.8 271.9 259.1 273"/>
          <polygon class="cls-7" points="254.9 79.3 259.1 82.3 255.8 84.8 252 87.9 250.8 86.9 244.6 82.3 245.5 81.6 251.7 77.6 251.9 77.5 254.9 79.3"/>
          <polygon class="cls-7" points="252 278.6 246.6 282.2 244.5 283.4 243.3 282.7 236.9 278.6 242.4 274.7 244.5 273 247.6 275.4 252 278.6"/>
          <polygon class="cls-7" points="252 87.9 249.7 89.8 244.5 94.2 240.2 90.4 236.9 87.9 239 86.2 244.6 82.3 250.8 86.9 252 87.9"/>
          <polygon class="cls-7" points="251.9 266.7 248.7 269.6 244.5 273 241.2 270.3 234.7 264.8 228.1 258.8 221.3 252.4 214.4 245.5 207.4 238.3 200.4 230.8 193.3 223 186.1 215 179 206.8 171.8 198.4 164.7 190 160.9 185.5 167.1 178.1 169.3 175.4 169.4 175.5 176.6 184.1 183.8 192.6 190.9 201 198.1 209.3 205.1 217.5 212.1 225.4 219 233.1 225.9 240.6 232.5 247.6 239.1 254.4 245.5 260.7 251.7 266.5 251.9 266.7"/>
          <polygon class="cls-7" points="244.6 82.3 239 86.2 236.9 87.9 233.7 85.4 229.1 82.3 234.6 78.8 236.9 77.5 238.1 78.1 244.5 82.2 244.6 82.3"/>
          <polygon class="cls-7" points="243.3 282.7 244.5 283.4 243.2 284.2 242.6 283.9 236.1 279.9 235.6 279.5 235.9 279.3 236.9 278.6 243.3 282.7"/>
          <polygon class="cls-7" points="244.5 94.2 243.4 95.2 236.9 101.2 230.3 107.5 223.6 114.3 216.7 121.4 209.8 128.9 202.8 136.7 195.7 144.6 188.5 152.8 181.4 161.2 174.2 169.6 169.3 175.4 162.3 167 160.9 165.4 162.2 163.7 169.4 155.4 176.6 147.1 183.7 139.1 190.9 131.2 198 123.7 205.1 116.4 212.1 109.5 219 103 225.8 97 232.5 91.4 236.9 87.9 240.2 90.4 244.5 94.2"/>
          <polygon class="cls-7" points="243.2 284.2 240.2 285.9 236.9 287.4 232.4 285.3 229.2 283.4 229.2 283.4 235.6 279.5 236.1 279.9 242.6 283.9 243.2 284.2"/>
          <polygon class="cls-7" points="236.9 77.5 234.6 78.8 229.1 82.3 227.7 81.4 233.9 77.6 235.5 76.7 236.9 77.5"/>
          <polygon class="cls-7" points="236.9 278.6 235.9 279.3 235.6 279.5 229.5 275.4 222.7 270.3 215.9 264.8 208.9 258.8 201.9 252.4 194.8 245.5 187.6 238.4 180.5 230.8 173.3 223.1 166.2 215 159 206.8 152 198.5 151 197.3 152.5 195.5 152.8 195.9 159.9 204.3 167 212.5 174.2 220.6 181.3 228.5 188.5 236.1 195.6 243.4 202.7 250.3 209.7 256.9 216.7 263 223.5 268.7 230.3 273.9 236.9 278.6 236.9 278.6"/>
          <polygon class="cls-7" points="232.4 285.3 236.9 287.4 235.5 288.1 231.7 286.3 227.7 284.2 229.2 283.4 232.4 285.3"/>
          <polygon class="cls-7" points="235.5 288.1 233.7 288.9 229 290.6 227.9 290.3 221.2 287.5 221 287.5 222.5 286.8 227.7 284.2 231.7 286.3 235.5 288.1"/>
          <polygon class="cls-7" points="235.5 76.7 233.9 77.6 227.7 81.4 227 80.9 221.1 77.5 223.5 76.2 229.1 73.5 231.5 74.5 235.5 76.7"/>
          <polygon class="cls-7" points="225.7 281.5 229.2 283.4 227.7 284.2 225 282.7 218.1 278.6 211.2 273.9 204.2 268.7 197.1 263 190 256.9 182.8 250.3 175.7 243.4 168.5 236.1 161.4 228.5 154.3 220.6 147.2 212.5 142.7 207.2 144.2 205.4 148 210 155.1 218.2 162.2 226.1 169.3 233.8 176.5 241.2 183.7 248.2 190.8 254.9 197.9 261.2 205 267 212 272.4 218.9 277.2 225.7 281.5"/>
          <polygon class="cls-7" points="229.1 82.3 228 83 221.2 87.8 214.3 93 207.4 98.8 200.3 105 193.2 111.6 186.1 118.6 178.9 126 171.7 133.6 164.6 141.5 157.5 149.6 152.5 155.4 151 153.7 156.7 147.1 163.8 139 170.9 131.2 178.1 123.7 185.2 116.4 192.4 109.5 199.5 103 206.6 97 213.5 91.3 220.4 86.2 227.2 81.6 227.7 81.4 229.1 82.3"/>
          <polygon class="cls-7" points="227.7 72.8 229.1 73.5 223.5 76.2 221.1 77.5 220.2 76.9 219.7 76.7 222.7 75.1 227.7 72.8"/>
          <polygon class="cls-7" points="229 290.6 227.7 291.2 227.2 291 220.4 288.4 219.6 288.1 221 287.5 221.2 287.5 227.9 290.3 229 290.6"/>
          <polygon class="cls-7" points="227.7 291.2 227 291.4 221.1 293 216.5 291.8 212.9 290.6 215.6 289.7 219.6 288.1 220.4 288.4 227.2 291 227.7 291.2"/>
          <polygon class="cls-7" points="227.7 72.8 222.7 75.1 219.7 76.7 213.3 73.6 213 73.4 218.9 71 221.1 70.3 224.8 71.5 227.7 72.8"/>
          <polygon class="cls-7" points="221.1 77.5 216.6 80 209.7 84.4 202.6 89.3 195.5 94.7 188.4 100.6 181.2 107 174.1 113.7 166.9 120.8 159.8 128.3 152.7 136 145.7 143.9 144.2 145.7 142.7 144 144.9 141.5 151.9 133.6 159 125.9 166.1 118.6 173.3 111.6 180.4 105 187.6 98.8 194.7 93 201.8 87.7 208.9 83 215.8 78.8 219.7 76.7 220.2 76.9 221.1 77.5"/>
          <polygon class="cls-7" points="221.1 70.3 218.9 71 213 73.4 211.4 72.8 218.1 70.2 219.6 69.8 221.1 70.3"/>
          <polygon class="cls-7" points="214.3 284.2 221 287.5 219.6 288.1 213.5 285.3 206.5 281.5 199.4 277.2 192.3 272.4 185.2 267 178 261.2 170.9 254.9 163.7 248.3 156.6 241.2 149.5 233.8 142.5 226.1 135.6 218.2 134.6 216.9 136 215.2 136.4 215.7 143.3 223.7 150.3 231.5 157.4 239 164.5 246.1 171.7 252.9 178.8 259.3 186 265.3 193.1 270.8 200.3 275.8 207.3 280.3 214.3 284.2"/>
          <polygon class="cls-7" points="219.6 69.8 218.1 70.2 211.4 72.8 206.3 70.8 204.7 70.2 207.2 69.4 212.9 67.9 218 69.2 219.6 69.8"/>
          <polygon class="cls-7" points="213 73.4 212 73.8 204.9 77.3 197.9 81.3 190.8 85.8 183.6 90.9 176.4 96.5 169.3 102.5 162.1 109 155 115.8 148 123 141 130.6 136 136.2 134.6 134.6 140.2 128.2 147.2 120.8 154.2 113.7 161.3 106.9 168.4 100.6 175.6 94.7 182.8 89.3 189.9 84.4 197.1 80 204.1 76.1 211.1 72.9 211.4 72.8 213 73.4"/>
          <polygon class="cls-7" points="212.9 290.6 211.5 291.1 208.8 290.3 201.8 287.5 194.7 284.2 187.5 280.3 180.4 275.8 173.2 270.8 166 265.3 158.9 259.3 151.8 252.9 144.8 246.1 137.9 239 131.1 231.5 126.6 226.3 128 224.6 131.8 229.1 138.7 236.7 145.6 244 152.6 250.9 159.7 257.4 166.9 263.5 174 269.2 181.2 274.3 188.4 278.9 195.5 283 202.6 286.6 209.6 289.5 212.9 290.6"/>
          <polygon class="cls-7" points="211.5 67.5 212.9 67.9 207.2 69.4 204.7 70.2 203.2 69.8 206.4 68.7 211.5 67.5"/>
          <polygon class="cls-7" points="211 67.4 211.5 67.5 206.4 68.7 203.2 69.8 199.2 68.6 194.6 67.5 201.7 66.3 203.3 66.2 204 66.3 211 67.4"/>
          <polygon class="cls-7" points="204.7 70.2 200.2 71.8 193.1 74.8 185.9 78.4 178.8 82.6 171.6 87.3 164.5 92.6 157.3 98.3 150.3 104.4 143.3 111 136.4 118 129.6 125.3 128 127.1 127.5 126.6 126.6 125.5 128.8 123 135.6 115.8 142.5 109 149.5 102.5 156.5 96.5 163.6 90.9 170.8 85.8 177.9 81.3 185.1 77.3 192.3 73.8 199.4 71 203.2 69.8 204.7 70.2"/>
          <polygon class="cls-7" points="204.5 293 203.1 293.3 197 291.8 189.9 289.5 182.7 286.6 175.5 283 168.4 279 161.2 274.3 154.1 269.2 147.1 263.5 140.1 257.4 133.3 250.9 126.5 244 119.9 236.7 118.7 235.4 120.1 233.8 120.6 234.4 127.3 241.8 134.1 248.8 140.9 255.5 147.9 261.7 154.9 267.5 162.1 272.8 169.2 277.6 176.4 281.8 183.5 285.5 190.7 288.7 197.8 291.2 204.5 293"/>
          <polygon class="cls-7" points="203.3 66.2 201.7 66.3 194.6 67.5 194.6 67.5 192.1 67 186.4 66.2 189.8 65.9 196.9 65.8 203.3 66.2"/>
          <polygon class="cls-7" points="195 294.7 194.5 294.7 187.4 295.1 180.2 294.9 173.1 294.1 165.9 292.6 158.8 290.5 151.7 287.8 144.7 284.5 137.8 280.6 130.9 276.2 124.2 271.2 117.6 265.8 111.2 259.9 104.9 253.5 103.7 252.1 105.9 249.7 111.1 244 115.5 248.8 122.1 255.5 128.7 261.7 135.5 267.5 142.4 272.8 149.4 277.6 156.5 281.9 163.6 285.6 170.7 288.7 177.9 291.2 185 293.1 192.2 294.4 195 294.7"/>
          <polygon class="cls-7" points="194.6 67.5 187.5 69.3 180.3 71.8 173.1 74.8 166 78.4 158.9 82.6 151.8 87.3 144.8 92.5 137.8 98.2 131 104.4 124.3 111 118.7 116.9 114.4 112.2 111.1 108.8 113.4 106.4 119.8 100.1 126.5 94.2 133.2 88.8 140.1 84 147 79.6 154.1 75.8 161.2 72.6 168.3 70 175.5 68 182.6 66.6 186.4 66.2 192.1 67 194.6 67.5"/>
          <polygon class="cls-7" points="160.9 185.5 159.9 186.6 152.8 195.1 152.5 195.5 145.7 187.4 144.2 185.5 148.1 180.7 152.5 175.4 157.5 181.5 160.9 185.5"/>
          <polygon class="cls-7" points="155.2 158.6 160.9 165.4 155.1 172.2 152.5 175.4 150.5 172.9 144.2 165.4 150.4 157.9 152.5 155.4 155.2 158.6"/>
          <polygon class="cls-7" points="152.5 155.4 150.4 157.9 144.2 165.4 143.5 164.5 142.7 163.6 149.6 155.3 151 153.7 152.5 155.4"/>
          <polygon class="cls-7" points="152.5 195.5 151 197.3 144.9 190 142.7 187.3 144.2 185.5 145.7 187.4 152.5 195.5"/>
          <polygon class="cls-7" points="148.2 150.3 151 153.7 149.6 155.3 142.7 163.6 136.5 156.1 136 155.4 138.7 152.1 144.2 145.7 148.2 150.3"/>
          <polygon class="cls-7" points="151 197.3 145.8 203.5 144.2 205.4 141.1 201.7 136 195.5 141.1 189.2 142.7 187.3 144.9 190 151 197.3"/>
          <polygon class="cls-7" points="138.8 178.9 144.2 185.5 142.7 187.3 138 181.5 134.6 177.2 136 175.4 138.8 178.9"/>
          <polygon class="cls-7" points="144.2 165.4 143.4 166.3 136.5 174.8 136 175.4 134.6 173.6 135.7 172.2 142.6 163.7 142.7 163.6 143.5 164.5 144.2 165.4"/>
          <polygon class="cls-7" points="144.2 205.4 142.7 207.2 140.3 204.3 134.6 197.3 136 195.5 141.1 201.7 144.2 205.4"/>
          <polygon class="cls-7" points="142.7 144 144.2 145.7 138.7 152.1 136 155.4 134.6 153.7 137.9 149.6 142.7 144"/>
          <polygon class="cls-7" points="142.7 144 137.9 149.6 134.6 153.7 129.7 147.8 128 145.7 134.1 138.4 136 136.2 141.2 142.2 142.7 144"/>
          <polygon class="cls-7" points="140.3 204.3 142.7 207.2 138.9 211.8 136 215.2 129.6 207.5 128 205.5 134.2 197.7 134.6 197.3 140.3 204.3"/>
          <polygon class="cls-7" points="134.2 193.3 136 195.5 134.6 197.3 133.4 195.9 126.6 187.4 126.6 187.3 128 185.5 134.2 193.3"/>
          <polygon class="cls-7" points="134.6 134.6 136 136.2 134.1 138.4 128 145.7 126.5 144 126.6 143.9 133.3 136 134.6 134.6"/>
          <polygon class="cls-7" points="134.6 153.7 136 155.4 131.9 160.5 128 165.4 126.6 163.6 131.1 157.9 134.6 153.7"/>
          <polygon class="cls-7" points="129.6 207.5 136 215.2 134.6 216.9 128.8 210 126.6 207.2 127.5 206.1 128 205.5 129.6 207.5"/>
          <polygon class="cls-7" points="134.6 173.6 133.1 175.4 131.2 173 126.6 167.1 128 165.4 131.9 170.3 134.6 173.6"/>
          <polygon class="cls-7" points="134.6 177.2 129.7 183.3 128 185.5 127.4 184.8 126.6 183.7 128.9 180.7 133.1 175.4 134.6 177.2"/>
          <polygon class="cls-7" points="134.6 134.6 133.3 136 126.6 143.9 126.5 144 123 139.7 120.1 136.2 122.9 132.9 128 127.1 134.3 134.3 134.6 134.6"/>
          <polygon class="cls-7" points="128.8 210 134.6 216.9 132 219.9 128 224.6 125.1 221.3 120.1 215.2 120.8 214.3 126.6 207.2 128.8 210"/>
          <polygon class="cls-7" points="125.1 221.3 128 224.6 126.6 226.3 124.3 223.7 118.7 216.9 120.1 215.2 125.1 221.3"/>
          <polygon class="cls-7" points="128 127.1 122.9 132.9 120.1 136.2 118.7 134.6 122.1 130.6 126.6 125.5 127.5 126.6 128 127.1"/>
          <polygon class="cls-7" points="122.9 199.1 128 205.5 127.5 206.1 126.6 207.2 122.2 201.7 118.7 197.3 120.1 195.5 122.9 199.1"/>
          <polygon class="cls-7" points="126.5 144 128 145.7 127.4 146.4 120.7 154.6 120.1 155.4 118.7 153.7 119.9 152.1 126.5 144"/>
          <polygon class="cls-7" points="120.9 119.2 126.6 125.5 122.1 130.6 118.7 134.6 116.5 131.9 111.1 125.5 111.3 125.3 117.7 118 118.7 116.9 120.9 119.2"/>
          <polygon class="cls-7" points="124.3 223.7 126.6 226.3 125.3 227.8 120.1 233.8 114.1 226.8 112.4 224.6 114.3 222.3 118.7 216.9 124.3 223.7"/>
          <polygon class="cls-7" points="126.6 163.6 125.1 165.4 124.4 164.5 118.7 157.2 120.1 155.4 125.2 161.9 126.6 163.6"/>
          <polygon class="cls-7" points="126.6 167.1 125.2 168.9 120.1 175.4 118.7 173.6 124.4 166.3 125.1 165.4 126.6 167.1"/>
          <polygon class="cls-7" points="126.6 183.7 125.2 185.5 120 178.9 118.7 177.2 120.1 175.4 120.8 176.3 126.6 183.7"/>
          <polygon class="cls-7" points="126.6 187.3 123 191.8 120.1 195.5 118.7 193.7 122.2 189.2 125.2 185.5 126.6 187.3"/>
          <polygon class="cls-7" points="118.7 134.6 120.1 136.2 116.3 140.8 112.4 145.7 112.2 145.3 111.1 144 115.6 138.4 118.7 134.6"/>
          <polygon class="cls-7" points="118.5 213.2 120.1 215.2 118.7 216.9 117.8 215.7 111.3 207.5 111.1 207.2 112.4 205.5 118.5 213.2"/>
          <polygon class="cls-7" points="114.1 226.8 120.1 233.8 118.7 235.4 113.4 229.2 111.1 226.3 112.4 224.6 114.1 226.8"/>
          <polygon class="cls-7" points="118.7 157.2 114.2 163 112.4 165.4 111.1 163.6 113.5 160.4 117.4 155.4 117.9 156.1 118.7 157.2"/>
          <polygon class="cls-7" points="118.7 193.7 117.4 195.5 115.6 193.3 111.1 187.3 112.1 185.9 112.4 185.5 116.4 190.7 118.7 193.7"/>
          <polygon class="cls-7" points="118.7 197.3 116.4 200.3 112.4 205.5 112.1 205 111.1 203.7 115.7 197.7 117.4 195.5 118.7 197.3"/>
          <polygon class="cls-7" points="118.7 173.6 117.8 174.8 117.4 175.4 113.5 170.4 111.1 167.1 112.4 165.4 114.3 167.8 118.7 173.6"/>
          <polygon class="cls-7" points="118.6 153.5 118.7 153.7 117.4 155.4 111.4 147.8 111.1 147.4 112.4 145.7 118.6 153.5"/>
          <polygon class="cls-7" points="118.7 235.4 118.7 235.4 112.2 242.8 111.1 244 109.1 241.8 103.7 235.4 108 230.2 111.1 226.3 113.4 229.2 118.7 235.4"/>
          <polygon class="cls-7" points="117.4 175.4 118.7 177.2 118.6 177.4 112.4 185.5 111.1 183.7 111.4 183.3 117.4 175.4"/>
          <polygon class="cls-7" points="112.4 224.6 111.1 226.3 107.1 221.3 103.7 216.9 103.8 216.8 105 215.2 107.8 218.8 112.4 224.6"/>
          <polygon class="cls-7" points="111.1 167.1 107.9 171.5 105 175.4 103.7 173.7 103.7 173.6 107.1 168.9 109.8 165.4 111.1 167.1"/>
          <polygon class="cls-7" points="109.8 185.5 111.1 187.3 105.8 194.4 105 195.5 103.7 193.7 105.1 191.8 109.8 185.5"/>
          <polygon class="cls-7" points="107.9 159.3 111.1 163.6 109.8 165.4 107.2 161.9 103.7 157.2 105 155.4 107.9 159.3"/>
          <polygon class="cls-7" points="111.1 108.8 107 113.1 103.7 116.9 97.8 110.1 92 103.6 86.3 97.5 80.9 91.8 75.8 86.7 70.9 82 66.2 77.9 61.9 74.4 57.8 71.4 54 69.1 50.6 67.3 47.4 66.2 47.3 66.2 49.5 65.8 52.9 65.8 56.5 66.5 60.5 67.8 64.8 69.7 69.3 72.3 74.1 75.4 79.2 79.1 84.5 83.4 90.1 88.2 95.9 93.5 101.9 99.3 108 105.5 111.1 108.8"/>
          <polygon class="cls-7" points="105.9 137.3 111.1 144 109.8 145.7 105.2 139.8 102.4 136.2 103.7 134.6 105.9 137.3"/>
          <polygon class="cls-7" points="111.1 147.4 109.9 148.9 105 155.4 103.7 153.7 109.2 146.4 109.8 145.7 111.1 147.4"/>
          <polygon class="cls-7" points="111.1 183.7 109.8 185.5 109.2 184.8 103.7 177.2 105 175.4 110 182.2 111.1 183.7"/>
          <polygon class="cls-7" points="105.8 196.6 111.1 203.7 109.8 205.4 105.1 199.2 103.7 197.3 105 195.5 105.8 196.6"/>
          <polygon class="cls-7" points="109.8 205.4 111.1 207.2 110 208.6 105 215.2 103.7 213.5 109.3 206 109.8 205.4"/>
          <polygon class="cls-7" points="110.1 124.3 111.1 125.5 105 132.9 103.7 134.6 99.8 129.6 96.6 125.5 100.9 120.2 103.7 116.9 103.9 117 110.1 124.3"/>
          <polygon class="cls-7" points="103.7 216.9 97.8 224.8 96.6 226.3 95.3 224.7 97.1 222.3 102.4 215.2 103.7 216.9"/>
          <polygon class="cls-7" points="101.6 210.7 103.7 213.5 103.1 214.3 102.4 215.2 100.9 213.2 96.6 207.2 97.8 205.4 101.6 210.7"/>
          <polygon class="cls-7" points="103 176.3 103.7 177.2 101.7 180 97.8 185.5 96.6 183.7 101 177.4 102.4 175.4 103 176.3"/>
          <polygon class="cls-7" points="99.7 188.1 103.7 193.7 102.4 195.5 99 190.7 96.6 187.3 97.8 185.5 99.7 188.1"/>
          <polygon class="cls-7" points="102.4 195.5 103.7 197.3 99.7 202.8 97.8 205.4 96.6 203.7 99 200.2 102.4 195.5"/>
          <polygon class="cls-7" points="103.7 134.6 102.4 136.2 99.1 131.9 95.3 127.1 96.6 125.5 99.8 129.6 103.7 134.6"/>
          <polygon class="cls-7" points="103.7 153.7 103 154.6 102.4 155.4 101.1 153.6 95.3 145.7 96.6 144 101.7 151 103.7 153.7"/>
          <polygon class="cls-7" points="103.7 252.1 99.8 256.3 93.9 262.5 88.2 268.2 82.7 273.5 77.5 278.2 72.5 282.4 67.8 286 63.3 289 59.1 291.5 55.2 293.3 51.7 294.5 48.4 295.1 45.5 295 44 294.7 46.4 293.7 49.5 292.1 52.8 289.9 56.5 287 60.5 283.5 64.7 279.5 69.3 275 74.1 269.9 79.2 264.3 84.5 258.3 90 251.8 95.8 244.9 96.6 244 98.9 246.7 103.7 252.1"/>
          <polygon class="cls-7" points="97.8 165.4 103.7 173.6 102.4 175.4 97 167.8 96.6 167.1 97.7 165.6 97.8 165.4"/>
          <polygon class="cls-7" points="102.9 234.5 103.7 235.4 101.8 237.7 96.6 244 93 239.6 89.8 235.3 91.9 232.5 96.6 226.3 96.9 226.8 102.9 234.5"/>
          <polygon class="cls-7" points="103.7 157.2 103.7 157.2 97.8 165.4 97.7 165.2 96.6 163.6 97 163 102.4 155.4 103.7 157.2"/>
          <polygon class="cls-7" points="99.1 131.9 102.4 136.2 98.9 140.8 96.6 144 95.8 142.9 90 134.9 89.7 134.6 94.9 127.6 95.3 127.1 99.1 131.9"/>
          <polygon class="cls-7" points="96.6 183.7 95.3 185.5 93.1 182.2 89.7 177.2 90.9 175.4 93.8 179.6 96.6 183.7"/>
          <polygon class="cls-7" points="96.6 207.2 93.8 211.1 89.7 216.9 88.6 215.2 93.1 208.6 95.3 205.5 96.6 207.2"/>
          <polygon class="cls-7" points="96.6 144 95.3 145.7 95.1 145.4 89.3 137.4 88.5 136.2 89.2 135.3 89.7 134.6 90 134.9 95.8 142.9 96.6 144"/>
          <polygon class="cls-7" points="95.3 185.5 96.6 187.3 95.7 188.5 90.9 195.5 89.9 194 89.7 193.7 95 185.9 95.3 185.5"/>
          <polygon class="cls-7" points="93.9 122.1 96.6 125.5 95.3 127.1 93.2 124.3 87.5 117.1 82.1 110.1 76.8 103.6 71.9 97.5 67.2 91.8 62.8 86.7 58.6 82 54.8 77.9 51.3 74.4 48.1 71.4 45.2 69.1 43.4 67.9 43.8 67.6 43.9 67.5 45.5 68.5 48.4 70.6 51.7 73.4 55.2 76.8 59.1 80.7 63.2 85.2 67.7 90.2 72.4 95.7 77.4 101.7 82.7 108.1 88.2 114.9 93.9 122.1"/>
          <polygon class="cls-7" points="96.6 203.7 95.3 205.5 95 205 89.7 197.3 89.9 197 90.9 195.5 95.7 202.4 96.6 203.7"/>
          <polygon class="cls-7" points="96.6 167.1 91.8 174.1 90.9 175.4 89.7 173.6 91.2 171.5 95.3 165.4 96.6 167.1"/>
          <polygon class="cls-7" points="91.9 156.8 96.6 163.6 95.3 165.4 91.2 159.4 88.6 155.4 89.7 153.7 91.9 156.8"/>
          <polygon class="cls-7" points="95.3 224.7 96.6 226.3 91.9 232.5 89.8 235.3 88.6 233.8 91.2 230.1 95.3 224.7"/>
          <polygon class="cls-7" points="95.3 145.7 93 148.9 89.7 153.7 86.2 148.5 83.2 144 83.7 143.2 88.5 136.2 89.3 137.4 95.1 145.4 95.3 145.7"/>
          <polygon class="cls-7" points="91.1 218.9 95.3 224.7 91.2 230.1 88.6 233.8 87.3 232.1 83.2 226.3 88.1 219.2 89.7 216.9 91.1 218.9"/>
          <polygon class="cls-7" points="89.8 235.3 86.3 239.9 80.9 247 75.7 253.8 70.8 260.1 66.2 266 61.8 271.5 57.8 276.4 54 280.8 50.5 284.7 47.4 287.9 44.6 290.6 42.1 292.7 41.1 293.3 40.7 293 41.8 292.1 44.3 289.8 47.1 287 50.2 283.5 53.6 279.5 57.3 274.9 61.3 269.9 65.7 264.3 70.3 258.2 75.1 251.8 80.3 244.9 85.7 237.7 88.6 233.8 89.8 235.3"/>
          <polygon class="cls-7" points="88.6 175.4 89.7 177.2 86.2 182.6 84.3 185.5 83.2 183.7 85.6 180 88.6 175.4"/>
          <polygon class="cls-7" points="89.7 153.7 88.6 155.4 85.6 151 82.1 145.7 83.2 144 86.2 148.5 89.7 153.7"/>
          <polygon class="cls-7" points="89.7 173.6 88.6 175.4 87.4 173.7 82.1 165.4 83.2 163.6 88.1 171.1 89.7 173.6"/>
          <polygon class="cls-7" points="89.7 216.9 88.1 219.2 83.2 226.3 82 224.7 87.5 216.8 88.6 215.2 89.7 216.9"/>
          <polygon class="cls-7" points="89.7 134.6 89.2 135.3 88.5 136.2 83.8 129.6 78.5 122.1 73.5 114.9 68.7 108.1 64.2 101.7 59.9 95.7 56 90.2 52.4 85.2 49.1 80.7 46.1 76.8 43.4 73.4 41.1 70.7 40.7 70.2 41.1 69.7 41.3 69.9 43.7 72.5 46.4 75.7 49.4 79.5 52.8 83.8 56.4 88.6 60.4 94 64.7 99.8 69.2 106.1 74 112.8 79.1 119.8 84.4 127.2 89.7 134.6"/>
          <polygon class="cls-7" points="89.2 196.6 89.7 197.3 84.4 205.4 83.2 207.2 82.1 205.4 83.8 202.8 88.5 195.5 89.2 196.6"/>
          <polygon class="cls-7" points="89.7 193.7 89.3 194.4 88.5 195.5 83.7 188.1 83.2 187.3 84.3 185.5 84.3 185.5 89.7 193.7"/>
          <polygon class="cls-7" points="88.6 215.2 87.5 216.8 82 224.7 81.9 224.4 77 216.9 79.1 213.6 83.2 207.2 85.5 210.7 88.6 215.2"/>
          <polygon class="cls-7" points="88.6 155.4 87.4 157.2 83.2 163.6 82.6 162.6 77.3 154.3 77 153.7 78.4 151.4 82.1 145.7 85.6 151 88.6 155.4"/>
          <polygon class="cls-7" points="83.2 207.2 79.1 213.6 77 216.9 76.7 216.4 75.9 215.2 78.5 211.1 82.1 205.4 83.2 207.2"/>
          <polygon class="cls-7" points="79 177 83.2 183.7 82.1 185.5 78.4 179.6 75.9 175.4 76.7 174 77 173.6 79 177"/>
          <polygon class="cls-7" points="82.1 185.5 83.2 187.3 80.8 191.1 77 197.3 75.9 195.5 80.2 188.5 82.1 185.5"/>
          <polygon class="cls-7" points="82.6 162.6 83.2 163.6 82.1 165.4 82 165.2 76.8 156.8 75.9 155.4 77 153.7 77.3 154.3 82.6 162.6"/>
          <polygon class="cls-7" points="83.2 226.3 82.6 227.1 77.4 234.8 72.4 242.1 67.7 249.1 63.2 255.8 59.1 262 55.2 267.8 51.6 273 48.4 277.8 45.5 282 42.9 285.7 40.6 288.8 38.8 291.2 38.7 291.1 38.5 290.7 38.5 290.6 40.4 287.9 42.6 284.6 45.2 280.8 48 276.4 51.2 271.5 54.8 266 58.6 260.1 62.7 253.8 67.1 247 71.8 239.9 76.8 232.5 82 224.7 82 224.7 83.2 226.3"/>
          <polygon class="cls-7" points="83.2 144 82.1 145.7 80.2 142.9 75.1 135 70.2 127.3 65.6 119.9 61.3 112.8 57.3 106.1 53.5 99.8 50.1 94 47 88.6 44.2 83.8 41.8 79.5 39.7 75.7 38.5 73.5 38.8 72.8 39.9 74.7 42.1 78.2 44.6 82.4 47.4 87.1 50.5 92.3 53.9 98 57.7 104.1 61.8 110.7 66.1 117.7 70.8 125 75.7 132.6 80.8 140.4 83.2 144"/>
          <polygon class="cls-7" points="80.1 202.4 82.1 205.4 78.5 211.1 75.9 215.2 71.7 208.2 71.1 207.2 75.6 199.5 77 197.3 80.1 202.4"/>
          <polygon class="cls-7" points="82 165.2 82.1 165.4 81.9 165.6 77 173.6 73.9 168.5 71.2 163.6 73.3 159.7 75.9 155.4 76.8 156.8 82 165.2"/>
          <polygon class="cls-7" points="75.9 195.5 77 197.3 75.6 199.5 71.1 207.2 70.1 205.4 70.2 205.3 75.1 197 75.9 195.5"/>
          <polygon class="cls-7" points="73.9 168.5 77 173.6 76.7 174 75.9 175.4 73.4 171.1 70.1 165.4 71.2 163.6 73.9 168.5"/>
          <polygon class="cls-7" points="77 153.7 75.9 155.4 71.8 148.5 67.1 140.5 62.7 132.6 58.6 125 54.7 117.7 51.2 110.7 48 104.2 45.1 98 42.6 92.3 40.4 87.1 38.5 82.4 37 78.3 36.7 77.5 37 76.7 37.1 77.1 38.7 81.1 40.6 85.6 42.9 90.7 45.4 96.2 48.4 102.2 51.6 108.7 55.2 115.5 59 122.7 63.2 130.2 67.6 138 72.4 146 77 153.7"/>
          <polygon class="cls-7" points="77 216.9 74 221.7 69.2 229.5 64.6 237.1 60.4 244.3 56.4 251.2 52.8 257.7 49.4 263.8 46.4 269.4 43.7 274.5 41.3 279.2 39.3 283.2 37.6 286.7 37 288.1 36.7 287.4 37.4 285.7 39.1 282 41.1 277.8 43.4 273 46.1 267.7 49 262 52.4 255.8 56 249.1 59.9 242.1 64.1 234.8 68.7 227.1 73.4 219.2 75.9 215.2 76.7 216.4 77 216.9"/>
          <polygon class="cls-7" points="73.4 171.1 75.9 175.4 71.8 182.6 70.1 185.5 65.5 177 64.7 175.4 68.6 168.1 70.1 165.4 73.4 171.1"/>
          <polygon class="cls-7" points="75.9 195.5 75.1 197 70.2 205.3 70.1 205.4 67 199.9 64.7 195.5 67.1 191.1 70.1 185.5 70.1 185.5 75 194 75.9 195.5"/>
          <polygon class="cls-7" points="69.1 160.1 71.2 163.6 70.1 165.4 68.6 162.6 64.1 154.3 59.9 146.1 55.9 138 52.3 130.2 49 122.7 46 115.5 43.4 108.7 41.1 102.2 39.1 96.2 37.4 90.7 36.2 85.6 35.5 82.3 35.7 81.4 36.3 84.2 37.6 89.1 39.3 94.5 41.3 100.3 43.7 106.6 46.4 113.4 49.4 120.5 52.7 127.9 56.4 135.6 60.4 143.6 64.6 151.7 69.1 160.1"/>
          <polygon class="cls-7" points="71.1 207.2 70.7 207.9 66.1 216.1 61.8 224.1 57.7 231.8 53.9 239.3 50.5 246.5 47.3 253.2 44.5 259.6 42.1 265.6 39.9 271 38.1 276 36.7 280.5 35.7 284.1 35.5 283.3 35.5 283.2 36.5 279.1 37.9 274.5 39.7 269.4 41.8 263.8 44.2 257.7 47 251.2 50.1 244.3 53.5 237 57.2 229.5 61.3 221.6 65.6 213.6 70.1 205.4 71.1 207.2"/>
          <polygon class="cls-7" points="62.6 191.4 64.7 195.5 62.7 199.5 58.5 207.9 54.7 216.1 51.2 224.1 48 231.8 45.1 239.3 42.6 246.4 40.3 253.2 38.5 259.6 37 265.5 35.8 271 35 276 34.7 278.6 34.6 277.4 34.4 272.6 34.7 267.3 35.2 261.5 36.1 255.2 37.4 248.5 39.1 241.5 41 234.1 43.4 226.4 46 218.5 49 210.4 52.3 202.1 55.9 193.7 59.7 185.5 62.6 191.4"/>
          <polygon class="cls-7" points="61.2 168.5 64.7 175.4 64.1 176.6 59.8 185.2 59.7 185.5 58.5 182.9 54.7 174.4 51.2 165.9 47.9 157.5 45.1 149.2 42.5 141.1 40.3 133.2 38.5 125.6 36.9 118.3 35.8 111.3 35 104.7 34.5 98.5 34.4 92.8 34.7 87.6 34.8 89.1 35.5 94.5 36.5 100.4 37.9 106.7 39.7 113.4 41.8 120.5 44.2 127.9 47 135.6 50.1 143.6 53.5 151.8 57.2 160.1 61.2 168.5"/>
          <polygon class="cls-7" points="47.3 66.2 46.5 66.4 43.9 67.5 42.9 66.9 41.2 66.2 42.1 65.9 44.6 65.8 47.3 66.2"/>
          <polygon class="cls-7" points="43.4 67.9 41.4 69.4 41.1 69.7 39.3 67.9 38.8 67.6 40 66.7 40.7 66.4 42.6 67.3 43.4 67.9"/>
          <polygon class="cls-7" points="39.3 67.9 41.1 69.7 40.7 70.2 39.1 68.5 38.4 67.9 38.8 67.6 39.3 67.9"/>
          <polygon class="cls-7" points="40.7 70.2 39.3 71.9 38.8 72.8 38.1 71.7 37 69.7 38.2 68.1 38.4 67.9 39.1 68.5 40.7 70.2"/>
          <polygon class="cls-7" points="38.8 72.8 38.5 73.5 38 72.5 36.7 70.2 36.7 70.1 37 69.7 38.1 71.7 38.8 72.8"/>
          <polygon class="cls-7" points="38 72.5 38.5 73.5 37.7 75 37 76.7 35.9 73.7 35.6 72.7 36.7 70.2 38 72.5"/>
          <polygon class="cls-7" points="38.5 290.7 37 292.7 36.7 293 36.3 292.5 35.7 291.1 36.3 289.6 37 288.1 37.2 288.6 38.5 290.7"/>
          <polygon class="cls-7" points="36.7 287.4 37 288.1 36.3 289.6 35.7 291.1 35.5 290.7 36.2 288.8 36.7 287.4"/>
          <polygon class="cls-7" points="35.9 285.4 36.7 287.4 36.2 288.8 35.5 290.7 35.3 290.4 34.8 288.1 34.9 287.7 35.6 284.3 35.7 284.1 35.9 285.4"/>
          <polygon class="cls-7" points="35.8 74.7 36.7 77.5 36.3 78.6 35.7 81.4 35.3 79.8 34.8 76.7 34.9 76 35.5 73.4 35.8 74.7"/>
          <polygon class="cls-7" points="35.1 281.7 35.5 283.3 34.8 286.7 34.7 287.6 34.4 284.3 34.5 280.4 34.7 278.6 35.1 281.7"/>
          <polygon class="cls-7" points="35.2 81.1 35.5 82.3 35.3 82.8 34.7 87.5 34.7 87.6 34.5 84.2 34.5 79.8 34.7 77.6 35.2 81.1"/>
        </g>
        <g>
          <polyline class="cls-3" points="278.2 295.1 282.5 294.8 284.5 294.5 287.3 293.9 289.9 293 291.8 292.3 296 290.2"/>
          <path class="cls-3" d="M34.5,295v.2s.2,0,.2,0h.3c0-.1.2-.4.2-.4l.2-.2.4-.4.9-1.1.3-.3,1.5-2h0c0,0,1.9-2.7,1.9-2.7l2.2-3.3,2.6-3.9,2.9-4.4,3.2-4.9,3.5-5.4,3.8-5.9,4.1-6.4,4.4-6.8,4.7-7.1,5-7.4,5.2-7.7h0c0,0,5.4-8,5.4-8l1.1-1.6,4.6-6.6,2.2-3.1,1.2-1.8,2.4-3.5,3.4-4.7,1.3-1.8,1.4-1.9,4.6-6.3,1.3-1.8.3-.4,6-7.9.5-.6.9-1.2,5.7-7.3.8-.9,1.4-1.8,4.6-5.7,3.5-4.2,3.4-4.1,4.8-5.6,2.1-2.5,7-7.9,7.1-7.6,7.1-7.3,7.2-7,7.2-6.6,7.2-6.2,7.1-5.8,7.1-5.3,7-4.8,7-4.2,3.9-2.1,3-1.6,5-2.3,1.8-.8,6.1-2.3.5-.2,6.5-1.9h.6c0-.1,1.4-.4,1.4-.4l4.3-.9,2.1-.2h1.2c0-.1,2.8-.4,2.8-.4h4.4s1.5,0,1.5,0l3.6.4,1.4.2h.8c0,0,5.5,1.4,5.5,1.4h.4c0,.1,4.9,1.9,4.9,1.9l1.2.6,3.8,1.9,4.8,3.1,4.5,3.7,4.2,4.2,3.9,4.8,3.6,5.3,3.3,5.8,3,6.2,2.6,6.6,2.3,7,2,7.4,1.6,7.7.4,2.3.9,5.6.4,3.9.5,4.2.4,5.5v1.5c.1,0,.2,1.3.2,1.3l.2,7.1v1.3s-.1,8.5-.1,8.5v.5s-.1,1.6-.1,1.6l-.4,6.4-.2,1.8-.2,1.7-.5,5.1-.7,5.1-.5,3.3-1.2,6.5-.4,1.8-1.9,8v.2s-2.3,8-2.3,8l-2.6,7.7-2.9,7.4-3.3,7.1-3.6,6.7-3.9,6.3-4.2,5.9-4.5,5.4-4.7,4.9-5,4.4-4.4,3.2-.9.6-5.5,3.2h0s-5.6,2.6-5.6,2.6l-1.2.4-1.3.4-3.4,1.2-2.4.6-1.3.3-2.4.5-3.7.5h-1.2c0,.1-1.4.3-1.4.3l-6.5.2h-.2s-6.3-.5-6.3-.5h0s-1.1-.2-1.1-.2l-5.6-.9-2.2-.6-4.6-1.2-3.6-1.2-3.3-1.1-7-2.9-7.1-3.5-7.1-4.1-7.2-4.6-7.2-5.2-7.2-5.6-7.1-6.1-7.1-6.5-7-6.9-6.9-7.3-6.8-7.6-3.8-4.5-2.9-3.4-5-6.1-1.6-2-6.1-7.8-.4-.5-1-1.3-5.3-7.1-.8-1-1.3-1.8-4.1-5.6-1.8-2.6-1.2-1.8-2.8-4.1-2.8-4.2-1.2-1.8-1.7-2.5-4.9-7.5-.6-1-5.2-8.4-.3-.6-4.6-7.6-4.7-8-4.4-7.8-4.2-7.5-3.9-7.2-3.6-6.8-3.2-6.4-2.9-6-2.6-5.6-2.2-5.1-1.9-4.5-1.6-4v-.4c-.1,0-1.2-3.1-1.2-3.1l-.3-.9-.6-1.9-.2-1.1v-.4c0,0-.2-.7-.2-.7v-1.4c-.1,0-.1-.2-.1-.2,0-.3,0-.6.1-.8,0,0,0-.1,0-.2h0s.5-.4.5-.4c0,0,.2,0,.2,0,.2,0,.5.2.7.3l.3.2.2.2.7.5,1,.9.7.6,1.6,1.8.4.4,2.3,2.8,2.7,3.4,3,3.9,3.3,4.5,3.6,5,3.9,5.5,4.2,6,4.5,6.4,4.8,6.8,5.1,7.2,5.3,7.5,4.7,6.6.8,1.1,5.8,8,.2.3,5.7,7.9,1.4,1.9,1.3,1.7,3.5,4.8,2.6,3.4,1.3,1.8,2.4,3.2,3.8,5,1.4,1.8,1.3,1.7,5.1,6.6,1.4,1.8h0c0,.1,6.8,8.6,6.8,8.6l1.2,1.4,5.7,7,2.5,2.9,4.5,5.3,7,8.1,7.1,7.9,7.1,7.6,7.2,7.3,7.2,6.9,7.1,6.6,7.1,6.1,7.1,5.7,7,5.2,6.9,4.7,6.8,4.1,2.7,1.4,4,2.1,3.9,1.8,2.7,1.2,5,1.9,1.3.5h.1c0,0,5.9,1.7,5.9,1.7h.4c0,.1.9.3.9.3l5.1,1h.8c0,0,1.6.2,1.6.2l3.5.3h3c0,0,2.7-.1,2.7-.1l2.6-.4,1.1-.2,1.6-.2,4.8-1.3h.4c0-.1,5-2.1,5-2.1l.4-.2,4.3-2.4,4.4-3.2,4.1-3.8,3.8-4.3,3.5-4.9,3.2-5.4,2.9-5.9,2.5-6.3,2.2-6.7,1.9-7.1,1.4-7v-.4c0,0,1.2-7.7,1.2-7.7v-1.1c.1,0,.8-6.9.8-6.9v-2.6c.1,0,.4-5.5.4-5.5v-6c0,0,0-2.3,0-2.3l-.2-5.8v-1.9c0,0,0-.7,0-.7l-.6-7.5v-1c0,0-.2-.8-.2-.8l-.9-7.7v-.6c0,0-.4-1.7-.4-1.7l-1-6.2-.8-3.8-.9-4.6-1.3-5.3-.8-3.1-2.4-8.1-2.7-7.9-3-7.7-3.4-7.4-3.7-7.1-4-6.7-4.3-6.3-4.5-5.8-4.8-5.3-5.1-4.8-5.3-4.3-3.9-2.6-1.7-1.1-5-2.7-.8-.4-6-2.6h-.3c0-.1-1.3-.5-1.3-.5l-4.5-1.4-1.5-.3-1.4-.3-3.5-.7-2.9-.3h-1.3c0-.1-2.3-.4-2.3-.4h-6.3c0,0-.3,0-.3,0l-6.8.6h-.2s-6.7,1.2-6.7,1.2l-1.3.4-5.6,1.5-2.6.9-4.5,1.5-7.1,3-7.1,3.6-7.2,4.2-7.2,4.7-7.2,5.2-7.1,5.7-7.1,6.2-7,6.6-6.9,7-6.8,7.3-1.6,1.8-5.1,5.8-2.8,3.3-3.8,4.6-3.9,4.9-1.3,1.7-1.2,1.5-4.9,6.5-1.3,1.7h0s-5.9,8.2-5.9,8.2l-.2.2-1.1,1.6-4.8,6.9-.9,1.3-1.2,1.8-3.6,5.4-1.9,2.9-1.1,1.8-2.4,3.8-3.8,6.2-1.4,2.2-4.5,7.7-.4.7-4.6,8.2-4.4,8-4.1,7.8-3.8,7.5-3.4,7.1-3.1,6.8-2.8,6.4-2.5,5.9-2.1,5.5-1.8,5-1.4,4.5-1,3.7v.2c0,0-.8,3.3-.8,3.3v.4c0,0-.4,2.3-.4,2.3v.7s0,1.4,0,1.4l.2.7v.3c0,0,.2.4.2.4.1.2.3.5.4.7,0,0,.1.1.2.2,0,0,0,0,0,0l1.1.2h0s1.3-.4,1.3-.4l.5-.3,1.2-.7.9-.7,1.2-.9,2.4-2.3,2.8-2.9,3.1-3.5,3.4-4,3.7-4.6,4-5.1,4.3-5.6,4.6-6,4.9-6.5,5.1-6.9,5.4-7.2,2.9-3.9,2.7-3.6,4.1-5.5,1.7-2.3,5.3-7.1.7-.9.6-.8,5.6-7.4.5-.6,1.3-1.8,4.6-6,1.7-2.1,1.4-1.8,3.5-4.5,2.9-3.7,1.4-1.8,2.4-3,4.2-5.3,1.5-1.8,1.1-1.4,6.9-8.5v-.2c.1,0,7-8.2,7-8.2l1.4-1.7,5.6-6.6,7.1-8.1,7.1-7.8,7.2-7.6,7.2-7.2,7.1-6.9,7.1-6.5,7.1-6.1,7-5.6,6.9-5.1,6.8-4.6.5-.3,6.2-3.8,1.6-.9,4.9-2.6,2.8-1.3,3.6-1.6,3.8-1.4,1.3-.5,1.1-.4,4.8-1.3,1.1-.3h0s5.5-1,5.5-1h.3c0,0,1.1-.1,1.1-.1l4.5-.4h1.8c0,0,3.5.2,3.5.2l2.8.5,2.3.4,3.6,1.1,1.2.4,4.6,2.1,4.3,2.7,4,3.3,3.7,3.9,3.4,4.4,3.1,4.9,2.8,5.4,2.4,5.9,2.1,6.4,1.7,6.8,1.4,7.1.8,5.9.2,1.5.7,7.7h0c0,0,.3,7.8.3,7.8v.3s0,8.2,0,8.2v2.6c-.1,0-.2,1.9-.2,1.9l-.2,3.9-.4,4.6-.2,1.8-.2,2.1-.8,6-.3,1.9v.5c0,0-1.5,8.5-1.5,8.5l-.2,1-1.6,7.4-.6,2.5-1.5,5.9-1.2,4-1.3,4.3-2.8,8.1-3.1,7.9-3.5,7.6-3.8,7.3-4.1,7-4.4,6.6-4.6,6.2-4.9,5.7-5.2,5.3-5.4,4.8-2,1.5-3.7,2.7-3.2,2-2.7,1.7-4.3,2.2-1.2.6-.5.2-5.6,2.2-.6.2-.8.2-5.6,1.6h-.4c0,0-1.5.4-1.5.4l-4.6.9-2.1.2h-1.4c0,.1-3.2.4-3.2.4h-4.8s-2.1,0-2.1,0l-5.7-.6h-1.2c0-.1-7-1.4-7-1.4h-.4c0-.1-6.7-1.9-6.7-1.9l-7.1-2.5-7.2-3.1-7.2-3.7-7.2-4.3-7.1-4.8-7.1-5.3-7-5.8-7-6.2-6.9-6.6-6.8-7-6.6-7.4-.6-.6-5.9-7-1.7-2.1-4.6-5.8-2.8-3.7-1.3-1.7-2.1-2.7-3.8-5.3-1.3-1.8-.9-1.3-4.7-6.9-1-1.5-.2-.3-5.4-8.2h0s-1.1-1.8-1.1-1.8l-4.2-6.7-2-3.4-3-5.1-2.8-4.9-2-3.5-4.5-8.3-4.2-8.2-4-8-3.6-7.7-3.4-7.4-3-7.1-2.7-6.7-2.4-6.3-2-5.9-1.7-5.4-1.3-4.9-.6-2.8-.4-1.6-.5-3.1v-.7c-.1,0-.3-2.9-.3-2.9v-.4s0-2.6,0-2.6v-.4c0,0,.2-.4.2-.4l.3-1.2.3-.5.2-.3.3-.6.7-.4h.2c0-.1.3-.3.3-.3.4-.2.9-.2,1.4-.2,0,0,0,0,.1,0l1.9.5.3.2,1.9.9.8.5,1.8,1.2,2.9,2.3,3.2,3,3.5,3.5,3.8,4.1,4.1,4.6,4.4,5.2,4.7,5.6,5,6.1,5.2,6.5,5.5,6.9,5.7,7.3,2.1,2.8,3.8,4.8,3.3,4.3,2.7,3.5,4.6,5.9,1.4,1.7.3.4,5.9,7.6.5.7.9,1.1,5.7,7.3.7.9,1.4,1.8,4.6,5.8,1.9,2.4,1.5,1.8,3.4,4.3,4.7,5.8,2.2,2.7,6.1,7.3.9,1.1,7.1,8.4,7.1,8.2,7.2,8,7.2,7.8,7.2,7.5,7.1,7.2,7.1,6.8,7,6.4,7,6,6.9,5.5,6.8,5,6.1,4.1.6.4,6.5,4,.6.3,5.7,3.1,1.8.8,1.3.6,3,1.4,2.8,1,1.2.5,1.9.7,3.9,1.1,1.1.3.8.2,4.5.8.9.2h.1s5.3.4,5.3.4h.6"/>
          <path class="cls-3" d="M34.5,295c0,0,0-.2,0-.3,0,0,0-.2,0-.3l.2-1.2h0c0,0,0-.3,0-.3l.5-1.7.2-.6.7-1.9.6-1.4.7-1.7,1.6-3.7,2-4.2,2.3-4.8,2.7-5.3,3-5.8,3.3-6.2,3.6-6.6,3.9-7,4.2-7.4,4.5-7.6,4.8-7.9,2.5-4,2.6-4.1,3.6-5.6,1.7-2.6,4.8-7.3.8-1.1.4-.6,5.3-7.8.3-.4,1.3-1.8,4.4-6.3,1.4-2,1.3-1.8,3.4-4.8,2.6-3.5,1.3-1.8,2.4-3.1,3.9-5,1.4-1.8,1.2-1.6,6.6-8.1h0s6.8-8,6.8-8l1.2-1.4,5.6-6.3,7-7.4,7-7.1,7.1-6.7,7.1-6.3,7.2-5.9,7.2-5.4,7.2-4.9,7.1-4.4,7.1-3.8,7-3.2h.3c0,0,6.7-2.7,6.7-2.7l1.6-.5,5.3-1.6,2.8-.6,3.9-.8,4-.5h1.2c0-.1,1.4-.3,1.4-.3l6.4-.2h.2s6,.4,6,.4h0s1.1.2,1.1.2l4.9.9.9.3,1.2.3,3.8,1.1,3.1,1.3,2.6,1.1,3.9,2.1,1.5.8,5.2,3.5,4.9,4.1,4.7,4.6,4.4,5.1,4.1,5.6,3.8,6.1,3.5,6.5,3.2,6.9,2.9,7.2,2.5,7.6,2.2,7.8,1.4,6.3.4,1.8,1.4,7.9v.4c0,0,1.2,8.4,1.2,8.4v1.3c.1,0,.3,1.8.3,1.8l.5,5.4v2.8c.1,0,.2,1.9.2,1.9l.2,3.8v6.2c0,0,0,2.3,0,2.3l-.2,5.9v2c0,0,0,.6,0,.6l-.6,8.4v.9c-.1,0-1,7.4-1,7.4l-.4,2.2-1,5.8-.8,3.6-.9,4.2-2,7.5-2.4,7.2-2.7,6.8-3.1,6.5-3.4,6-3.7,5.6-4,5.1-4.3,4.5-4.6,4-4.8,3.4-1.7.9-3.4,1.9-2.7,1.1-2.6,1.1-4,1.1-1.1.3h-.5c0,.1-4.9,1-4.9,1h-.8c0,.1-.2.1-.2.1l-5.8.4h-1.3c0,0-4.9-.3-4.9-.3l-1.7-.2-1.2-.2-3.5-.5-2.7-.6-1.5-.3-2.4-.6-5.6-1.8-1.1-.4-6.8-2.8h-.1c0,0-6.8-3.4-6.8-3.4l-7-3.9-7-4.5-7.1-5-7.1-5.5-7.2-6-7.2-6.4-7.1-6.8-7.1-7.2-7.1-7.5-7-7.8-6.9-8-.4-.5-6.4-7.7-1.6-2-5.1-6.3-2.8-3.6-1.4-1.8-2.4-3-3.9-5.2-1.3-1.8-1.1-1.5-4.9-6.8-1.3-1.7h0c0,0-5.9-8.3-5.9-8.3v-.2c-.1,0-1.2-1.6-1.2-1.6l-4.7-6.8-2.1-3.1-3.5-5.2-3-4.6-2.4-3.5-5.2-7.9-4.9-7.6-4.6-7.3-4.4-6.9-4.1-6.6-3.8-6.2-3.4-5.7-3.1-5.2-2.8-4.7-2.5-4.1-2.1-3.6-1.1-1.9-.7-1.2-1.2-1.9-.3-.5-1-1.7h0c0,0-.1-.3-.1-.3l-.6-1s0,0,0,0c0,0,0-.1,0-.2-.1-.2-.2-.4-.2-.3,0,.2,0,.4,0,.5,0,0,0,.1,0,.2,0,0,0,.1.1.2l.5,1,.2.3h0s1.1,2,1.1,2v.3c.1,0,1.4,2.3,1.4,2.3l.5,1,1.2,2.2,2.1,3.8,2.4,4.3,2.8,4.9,3.1,5.4,3.4,5.8,3.7,6.3,4,6.7,4.3,7.1,4.6,7.4,4.9,7.7,5.1,7.9,1.9,2.8,3.5,5.4,2.9,4.4,2.6,3.9,4.1,6,1.2,1.8.4.7,5.4,7.6.6.9.7.9,5.5,7.6.5.7,1.3,1.8,4.5,6,1.7,2.2,1.4,1.8,3.4,4.4,4.4,5.5,2.3,2.8,5.7,6.9,1.1,1.3,6.9,7.9,7,7.7,7.1,7.4,7.1,7.1,7.2,6.7,7.2,6.3,7.2,5.8,7.1,5.4,7.1,4.8,7.1,4.3,7,3.8,6.1,2.8.8.4,6.8,2.6.5.2,6.2,1.8,1.7.3,1.5.3,3.4.7,3,.3h1.2c0,.1,2.1.4,2.1.4h5.6c0,0,.6,0,.6,0l4.8-.4h1.2c0-.1.3-.2.3-.2l5.5-1.1h0s1.1-.4,1.1-.4l4.4-1.4,2.1-.9,3.3-1.5,2.9-1.7,2.2-1.3,4.9-3.6,4.6-4.2,4.3-4.7,4-5.2,3.7-5.7,3.4-6.2,3.1-6.6,2.8-7,2.4-7.3,2.1-7.6.8-3.5,1-4.4.9-5.2.5-2.9.8-6.7.2-1.6.7-8.3h0c0,0,0-2,0-2l.2-6.3v-.3s0-8.5,0-8.5v-2.8c-.1,0-.2-1.9-.2-1.9l-.2-3.8-.4-4.6-.2-1.8-.2-2.1-1-7.9v-.5c0,0-1.5-8.2-1.5-8.2l-.2-1-1.6-7-2.2-7.8-2.5-7.5-2.8-7.1-3.2-6.8-3.5-6.4-3.8-5.9-4.1-5.5-4.4-5-4.6-4.5-4.9-3.9-5.2-3.3-1-.5-4.4-2.3-2-.8-3.6-1.4-3.3-.9-1.3-.3-1.3-.3-4.4-.6-1.1-.2h-.6c0,0-6.2-.4-6.2-.4h-.5s-5.9.4-5.9.4h-.8c0,.1-1.2.3-1.2.3l-4.5.7-3.1.8-3.6.9-4.6,1.5-2.2.7-5.9,2.4-1,.4-7,3.4-7.1,4-7.1,4.6-7.1,5.1-7.2,5.6-7.2,6-7.1,6.5-7.1,6.9-7.1,7.2-7,7.5-5,5.7-1.9,2.2-6.1,7.3-.6.7-6.7,8.2-.6.8-1.4,1.8-4.5,5.8-1.8,2.3-1.3,1.8-3.2,4.3-2.8,3.9-1.3,1.8-2,2.8-3.9,5.5-1.3,1.8-.9,1.2-4.8,7-1,1.5-.2.3-5.3,8-1.2,1.8-4.1,6.4-2.1,3.3-3,4.8-4.8,7.8-4.5,7.6-4.3,7.2-4,6.9-3.7,6.5-3.4,6.1-3,5.6-2.7,5.1-2.4,4.6-2,4.1-1.7,3.5-.6,1.4-.7,1.5-.6,1.5-.3.8-.5,1.4v.2c-.1,0-.1,0-.1,0l-.3,1.1v.3"/>
          <path class="cls-3" d="M34.5,295s0,0,0,0"/>
          <path class="cls-3" d="M278.1,295.1l-4.6-.5h-.7c0,0-.5-.2-.5-.2l-5-1h-.3c0-.1-1.1-.5-1.1-.5l-4.3-1.3-1.3-.5-1.2-.5-3.4-1.4-2.5-1.2-1.3-.6-2.4-1.1-5.1-2.9-1.2-.7-6.4-4.1h0s-6.6-4.7-6.6-4.7l-6.7-5.2-6.9-5.7-7-6.1-7-6.6-7.1-6.9-7.1-7.3-7.2-7.6-7.2-7.9-7.2-8.1-7.1-8.3-7.1-8.4-.3-.3-6.8-8.1-1.5-1.9-5.4-6.6-2.8-3.5-1.4-1.8-2.6-3.2-4-5-1.4-1.8-1.3-1.7-5.1-6.5-1.4-1.7h-.1c0-.1-6.2-8-6.2-8l-.3-.4-1.1-1.4-5.2-6.7-2.2-2.8-3.9-5-3.2-4-2.7-3.5-5.7-7.2-5.5-6.8-5.2-6.4-5-6-4.7-5.5-4.5-5-4.2-4.5-3.9-3.9-3.6-3.4-3.2-2.8-2.9-2.2-1.6-.9-1-.6-1.7-.7-.6-.2-1.9-.3c-.1,0-.2,0-.3,0-.4,0-.9.1-1.2.3l-.2.2-.2.2-.8.6-.3.5-.2.4-.4.7-.2,1.1v.5c-.1,0-.2.6-.2.6v2.2c-.1,0-.1.6-.1.6l.2,3.4v.5c0,0,.6,3.5.6,3.5l.2,1.2.7,3.4,1.3,5.1,1.6,5.5,2,6,2.3,6.4,2.7,6.8,3,7.2,3.3,7.5,3.6,7.8,3.9,8,4.2,8.2,4.5,8.4,1.5,2.7,3.2,5.8,2.5,4.3,2.5,4.2,3.6,5.9,1.1,1.8.5.8,4.8,7.4.7,1.1.5.7,5.3,7.7.3.5,1.3,1.7,4.4,6,1.5,1.9,1.3,1.7,3.4,4.4,4,5,2.3,2.9,5.3,6.2,1.2,1.4,6.6,7.3,6.8,6.9,6.9,6.5,7,6.1,7,5.6,7.1,5.1,7.1,4.6,7.2,4.1,7.2,3.5,7.2,2.9,7.1,2.3,6.1,1.5,1,.2,7,1.1h.1s6.8.5,6.8.5h2.9c0,0,4-.2,4-.2l2.8-.3,1.4-.2,2.6-.3,4-.9,1.5-.3,1.2-.2,5.1-1.6,1.3-.4h0s6.1-2.6,6.1-2.6h.1s1.1-.7,1.1-.7l4.9-2.6,2.2-1.4,3.7-2.4,3.1-2.4,2.5-2,5.4-4.9,5.2-5.4,5-5.9,4.7-6.3,4.4-6.7,4.1-7.1,3.8-7.4,3.5-7.7,3.2-8,2.9-8.2,1.1-3.5,1.5-4.8,1.3-5.1.9-3.4,1.5-6.7.4-1.8,1.4-8.2v-.4c0,0,.3-1.5.3-1.5l1-6.9v-1.3c.1,0,.3-1.8.3-1.8l.5-5.3v-2.8c.1,0,.2-1.8.2-1.8l.2-3.6v-5.9c0,0,0-2.2,0-2.2l-.3-7.5v-.4s-.6-7.7-.6-7.7v-.8c-.1,0-1-6.5-1-6.5l-1.3-7-1.7-6.6-2-6.2-2.4-5.8-2.7-5.3-3-4.8-3.4-4.2-3.7-3.7-4-3.1-4.3-2.5-4.5-1.9-.7-.2-4.1-1.1-1.9-.2-3.2-.4h-4.1s-1.2,0-1.2,0l-3.6.4-1.5.2h-.4c0,0-5.2,1.2-5.2,1.2h-.5c0,.1-.7.3-.7.3l-5.3,1.7-.4.2-1.3.5-4.5,1.8-3,1.4-3.4,1.6-4.2,2.4-2.3,1.3-5.6,3.5-1.1.7-6.8,4.8-6.9,5.3-7,5.8-7.1,6.2-7.1,6.6-7.1,7-7.2,7.4-7.2,7.6-7.2,7.9-7.1,8.1-4.9,5.8-2.1,2.5-6.2,7.4-.8,1-6.9,8.5-.5.6-1.4,1.8-4.9,6.1-1.7,2.2-1.4,1.8-3.6,4.5-2.9,3.7-1.4,1.8-2.3,3-4,5.2-1.4,1.8-1.1,1.4-5,6.6-1.2,1.6h0c0,.1-6,8-6,8l-1.2,1.6-4.7,6.2-2.2,2.9-3.5,4.6-5.4,7.1-5.2,6.8-4.9,6.4-4.6,5.9-4.4,5.4-4.1,4.9-3.8,4.4-3.5,3.9-3.1,3.3-2.8,2.7-2.5,2.1-.9.6-1.2.8-1.1.5-.7.3c-.5.1-1,.2-1.4.2h0s-1-.4-1-.4h0c0,0-.1-.1-.2-.2-.2-.2-.4-.6-.6-.9v-.3c0,0-.1-.4-.1-.4l-.2-1v-.8s0-1.5,0-1.5l.2-2.1v-.9c.1,0,.8-3.4.8-3.4h0c0-.1,1-4.2,1-4.2l1.4-4.6,1.8-5.1,2.1-5.6,2.4-6.1,2.8-6.5,3.1-6.9,3.4-7.2,3.7-7.6,4-7.8,4.3-8.1,4.6-8.2h0c0,0,4.9-8.5,4.9-8.5l.9-1.4,4.3-7,1.9-3,1.1-1.8,2.4-3.7,3-4.6,1.2-1.8,1.4-2.1,4.2-6.1,1.2-1.8.4-.6,5.4-7.6.6-.8.7-.9,5.5-7.3.6-.7,1.4-1.7,4.5-5.6,3.2-3.8,3.4-4,4.5-5,2.2-2.5,6.8-7.2,6.9-6.8,7-6.5,7.1-6,7.1-5.6,7.1-5.1,7.2-4.6,7.2-4,7.1-3.4,7.1-2.9,3.8-1.2,3.3-1,5.1-1.2,1.9-.4,6-.9h.9c0-.1,6.8-.5,6.8-.5h1.1s5.6.3,5.6.3l1.8.2,1.3.2,3.4.5,2.8.7,1.4.3,2.2.5,4,1.4,1.3.5.9.3,6,2.8h.2c0,.1,5.6,3.3,5.6,3.3l1.2.8,4.4,3.1,5.4,4.5,5.1,5,4.9,5.5,4.6,6,4.3,6.4,4,6.8,3.7,7.2,3.4,7.5,3.1,7.8,2.8,8,2.4,8.2.6,2.3,1.5,6.1.8,3.8,1,4.6.9,5.5.3,1.7.2,1.3.8,6.9.2,1.6h0c0,0,.7,8.5.7,8.5h0c0,0,0,2,0,2l.2,6.1v.3s0,8.3,0,8.3l-.2,4.5-.2,3.6-.6,6-.2,1.8-1,7.3v.3c0,0-1.5,7.3-1.5,7.3l-1.8,7-2.2,6.6-2.5,6.2-2.8,5.7-3.2,5.2-3.5,4.7-3.8,4.2-4.1,3.6-4.4,3-3.8,2-.8.4-4.8,1.8h-.1s-5.2,1.2-5.2,1.2h-1.1c0,.1-1.4.2-1.4.2l-2.9.3h-3.3s-2.3,0-2.3,0l-3.1-.4-1.2-.2-1.5-.2-4.5-1-1.4-.3h-.2s-5.8-1.8-5.8-1.8l-.5-.2-.8-.3-5.6-2.3-2.1-1-4.5-2.2-3.3-1.8-3.4-1.9-6.8-4.3-6.9-4.8-7-5.3-7.1-5.8-7.1-6.3-7.1-6.7-7.2-7.1-7.2-7.4-7.1-7.7-7.1-7.9-7.1-8.1-3.8-4.6-3.1-3.7-5.1-6.2-1.8-2.2-6.2-7.8-.6-.7-.9-1.1-5.8-7.4-.7-.9-1.4-1.8-4.5-5.8-1.8-2.4-1.3-1.8-3.2-4.2-2.9-3.9-1.3-1.8-2-2.7-5.2-7-.8-1.1-5.8-7.9-.3-.4-5.3-7.3-5.3-7.4-5.1-7.1-4.8-6.7-4.5-6.3-4.3-5.8-4-5.4-3.7-4.9-3.3-4.3-3-3.8-2.7-3.2-2.4-2.6-.2-.2-1.8-1.8-.5-.4-1.2-1-.7-.4h-.2c0-.1-.4-.4-.4-.4-.3-.1-.6-.2-.8-.1,0,0,0,0-.1,0l-.5.4h-.1c0,.1,0,.2,0,.2-.1.3-.2.5-.2.8,0,0,0,.2,0,.2v1.8c0,0,.2.5.2.5v.5c0,0,.4,1.4.4,1.4l.5,1.8.3,1.3.9,2.8.2.8,1.5,4.2,1.9,4.7,2.2,5.2,2.5,5.7,2.9,6.1,3.2,6.6,3.5,7,3.8,7.3,4.1,7.6,4.4,7.9,4.7,8.1,4.1,6.9.8,1.4,5.2,8.4h0c0,.1,5.4,8.5,5.4,8.5l1.1,1.7,1.2,1.8,3.3,5,2.2,3.3,1.2,1.8,2.4,3.5,3.4,4.8,1.3,1.8,1.3,1.9,4.7,6.3,1.3,1.8.2.3,6.4,8.2,1,1.2,5.6,6.8,2.2,2.6,4.5,5.2,6.8,7.5,6.9,7.2,7,6.8,7.1,6.4,7.1,6,7.2,5.5,7.2,5,7.2,4.5,7.1,3.9,7.1,3.4,7,2.8,2.7.8,4.3,1.3,4,.9,2.9.6,5,.7,1.2.2h.6c0,0,6.6.4,6.6.4h.6s5.9-.4,5.9-.4h.9c0-.1,1.2-.3,1.2-.3l4.2-.7,1.8-.5,1.3-.3,3.1-.8,2.9-1.1,1.3-.5,1.8-.7,5-2.5.7-.3,5.5-3.4.4-.3,4.9-3.7,5-4.5,4.8-5.1,4.5-5.6,4.2-6,3.9-6.4,3.6-6.9,3.3-7.2,3-7.5,2.7-7.8,2.1-7.4.2-.6,2-8.2.2-.9,1.4-7.4.4-2.5.9-6,.4-4.2.2-1.8.3-2.5.4-5.7v-1.6c.1,0,.2-1.2.2-1.2l.2-7.2v-1.3s-.1-8.4-.1-8.4v-.6s-.1-1.5-.1-1.5l-.4-6.1-.4-3.3-.5-4.8-.8-4.8-.5-3-1.6-7.6-1.9-7.3-2.3-6.9-2.6-6.5-2.9-6.1-3.3-5.6-3.6-5.1-3.9-4.6-4.2-4.1-4.5-3.5-4.7-2.9-3.3-1.6-1.7-.8-4.4-1.4-.8-.3-5.4-1.1h0s-1.4-.1-1.4-.1l-4.3-.3h-2.2c0,0-3.7.2-3.7.2l-2.4.3-1.2.2-2.5.3-3.6.8-1.4.3-1.2.3-6.4,2h0s-6.6,2.7-6.6,2.7l-1.1.6-5.6,2.7-2.4,1.3-4.5,2.5-7,4.4-7,4.9-7.1,5.4-7.1,5.9-7.2,6.3-7.2,6.7-7.2,7.1-7.1,7.4-7.1,7.7-7,8-1.5,1.8-5.5,6.4-2.7,3.3-4.1,5-3.9,4.9-1.4,1.8-1.4,1.8-5.1,6.5-1.4,1.8-.2.2-6.1,8.1-.3.4-1,1.4-5.3,7.1-.8,1.1-1.3,1.8-4,5.5-1.9,2.6-1.2,1.8-2.8,3.9-4.1,5.8-1.6,2.3-4.9,7.1-.6.8-5.2,7.6-5,7.4-4.7,7-4.4,6.6-4.2,6.2-3.9,5.8-3.6,5.3-3.2,4.8-2.9,4.2-2.6,3.7-2.2,3.1-1.8,2.4h-.1c0,.1-1.6,2-1.6,2h-.1c0,.1-1.1,1.3-1.1,1.3,0,0-.2.2-.3.3,0,0-.1.1-.2.1-.1,0-.2.2-.4.2h-.5s0,0,0,0"/>
          <line class="cls-3" x1="278.1" y1="295.1" x2="278.2" y2="295.1"/>
          <polyline class="cls-3" points="194.6 67.5 201.7 66.3 203.3 66.2 208.7 65.8 215.7 65.8 219.5 66.2 220.9 66.4 222.6 66.5 227.7 67.6 229.2 67.9 229.3 67.9 235.6 69.7 235.9 69.8 236.9 70.2 242.4 72.4 243.2 72.8 244.5 73.5 248.7 75.5 251.9 77.5 254.9 79.3 259.1 82.3 260.8 83.6 266.6 88.4 272.1 93.7 277.4 99.6 282.4 105.8 287.2 112.5 291.7 119.5 295.9 126.9 299.8 134.6 303.4 142.5 306.7 150.7 309.7 159 311.7 165.3 312.4 167.4 314.5 175.3 314.7 175.9 316.6 184.4 316.8 185.5 317.2 187.3 318.2 192.9 318.6 195.5 318.9 197.3 319.5 201.4 320 205.5 320.2 207.3 320.5 209.7 320.8 215.2 320.9 216.6 321 217.8 321.2 225.8 321.1 233.5 320.9 235.4 320.5 240.9 320.2 243.8 319.7 247.9 318.5 254.6 316.9 260.9 315 266.8 312.7 272.1 310.1 277 307.2 281.3 303.9 285.1 300.3 288.3 296.5 290.9 292.3 292.9 290.9 293.3 287.8 294.3 285.4 294.6 283.1 295 278.2 295.1"/>
          <polyline class="cls-3" points="185 66 186.4 66.2 192.1 67 194.6 67.5 194.6 67.5 199.2 68.6 203.2 69.8 204.7 70.2 206.3 70.8 211.4 72.8 213 73.4 213.3 73.6 219.7 76.7 220.2 76.9 221.1 77.5 227 80.9 227.7 81.4 229.1 82.3 233.7 85.4 236.9 87.9 240.2 90.4 244.5 94.2 246.6 96 252.8 102 258.8 108.4 264.6 115.2 270.2 122.4 275.6 129.9 280.7 137.7 285.5 145.7 290.1 153.9 294.5 162.3 298.5 170.7 302.2 179.2 304.7 185.5 305.6 187.8 308.5 195.5 308.7 196.2 311.5 204.6 311.7 205.4 312.2 207.2 313.9 212.9 314.5 215.2 315 217 316 221 316.8 224.6 317.2 226.3 317.7 228.8 318.7 233.9 319 235.4 319.1 236.4 320.2 243.7 320.2 243.8 320.9 250.6 320.9 252.3 321.2 257.2 321.1 263.3 320.8 268.9 320 274.1 318.9 278.8 317.5 282.9 315.7 286.4 313.5 289.4 311 291.8 308.2 293.5 305.1 294.6 301.6 295.1 297.8 295 296 294.6 293.8 294.2 290.9 293.3 289.9 293 289.4 292.8 285.5 291.1 284.8 290.8 284.5 290.7 279.8 288.2 279.7 288.1 278.6 287.4 274.7 285 273.6 284.2 272.5 283.4 269.3 281.2 267.1 279.5 265.9 278.6 263.6 276.8 259.1 273 257.8 271.9 251.9 266.7 251.7 266.5 245.5 260.7 239.1 254.4 232.5 247.6 225.9 240.6 219 233.1 212.1 225.4 205.1 217.5 198.1 209.3 190.9 201 183.8 192.6 176.6 184.1 169.4 175.5 169.3 175.4 162.3 167 160.9 165.4 155.2 158.6 152.5 155.4 151 153.7 148.2 150.3 144.2 145.7 142.7 144 141.2 142.2 136 136.2 134.6 134.6 134.3 134.3 128 127.1 127.5 126.6 126.6 125.5 120.9 119.2 118.7 116.9 114.4 112.2 111.1 108.8 108 105.5 101.9 99.3 95.9 93.5 90.1 88.2 84.5 83.4 79.2 79.1 74.1 75.4 69.3 72.3 64.8 69.7 60.5 67.8 56.5 66.5 52.9 65.8 49.5 65.8 47.3 66.2 46.5 66.4 43.9 67.5 43.8 67.6 43.4 67.9 41.4 69.4 41.1 69.7 40.7 70.2 39.3 71.9 38.8 72.8 38.5 73.5 37.7 75 37 76.7 36.7 77.5 36.3 78.6 35.7 81.4 35.5 82.3 35.3 82.8 34.7 87.5 34.7 87.6 34.4 92.8 34.5 98.5 35 104.7 35.8 111.3 36.9 118.3 38.5 125.6 40.3 133.2 42.5 141.1 45.1 149.2 47.9 157.5 51.2 165.9 54.7 174.4 58.5 182.9 59.7 185.5 62.6 191.4 64.7 195.5 67 199.9 70.1 205.4 71.1 207.2 71.7 208.2 75.9 215.2 76.7 216.4 77 216.9 81.9 224.4 82 224.7 83.2 226.3 87.3 232.1 88.6 233.8 89.8 235.3 93 239.6 96.6 244 98.9 246.7 103.7 252.1 104.9 253.5 111.2 259.9 117.6 265.8 124.2 271.2 130.9 276.2 137.8 280.6 144.7 284.5 151.7 287.8 158.8 290.5 165.9 292.6 173.1 294.1 180.2 294.9 187.4 295.1 194.5 294.7 195 294.7 201.6 293.7 203.1 293.3 204.5 293 208.7 292 211.5 291.1 212.9 290.6 215.6 289.7 219.6 288.1 221 287.5 222.5 286.8 227.7 284.2 229.2 283.4 229.2 283.4 235.6 279.5 235.9 279.3 236.9 278.6 242.4 274.7 244.5 273 248.7 269.6 251.9 266.7 254.8 264 260.8 258 266.5 251.5 272 244.6 277.3 237.4 282.4 229.8 287.1 222 291.6 213.9 295.9 205.7 299.8 197.3 303.4 188.9 304.7 185.5 306.7 180.3 308.4 175.4 309.7 171.8 311.7 165.3 312.3 163.4 314.5 155.5 314.6 155 315 153.7 316.6 146.8 316.8 145.7 317.2 143.9 318.2 138.7 318.6 136.2 318.9 134.6 319.5 130.9 320 127.1 320.2 125.4 320.4 123.4 320.9 117.1 321 116.1 321.2 109.2 321.1 102.8 320.5 96.7 319.7 91.1 318.5 86 316.9 81.5 315 77.4 312.7 74 310.1 71.1 307.2 68.8 303.9 67.2 300.4 66.1 296.5 65.7 292.3 66 290.9 66.2 287.9 66.8 285.6 67.6 284.5 67.9 283.1 68.3 279.7 69.8 278.6 70.2 278.1 70.4 273.6 72.8 272.9 73.2 272.4 73.4 267.4 76.5 267.1 76.7 265.9 77.5 261.7 80.4 259.1 82.3 255.8 84.8 252 87.9 249.7 89.8 244.5 94.2 243.4 95.2 236.9 101.2 230.3 107.5 223.6 114.3 216.7 121.4 209.8 128.9 202.8 136.7 195.7 144.6 188.5 152.8 181.4 161.2 174.2 169.6 169.3 175.4 167.1 178.1 160.9 185.5 159.9 186.6 152.8 195.1 152.5 195.5 151 197.3 145.8 203.5 144.2 205.4 142.7 207.2 138.9 211.8 136 215.2 134.6 216.9 132 219.9 128 224.6 126.6 226.3 125.3 227.8 120.1 233.8 118.7 235.4 118.7 235.4 112.2 242.8 111.1 244 105.9 249.7 103.7 252.1 99.8 256.3 93.9 262.5 88.2 268.2 82.7 273.5 77.5 278.2 72.5 282.4 67.8 286 63.3 289 59.1 291.5 55.2 293.3 51.7 294.5 48.4 295.1 45.5 295 44 294.7 42.9 294.4 41.1 293.3 40.7 293 38.8 291.2 38.7 291.1 38.5 290.7 37.2 288.6 37 288.1 36.7 287.4 35.9 285.4 35.7 284.1 35.5 283.3 35.1 281.7 34.7 278.6 34.6 277.4 34.4 272.6 34.7 267.3 35.2 261.5 36.1 255.2 37.4 248.5 39.1 241.5 41 234.1 43.4 226.4 46 218.5 49 210.4 52.3 202.1 55.9 193.7 59.7 185.5 59.8 185.2 64.1 176.6 64.7 175.4 68.6 168.1 70.1 165.4 71.2 163.6 73.3 159.7 75.9 155.4 77 153.7 78.4 151.4 82.1 145.7 83.2 144 83.7 143.2 88.5 136.2 89.2 135.3 89.7 134.6 94.9 127.6 95.3 127.1 96.6 125.5 100.9 120.2 103.7 116.9 107 113.1 111.1 108.8 113.4 106.4 119.8 100.1 126.5 94.2 133.2 88.8 140.1 84 147 79.6 154.1 75.8 161.2 72.6 168.3 70 175.5 68 182.6 66.6 186.4 66.2 189.8 65.9 196.9 65.8 203.3 66.2 204 66.3 211 67.4 211.5 67.5 212.9 67.9 218 69.2 219.6 69.8 221.1 70.3 224.8 71.5 227.7 72.8 229.1 73.5 231.5 74.5 235.5 76.7 236.9 77.5 238.1 78.1 244.5 82.2 244.6 82.3 250.8 86.9 252 87.9 256.8 92.1 262.7 97.7 268.4 103.9 273.8 110.4 279 117.4 284 124.6 288.7 132.2 293.1 140.1 297.2 148.2 301 156.4 304.5 164.8 307.7 173.3 308.4 175.4 310.6 181.8 311.7 185.5 313.1 190.3 314.5 195.5 315 197.3 315.3 198.8 316.8 205.5 317.2 207.1 317.2 207.2 318.7 215.1 318.7 215.4 318.9 216.9 319.9 223.4 320 224.7 320.2 226.3 320.7 231.2 320.9 235.4 321.1 238.7 321.2 245.8 320.9 252.3 320.9 252.6 320.3 259.1 319.3 265 318 270.6 316.3 275.6 314.2 280.1 311.9 284 309.2 287.4 306.1 290.2 302.8 292.4 299.1 293.9 296 294.6 295.1 294.8 290.9 295.2 286.3 294.8 285.4 294.6 284.5 294.5 281.5 293.9 279.9 293.3 278.8 293 276.4 292.3 273.6 291.1 272.4 290.6 271.1 290.1 267.2 288.1 265.9 287.5 265.5 287.3 260.3 284.2 259.7 283.9 259 283.4 253.7 279.9 252 278.6 247.6 275.4 244.5 273 241.2 270.3 234.7 264.8 228.1 258.8 221.3 252.4 214.4 245.5 207.4 238.3 200.4 230.8 193.3 223 186.1 215 179 206.8 171.8 198.4 164.7 190 160.9 185.5 157.5 181.5 152.5 175.4 150.5 172.9 144.2 165.4 143.5 164.5 142.7 163.6 136.5 156.1 136 155.4 134.6 153.7 129.7 147.8 128 145.7 126.5 144 123 139.7 120.1 136.2 118.7 134.6 116.5 131.9 111.1 125.5 110.1 124.3 103.9 117 103.7 116.9 97.8 110.1 92 103.6 86.3 97.5 80.9 91.8 75.8 86.7 70.9 82 66.2 77.9 61.9 74.4 57.8 71.4 54 69.1 50.6 67.3 47.4 66.2 47.3 66.2 44.6 65.8 42.1 65.9 41.2 66.2 40.7 66.4 40 66.7 38.8 67.6 38.4 67.9 38.2 68.1 37 69.7 36.7 70.1 36.7 70.2 35.6 72.7 35.6 72.8 35.5 73.4 34.9 76 34.8 76.7 34.7 77.6 34.5 79.8 34.5 84.2 34.7 87.6 34.8 89.1 35.5 94.5 36.5 100.4 37.9 106.7 39.7 113.4 41.8 120.5 44.2 127.9 47 135.6 50.1 143.6 53.5 151.8 57.2 160.1 61.2 168.5 64.7 175.4 65.5 177 70.1 185.5 70.1 185.5 75 194 75.9 195.5 77 197.3 80.1 202.4 82.1 205.4 83.2 207.2 85.5 210.7 88.6 215.2 89.7 216.9 91.1 218.9 95.3 224.7 96.6 226.3 96.9 226.8 102.9 234.5 103.7 235.4 109.1 241.8 111.1 244 115.5 248.8 122.1 255.5 128.7 261.7 135.5 267.5 142.4 272.8 149.4 277.6 156.5 281.9 163.6 285.6 170.7 288.7 177.9 291.2 185 293.1 192.2 294.4 195 294.7 199.3 295.1 206.4 295.1 211.2 294.7 213.1 294.5 213.4 294.5 219.8 293.3 220.3 293.2 221.1 293 227 291.4 227.7 291.2 229 290.6 233.7 288.9 235.5 288.1 236.9 287.4 240.2 285.9 243.2 284.2 244.5 283.4 246.6 282.2 252 278.6 252.8 278 258.8 273.2 259.1 273 264.6 268 270.2 262.2 275.6 256 280.7 249.4 285.6 242.4 290.2 235.1 294.5 227.5 298.5 219.6 302.2 211.4 305.6 203.2 308.5 195.5 308.7 194.8 311.5 186.3 311.7 185.5 313.9 177.7 314.5 175.3 316 169.2 316.8 165.4 317.2 163.6 317.8 160.8 318.7 155.3 318.9 153.6 319.1 152.5 320 145.8 320.2 144.3 320.2 144.2 320.9 136.3 320.9 136.2 320.9 134.3 321.2 128.6 321.1 121.1 320.9 117.1 320.8 114 320 107.2 318.9 100.9 317.5 95 315.6 89.5 313.5 84.6 311 80.2 308.2 76.3 305 73 301.6 70.3 297.8 68.2 293.7 66.8 290.9 66.2 289.4 65.9 284.7 65.7 279.8 66.2 279.5 66.2 278.6 66.4 274.6 67.2 273.6 67.5 272.5 67.9 269.2 68.9 267.1 69.8 265.9 70.3 263.6 71.2 260.4 72.8 259.1 73.4 257.7 74.1 251.9 77.5 251.7 77.6 245.5 81.6 244.6 82.3 239 86.2 236.9 87.9 232.5 91.4 225.8 97 219 103 212.1 109.5 205.1 116.4 198 123.7 190.9 131.2 183.7 139.1 176.6 147.1 169.4 155.4 162.2 163.7 160.9 165.4 155.1 172.2 152.5 175.4 148.1 180.7 144.2 185.5 142.7 187.3 141.1 189.2 136 195.5 134.6 197.3 134.2 197.7 128 205.5 127.5 206.1 126.6 207.2 120.8 214.3 120.1 215.2 118.7 216.9 114.3 222.3 112.4 224.6 111.1 226.3 108 230.2 103.7 235.4 101.8 237.7 96.6 244 95.8 244.9 90 251.8 84.5 258.3 79.2 264.3 74.1 269.9 69.3 275 64.7 279.5 60.5 283.5 56.5 287 52.8 289.9 49.5 292.1 46.4 293.7 44 294.7 43.7 294.8 41.4 295.1 39.3 294.9 38.8 294.6 38.5 294.5 37.6 294 37 293.3 36.7 293 36.3 292.5 35.7 291.1 35.5 290.7 35.3 290.4 34.8 288.1 34.7 287.7 34.7 287.6 34.4 284.3 34.5 280.4 34.7 278.6 35 276 35.8 271 37 265.5 38.5 259.6 40.3 253.2 42.6 246.4 45.1 239.3 48 231.8 51.2 224.1 54.7 216.1 58.5 207.9 62.7 199.5 64.7 195.5 67.1 191.1 70.1 185.5 71.8 182.6 75.9 175.4 76.7 174 77 173.6 81.9 165.6 82.1 165.4 83.2 163.6 87.4 157.2 88.6 155.4 89.7 153.7 93 148.9 95.3 145.7 96.6 144 98.9 140.8 102.4 136.2 103.7 134.6 105 132.9 111.1 125.5 111.3 125.3 117.7 118 118.7 116.9 124.3 111 131 104.4 137.8 98.2 144.8 92.5 151.8 87.3 158.9 82.6 166 78.4 173.1 74.8 180.3 71.8 187.5 69.3 194.6 67.5"/>
        </g>
      </g>
      <path class="cls-6" d="M573.2,73.7l7.1.9,7.1,1.6,7.1,2.2,7,2.8,6.9,3.4,6.8,4,6.7,4.5,6.5,5,6.4,5.5,6.2,6,6,6.4,5.8,6.8,5.6,7.2,5.4,7.5,5.1,7.8,4.9,8,4.6,8.2,4.3,8.4,4,8.5,3.7,8.5,3.4,8.5,3.1,8.5,2.8,8.4,2.4,8.3,2.1,8.1,1.7,7.9,1.4,7.6,1,7.3.7,6.9.3,6.5v6.1s-.4,5.7-.4,5.7l-.7,5.2-1.1,4.7-1.5,4.1-1.8,3.5-2.1,3-2.5,2.4-2.8,1.7-3.1,1.1-3.5.5h-3.8c0-.1-4.1-.9-4.1-.9l-4.4-1.4-4.6-2-4.9-2.6-5.2-3.2-5.4-3.8-5.6-4.4-5.8-4.9-6-5.4-6.2-5.9-6.4-6.3-6.6-6.7-6.7-7.1-6.8-7.4-6.9-7.7-7-8-7.1-8.2-7.1-8.3-7.2-8.4-7.2-8.5-7.2-8.5-7.1-8.5-7.1-8.4-7-8.3-7-8.1-6.9-7.9-6.8-7.7-6.6-7.4-6.5-7-6.3-6.7-6.2-6.2-6-5.8-5.8-5.3-5.6-4.8-5.3-4.3-5.1-3.7-4.8-3.1-4.5-2.5-4.3-1.9-4-1.3-3.7-.7h-3.4s-3,.6-3,.6l-2.7,1.2-2.4,1.8-2,2.5-1.7,3.1-1.3,3.6-1,4.2-.6,4.7-.3,5.3v5.7c0,0,.5,6.2.5,6.2l.8,6.6,1.2,7,1.5,7.3,1.9,7.6,2.2,7.9,2.5,8.1,2.9,8.3,3.2,8.4,3.5,8.5,3.8,8.5,4.1,8.5,4.4,8.4,4.7,8.3,5,8.2,5.2,8,5.4,7.7,5.7,7.5,5.9,7.1,6.1,6.8,6.3,6.4,6.4,5.9,6.6,5.5,6.7,5,6.8,4.4,6.9,3.9,7,3.3,7.1,2.7,7.1,2.1,7.2,1.5,7.2.9,7.2.2,7.1-.4,7.1-1,7-1.7,7-2.3,6.9-2.9,6.8-3.5,6.6-4,6.5-4.6,6.3-5.1,6.1-5.6,5.9-6.1,5.7-6.5,5.5-6.9,5.3-7.2,5-7.5,4.8-7.8,4.5-8.1,4.2-8.2,3.9-8.4,3.6-8.5,3.3-8.5,3-8.5,2.7-8.5,2.3-8.4,2-8.2,1.6-8,1.3-7.8.9-7.5.6-7.2.2-6.9-.2-6.5-.5-6.1-.9-5.6-1.2-5.1-1.6-4.6-1.9-4-2.3-3.5-2.6-2.9-2.9-2.3-3.3-1.7-3.6-1-3.9-.4-4.2.2-4.5.9-4.7,1.5-5,2.1-5.2,2.7-5.5,3.3-5.7,3.9-5.9,4.4-6.1,5-6.3,5.5-6.5,5.9-6.6,6.4-6.7,6.8-6.8,7.1-6.9,7.5-7,7.7-7.1,8-7.1,8.2-7.2,8.3-7.2,8.4-7.2,8.5-7.1,8.5-7.1,8.5-7,8.4-6.9,8.3-6.8,8.1-6.7,7.9-6.6,7.6-6.5,7.3-6.3,7-6.1,6.6-5.9,6.2-5.7,5.7-5.5,5.2-5.2,4.7-5,4.2-4.7,3.6-4.5,3-4.2,2.4-3.9,1.8-3.6,1.2-3.3.6h-2.9c0,0-2.6-.7-2.6-.7l-2.3-1.3-1.9-1.9-1.6-2.5-1.2-3.1-.9-3.7-.5-4.3v-4.8c-.1,0,0-5.3,0-5.3l.6-5.8.9-6.3,1.3-6.7,1.6-7,2-7.4,2.3-7.7,2.7-7.9,3-8.1,3.3-8.3,3.6-8.4,3.9-8.5,4.2-8.5,4.5-8.5,4.8-8.4,5-8.3,5.3-8.2,5.5-8,5.7-7.7,6-7.4,6.1-7.1,6.3-6.7,6.5-6.3,6.6-5.9,6.8-5.4,6.9-4.9,7-4.3,7-3.8,7.1-3.2,7.1-2.6,7.2-2,7.2-1.4,7.2-.8h7.1c0-.1,7.1.4,7.1.4l7,1.1,6.9,1.8,6.8,2.4,6.7,3,6.6,3.6,6.4,4.1,6.3,4.7,6.1,5.2,5.9,5.7,5.7,6.1,5.4,6.6,5.2,6.9,4.9,7.3,4.7,7.6,4.4,7.9,4.1,8.1,3.8,8.3,3.5,8.4,3.2,8.5,2.9,8.5,2.5,8.5,2.2,8.5,1.9,8.4,1.5,8.2,1.2,8,.8,7.8.4,7.5v7.2c0,0-.2,6.8-.2,6.8l-.6,6.4-1,6-1.3,5.5-1.7,5-2,4.5-2.4,3.9-2.7,3.4-3,2.8-3.4,2.2-3.7,1.6-4,.9-4.3.3-4.6-.3-4.8-1-5.1-1.6-5.3-2.2-5.6-2.8-5.8-3.4-6-4-6.2-4.5-6.3-5-6.5-5.5-6.6-6-6.8-6.4-6.9-6.8-7-7.2-7-7.5-7.1-7.8-7.1-8-7.2-8.2-7.2-8.4-7.2-8.5-7.1-8.5-7.1-8.5-7-8.5-6.9-8.4-6.8-8.3-6.7-8.1-6.6-7.8-6.4-7.6-6.2-7.3-6-6.9-5.8-6.5-5.6-6.1-5.4-5.7-5.2-5.2-4.9-4.6-4.6-4.1-4.4-3.5-4.1-3-3.8-2.3-3.5-1.7-3.1-1.1-2.8-.5-2.5.2-2.1.8-1.8,1.4-1.5,2-1.1,2.6-.7,3.2-.4,3.8v4.4s.3,4.9.3,4.9l.7,5.4,1,5.9,1.4,6.3,1.7,6.7,2.1,7.1,2.4,7.4,2.8,7.7,3.1,8,3.4,8.2,3.7,8.3,4,8.4,4.3,8.5,4.6,8.5,4.9,8.5,5.1,8.4,5.4,8.3,5.6,8.1,5.8,7.9,6,7.7,6.2,7.4,6.4,7,6.5,6.6,6.7,6.2,6.8,5.8,6.9,5.3,7,4.8,7.1,4.3,7.1,3.7,7.1,3.1,7.2,2.5,7.2,1.9,7.1,1.3,7.1.7h7.1s7-.6,7-.6l6.9-1.2,6.8-1.9,6.7-2.5,6.5-3.1,6.4-3.6,6.2-4.2,6-4.7,5.8-5.3,5.6-5.7,5.4-6.2,5.1-6.6,4.9-7,4.6-7.3,4.3-7.6,4-7.9,3.7-8.1,3.4-8.3,3.1-8.4,2.8-8.5,2.4-8.5,2.1-8.5,1.7-8.4,1.4-8.3,1-8.2.7-8,.3-7.7v-7.5s-.4-7.1-.4-7.1l-.7-6.8-1.1-6.4-1.5-5.9-1.8-5.4-2.2-4.9-2.5-4.4-2.8-3.9-3.1-3.3-3.5-2.7-3.8-2.1-4.1-1.5-4.4-.8-4.6-.2-4.9.4-5.2,1.1-5.4,1.7-5.6,2.3-5.9,2.9-6.1,3.5-6.2,4.1-6.4,4.6-6.6,5.1-6.7,5.6-6.8,6.1-6.9,6.5-7,6.9-7.1,7.2-7.1,7.6-7.2,7.8-7.2,8.1-7.2,8.2-7.1,8.4-7.1,8.5-7,8.5-7,8.5-6.9,8.5-6.8,8.4-6.6,8.2-6.5,8-6.3,7.8-6.2,7.5-6,7.2-5.8,6.9-5.6,6.5-5.3,6-5.1,5.6-4.8,5.1-4.5,4.6-4.3,4-4,3.4-3.7,2.9-3.4,2.3-3,1.6-2.7,1-2.4.4-2-.2-1.7-.9-1.3-1.5-1-2.1-.6-2.7-.3-3.3v-3.9c0,0,.5-4.4.5-4.4l.8-5,1.2-5.5,1.5-5.9,1.9-6.4,2.2-6.8,2.5-7.1,2.9-7.5,3.2-7.8,3.5-8,3.8-8.2,4.1-8.3,4.4-8.4,4.7-8.5,5-8.5,5.2-8.5,5.4-8.4,5.7-8.3,5.9-8.1,6.1-7.9,6.3-7.6,6.4-7.3,6.6-7,6.7-6.6,6.8-6.2,6.9-5.7,7-5.2,7.1-4.7,7.1-4.2,7.2-3.6,7.2-3,7.2-2.4,7.1-1.8,7.1-1.2,7-.6h7c0,0,6.9.8,6.9.8l6.8,1.3,6.6,2,6.5,2.6,6.3,3.2,6.1,3.7,5.9,4.3,5.7,4.8,5.5,5.3,5.3,5.8,5,6.3,4.8,6.7,4.5,7,4.2,7.4,3.9,7.7,3.6,7.9,3.3,8.1,3,8.3,2.6,8.4,2.3,8.5,2,8.5,1.6,8.5,1.3,8.4.9,8.3.6,8.2.2,7.9-.2,7.7-.5,7.4-.9,7.1-1.2,6.7-1.6,6.3-1.9,5.8-2.3,5.4-2.6,4.9-2.9,4.3-3.3,3.8-3.6,3.2-3.9,2.6-4.2,2-4.5,1.4-4.7.7h-5c0,.1-5.2-.4-5.2-.4l-5.5-1.2-5.7-1.8-5.9-2.4-6.1-3-6.3-3.6-6.5-4.1-6.6-4.7-6.7-5.2-6.9-5.7-6.9-6.1-7-6.6-7.1-6.9-7.1-7.3-7.2-7.6-7.2-7.9-7.2-8.1-7.1-8.3-7.1-8.4-7-8.5-6.9-8.5-6.8-8.5-6.7-8.5-6.6-8.4-6.5-8.2-6.3-8-6.1-7.8-5.9-7.5-5.7-7.2-5.5-6.8-5.2-6.4-5-6-4.7-5.5-4.5-5-4.2-4.5-3.9-3.9-3.6-3.4-3.2-2.8-2.9-2.2-2.6-1.5-2.3-.9-1.9-.3c-.5,0-1.1.1-1.6.3l-1.2,1-.9,1.6-.5,2.2v2.8c-.1,0,0,3.4,0,3.4l.6,4,.9,4.5,1.3,5.1,1.6,5.5,2,6,2.3,6.4,2.7,6.8,3,7.2,3.3,7.5,3.6,7.8,3.9,8,4.2,8.2,4.5,8.4,4.8,8.5,5,8.5,5.3,8.5,5.5,8.5,5.7,8.4,6,8.3,6.1,8.1,6.3,7.8,6.5,7.6,6.6,7.3,6.8,6.9,6.9,6.5,7,6.1,7,5.6,7.1,5.2,7.1,4.6,7.2,4.1,7.2,3.5,7.2,2.9,7.1,2.3,7.1,1.7,7,1.1,6.9.5,6.8-.2,6.7-.8,6.6-1.4,6.4-2,6.3-2.7,6.1-3.2,5.9-3.8,5.7-4.4,5.4-4.9,5.2-5.4,4.9-5.9,4.7-6.3,4.4-6.7,4.1-7.1,3.8-7.4,3.5-7.7,3.2-8,2.9-8.2,2.5-8.3,2.2-8.4,1.9-8.5,1.5-8.5,1.2-8.5.8-8.4.4-8.3v-8.1c0,0-.2-7.9-.2-7.9l-.6-7.7-1-7.4-1.3-7-1.7-6.6-2-6.2-2.4-5.8-2.7-5.3-3-4.8-3.4-4.2-3.7-3.7-4-3.1-4.3-2.5-4.6-1.9-4.8-1.3-5.1-.6h-5.3s-5.6.6-5.6.6l-5.8,1.2-6,1.9-6.2,2.5-6.4,3.1-6.5,3.7-6.7,4.2-6.8,4.8-6.9,5.3-7,5.8-7,6.2-7.1,6.6-7.1,7-7.2,7.3-7.2,7.6-7.2,7.9-7.1,8.1-7.1,8.3-7,8.4-6.9,8.5-6.8,8.5-6.7,8.5-6.6,8.4-6.4,8.3-6.2,8.2-6,8-5.8,7.7-5.6,7.4-5.4,7.1-5.2,6.7-4.9,6.3-4.6,5.9-4.4,5.4-4.1,4.9-3.8,4.4-3.5,3.8-3.1,3.3-2.8,2.7-2.5,2.1-2.1,1.5-1.8.8c-.5.1-1,.2-1.4.2l-1.1-.4c-.3-.3-.6-.7-.7-1.1l-.4-1.7v-2.3s.3-2.9.3-2.9l.7-3.5,1-4.1,1.4-4.6,1.8-5.1,2.1-5.6,2.4-6.1,2.8-6.5,3.1-6.9,3.4-7.3,3.7-7.6,4-7.8,4.3-8.1,4.6-8.2,4.9-8.4,5.1-8.5,5.4-8.5,5.6-8.5,5.8-8.5,6-8.4,6.2-8.2,6.4-8,6.5-7.8,6.7-7.5,6.8-7.2,6.9-6.9,7-6.5,7.1-6,7.1-5.6,7.1-5.1,7.2-4.6,7.2-4,7.1-3.4,7.1-2.8,7.1-2.2,7-1.6,6.9-1,6.8-.4,6.7.3,6.5.9,6.4,1.5,6.2,2.1,6,2.7,5.8,3.3,5.6,3.9,5.4,4.5,5.1,5,4.9,5.5,4.6,6,4.3,6.4,4,6.8,3.7,7.2,3.4,7.5,3.1,7.8,2.8,8,2.4,8.2,2.1,8.3,1.7,8.5,1.4,8.5,1,8.5.7,8.5.3,8.4v8.3s-.4,8.1-.4,8.1l-.8,7.9-1.1,7.6-1.5,7.3-1.8,7-2.2,6.6-2.5,6.2-2.8,5.7-3.2,5.2-3.5,4.7-3.8,4.2-4.1,3.6-4.4,3-4.6,2.4-4.9,1.8-5.2,1.2-5.4.5h-5.6c0,0-5.9-.8-5.9-.8l-6.1-1.3-6.2-2-6.4-2.6-6.6-3.2-6.7-3.7-6.8-4.3-6.9-4.8-7-5.3-7.1-5.8-7.1-6.3-7.2-6.7-7.2-7.1-7.2-7.4-7.1-7.7-7.1-7.9-7-8.1-7-8.3-6.9-8.4-6.8-8.5-6.6-8.5-6.5-8.5-6.3-8.4-6.2-8.3-6-8.1-5.8-7.9-5.6-7.7-5.3-7.4-5.1-7.1-4.8-6.7-4.5-6.3-4.3-5.8-4-5.4-3.7-4.9-3.4-4.3-3-3.8-2.7-3.2-2.4-2.6-2-2-1.7-1.4-1.3-.7c-.3-.1-.7-.2-1,0l-.6.5c-.2.4-.2.8-.3,1.2v1.8c0,0,.6,2.4.6,2.4l.8,3,1.2,3.6,1.5,4.2,1.9,4.7,2.2,5.2,2.5,5.7,2.9,6.1,3.2,6.6,3.5,7,3.8,7.3,4.1,7.6,4.4,7.9,4.7,8.1,5,8.3,5.2,8.4,5.4,8.5,5.7,8.5,5.9,8.5,6.1,8.5,6.3,8.3,6.4,8.2,6.6,8,6.7,7.8,6.8,7.5,6.9,7.2,7,6.8,7.1,6.4,7.1,6,7.2,5.5,7.2,5,7.2,4.5,7.1,3.9,7.1,3.3,7,2.8,7,2.2,6.9,1.5,6.8.9,6.6.3,6.5-.4,6.3-1,6.1-1.6,5.9-2.2,5.7-2.8,5.5-3.4,5.3-4,5-4.5,4.8-5.1,4.5-5.6,4.2-6,3.9-6.5,3.6-6.8,3.3-7.2,3-7.5,2.6-7.8,2.3-8,2-8.2,1.6-8.4,1.3-8.5.9-8.5.6-8.5.2-8.5-.2-8.4-.5-8.2-.9-8.1-1.2-7.8-1.6-7.6-1.9-7.3-2.3-6.9-2.6-6.5-2.9-6.1-3.3-5.6-3.6-5.1-3.9-4.6-4.2-4.1-4.5-3.5-4.7-2.9-5-2.3-5.3-1.7-5.5-1.1-5.7-.5-5.9.2-6.1.8-6.3,1.4-6.5,2.1-6.6,2.7-6.7,3.3-6.9,3.8-6.9,4.4-7,4.9-7.1,5.4-7.1,5.9-7.2,6.3-7.2,6.7-7.2,7.1-7.1,7.4-7.1,7.7-7,8-6.9,8.2-6.8,8.3-6.7,8.4-6.6,8.5-6.5,8.5-6.3,8.5-6.1,8.4-5.9,8.3-5.7,8.1-5.5,7.9-5.2,7.6-5,7.3-4.7,7-4.4,6.6-4.2,6.2-3.9,5.8-3.6,5.3-3.2,4.8-2.9,4.2-2.6,3.7-2.3,3.1-1.9,2.5-1.6,1.9-1.2,1.3c-.2.3-.5.5-.9.6h-.5c-.2-.1-.2-.4-.1-.6l.2-1.3.6-1.9.9-2.5,1.3-3.1,1.6-3.7,2-4.2,2.3-4.8,2.7-5.3,3-5.8,3.3-6.2,3.6-6.6,3.9-7,4.2-7.3,4.5-7.6,4.8-7.9,5-8.1,5.3-8.3,5.5-8.4,5.7-8.5,6-8.5,6.1-8.5,6.3-8.4,6.5-8.3,6.6-8.2,6.8-8,6.9-7.7,7-7.4,7-7.1,7.1-6.7,7.1-6.3,7.2-5.9,7.2-5.4,7.2-4.9,7.1-4.4,7.1-3.8,7-3.3,6.9-2.7,6.8-2.1,6.7-1.4,6.6-.8,6.4-.2,6.3.5,6.1,1.1,5.9,1.7,5.7,2.3,5.4,2.9,5.2,3.5,4.9,4.1,4.7,4.6,4.4,5.1,4.1,5.6,3.8,6.1,3.5,6.5,3.2,6.9,2.9,7.3,2.5,7.6,2.2,7.8,1.9,8.1,1.5,8.2,1.2,8.4.8,8.5.4,8.5v8.5c0,0-.2,8.5-.2,8.5l-.6,8.4-1,8.2-1.3,8-1.7,7.8-2,7.5-2.4,7.2-2.7,6.8-3,6.5-3.4,6-3.7,5.6-4,5.1-4.3,4.5-4.6,4-4.8,3.4-5.1,2.8-5.3,2.2-5.6,1.6-5.8,1-6,.4-6.2-.3-6.4-.9-6.5-1.5-6.7-2.2-6.8-2.8-6.9-3.3-7-3.9-7.1-4.5-7.1-5-7.1-5.5-7.2-6-7.2-6.4-7.2-6.8-7.1-7.2-7.1-7.5-7-7.8-6.9-8-6.8-8.2-6.7-8.3-6.6-8.5-6.4-8.5-6.2-8.5-6-8.5-5.8-8.4-5.6-8.3-5.4-8.1-5.2-7.9-4.9-7.6-4.6-7.3-4.4-7-4.1-6.6-3.8-6.1-3.5-5.7-3.1-5.2-2.8-4.7-2.5-4.1-2.1-3.6-1.8-3-1.4-2.4-1.1-1.8-.7-1.2c-.1-.3-.3-.7-.4-.5,0,.4.2.6.3.8l.7,1.4,1.1,2,1.4,2.6,1.8,3.2,2.1,3.8,2.4,4.3,2.8,4.9,3.1,5.4,3.4,5.8,3.7,6.3,4,6.7,4.3,7.1,4.6,7.4,4.9,7.7,5.1,7.9,5.4,8.1,5.6,8.3,5.8,8.4,6,8.5,6.2,8.5,6.4,8.5,6.5,8.4,6.7,8.3,6.8,8.1,6.9,7.9,7,7.7,7.1,7.4,7.1,7.1,7.1,6.7,7.2,6.3,7.2,5.8,7.1,5.3,7.1,4.8,7.1,4.3,7,3.7,6.9,3.2,6.8,2.6,6.7,2,6.5,1.3,6.4.7h6.2c0,0,6-.5,6-.5l5.8-1.2,5.6-1.8,5.4-2.4,5.1-3,4.9-3.6,4.6-4.2,4.3-4.7,4-5.2,3.7-5.7,3.4-6.2,3.1-6.6,2.8-7,2.4-7.3,2.1-7.6,1.7-7.9,1.4-8.1,1-8.3.7-8.4.3-8.5v-8.5s-.4-8.5-.4-8.5l-.8-8.5-1.1-8.3-1.5-8.2-1.8-8-2.2-7.8-2.5-7.5-2.8-7.2-3.2-6.8-3.5-6.4-3.8-6-4.1-5.5-4.4-5-4.6-4.5-4.9-3.9-5.2-3.3-5.4-2.7-5.6-2.1-5.9-1.5-6.1-.9-6.2-.3-6.4.4-6.6,1-6.7,1.6-6.8,2.2-6.9,2.8-7,3.4-7.1,4-7.1,4.6-7.2,5.1-7.2,5.6-7.2,6-7.1,6.5-7.1,6.9-7,7.2-7,7.5-6.9,7.8-6.8,8-6.6,8.2-6.5,8.4-6.3,8.5-6.2,8.5-6,8.5-5.8,8.5-5.6,8.4-5.3,8.2-5.1,8.1-4.8,7.8-4.5,7.6-4.3,7.2-4,6.9-3.7,6.5-3.3,6.1-3,5.6-2.7,5.1-2.4,4.6-2,4.1-1.7,3.5-1.3,2.9-1,2.3-.6,1.7-.3,1.1v.4c0,0,.6-.2.6-.2l.8-.8,1.2-1.5,1.5-2.1,1.9-2.7,2.2-3.3,2.6-3.8,2.9-4.4,3.2-4.9,3.5-5.4,3.8-5.9,4.1-6.3,4.4-6.8,4.7-7.1,5-7.4,5.2-7.7,5.5-8,5.7-8.2,5.9-8.3,6.1-8.4,6.3-8.5,6.4-8.5,6.6-8.5,6.7-8.4,6.8-8.3,6.9-8.1,7-7.9,7.1-7.6,7.1-7.3,7.2-7,7.2-6.6,7.2-6.2,7.1-5.8,7.1-5.3,7-4.8,7-4.2,6.9-3.7,6.8-3.1,6.6-2.5,6.5-1.9,6.3-1.2,6.1-.6h5.9s5.7.7,5.7.7l5.5,1.3,5.3,1.9,5,2.5,4.8,3.1,4.5,3.7,4.2,4.2,3.9,4.8,3.6,5.3,3.3,5.8,3,6.2,2.6,6.6,2.3,7,2,7.4,1.6,7.7,1.3,7.9.9,8.1.6,8.3.2,8.4-.2,8.5-.5,8.5-.9,8.5-1.2,8.4-1.6,8.3-1.9,8.2-2.3,8-2.6,7.7-2.9,7.4-3.3,7.1-3.6,6.7-3.9,6.3-4.2,5.9-4.5,5.4-4.7,4.9-5,4.4-5.3,3.8-5.5,3.2-5.7,2.7-5.9,2-6.1,1.4-6.3.8-6.5.2-6.6-.5-6.7-1.1-6.9-1.7-6.9-2.3-7-2.9-7.1-3.5-7.1-4.1-7.2-4.6-7.2-5.2-7.2-5.6-7.1-6.1-7.1-6.5-7-6.9-6.9-7.3-6.8-7.6-6.7-7.8-6.6-8.1-6.5-8.3-6.3-8.4-6.1-8.5-5.9-8.5-5.7-8.5-5.5-8.5-5.2-8.4-5-8.2-4.7-8-4.4-7.8-4.2-7.5-3.9-7.2-3.6-6.8-3.2-6.4-2.9-6-2.6-5.5-2.2-5.1-1.9-4.5-1.6-4-1.2-3.4-.9-2.8-.5-2.2v-1.6c-.1-.3-.1-.7,0-1l.6-.3c.3,0,.6.1.9.3l1.3.9,1.6,1.5,2,2.2,2.3,2.8,2.7,3.4,3,3.9,3.3,4.5,3.6,5,3.9,5.5,4.2,6,4.5,6.4,4.8,6.8,5,7.2,5.3,7.5,5.5,7.8,5.7,8,6,8.2,6.1,8.4,6.3,8.5,6.5,8.5,6.6,8.5,6.8,8.5,6.9,8.4,7,8.3,7,8.1,7.1,7.9,7.1,7.6,7.2,7.3,7.2,6.9,7.2,6.6,7.1,6.1,7.1,5.7,7,5.2,6.9,4.7,6.8,4.1,6.7,3.6,6.6,3,6.4,2.4,6.3,1.8,6.1,1.2,5.9.5h5.7c0-.1,5.4-.9,5.4-.9l5.2-1.4,4.9-2,4.7-2.6,4.4-3.2,4.1-3.8,3.8-4.3,3.5-4.9,3.2-5.4,2.9-5.8,2.5-6.3,2.2-6.7,1.8-7.1,1.5-7.4,1.1-7.7.8-7.9.4-8.2v-8.3c0,0-.2-8.4-.2-8.4l-.6-8.5-1-8.5-1.3-8.5-1.7-8.4-2-8.3-2.4-8.1-2.7-7.9-3-7.7-3.4-7.4-3.7-7-4-6.7-4.3-6.3-4.6-5.8-4.8-5.3-5.1-4.8-5.3-4.3-5.6-3.7-5.8-3.2-6-2.6-6.2-1.9-6.4-1.3-6.5-.7h-6.7c0,0-6.8.5-6.8.5l-6.9,1.2-7,1.8-7.1,2.4-7.1,3-7.1,3.6-7.2,4.2-7.2,4.7-7.2,5.2-7.1,5.7-7.1,6.2-7,6.6-6.9,7-6.8,7.3-6.7,7.6-6.6,7.9-6.4,8.1-6.2,8.3-6,8.4-5.8,8.5-5.6,8.5-5.4,8.5-5.2,8.4-4.9,8.3-4.6,8.2-4.4,8-4.1,7.8-3.8,7.5-3.5,7.1-3.1,6.8-2.8,6.4-2.5,5.9-2.1,5.5-1.8,5-1.4,4.4-1.1,3.9-.7,3.3-.4,2.7v2.1s.3,1.5.3,1.5c.2.3.4.7.7.9l1.1.2,1.4-.4,1.8-1,2.1-1.6,2.4-2.3,2.8-2.9,3.1-3.5,3.4-4,3.7-4.6,4-5.1,4.3-5.6,4.6-6,4.9-6.5,5.1-6.9,5.4-7.2,5.6-7.5,5.8-7.8,6-8,6.2-8.2,6.4-8.4,6.5-8.5,6.7-8.5,6.8-8.5,6.9-8.5,7-8.4,7.1-8.2,7.1-8.1,7.1-7.8,7.2-7.6,7.2-7.2,7.1-6.9,7.1-6.5,7.1-6.1,7-5.6,6.9-5.1,6.8-4.6,6.7-4.1,6.5-3.5,6.4-2.9,6.2-2.3,6-1.7,5.8-1.1,5.6-.4,5.4.2,5.1.8,4.9,1.5,4.6,2.1,4.3,2.7,4,3.3,3.7,3.9,3.4,4.4,3.1,4.9,2.8,5.4,2.4,5.9,2.1,6.4,1.7,6.8,1.4,7.1,1,7.5.7,7.7.3,8v8.2s-.4,8.3-.4,8.3l-.8,8.4-1.1,8.5-1.5,8.5-1.8,8.5-2.2,8.4-2.5,8.3-2.8,8.1-3.2,7.9-3.5,7.6-3.8,7.3-4.1,7-4.4,6.6-4.7,6.2-4.9,5.7-5.2,5.3-5.4,4.7-5.6,4.2-5.9,3.6-6.1,3.1-6.2,2.5-6.4,1.9-6.6,1.2-6.7.6h-6.8s-6.9-.7-6.9-.7l-7-1.3-7.1-1.9-7.1-2.5-7.2-3.1-7.2-3.7-7.2-4.3-7.1-4.8-7.1-5.3-7-5.8-7-6.2-6.9-6.6-6.8-7-6.6-7.4-6.5-7.7-6.3-7.9-6.2-8.1-6-8.3-5.8-8.4-5.6-8.5-5.3-8.5-5.1-8.5-4.8-8.4-4.5-8.3-4.3-8.2-4-8-3.7-7.7-3.3-7.4-3-7.1-2.7-6.7-2.4-6.3-2-5.9-1.7-5.4-1.3-4.9-1-4.4-.6-3.8-.3-3.2v-2.6c.1,0,.6-2,.6-2l.8-1.4,1.2-.8c.5-.2,1-.2,1.5-.1l1.9.5,2.2,1.1,2.6,1.7,2.9,2.4,3.2,3,3.5,3.5,3.8,4.1,4.1,4.6,4.4,5.2,4.7,5.7,5,6.1,5.2,6.5,5.5,6.9,5.7,7.3,5.9,7.6,6.1,7.8,6.3,8.1,6.4,8.3,6.6,8.4,6.7,8.5,6.8,8.5,6.9,8.5,7,8.5,7.1,8.4,7.1,8.2,7.2,8,7.2,7.8,7.2,7.5,7.1,7.2,7.1,6.8,7,6.4,7,6,6.9,5.5,6.7,5,6.6,4.5,6.5,4,6.3,3.4,6.1,2.8,5.9,2.2,5.7,1.6,5.5,1,5.3.3,5-.3,4.8-.9,4.5-1.6,4.2-2.2"/>
      <text class="cls-8" transform="translate(30 335.9)"><tspan x="0" y="0">Kamiya Hiroki</tspan></text>
      <g class="cls-9">
        <path class="cls-4" d="M-1169.4-153.5c4.7.2,9.4.9,13.8,2.5,4.9,1.7,9.5,4.3,13.8,7.4,5,3.6,9.5,7.7,13.7,12.2,4.9,5.2,9.4,10.9,13.6,16.8"/>
        <path class="cls-4" d="M-923.1,394.2c1.7,2,3.5,3.9,6,4.6,1.7.5,3.7.4,5.3-.4,2.1-1,3.5-3.1,4.7-5.3"/>
        <path class="cls-4" d="M-946-133.5c-2.4-4.1-5.1-8-8.4-11.5-2.6-2.7-5.5-5.2-8.9-6.7-2.9-1.3-6.2-2-9.5-1.8-3.5.2-6.9,1.5-10,3.2-3.9,2.2-7.3,5-10.4,8.1"/>
        <path class="cls-4" d="M-1226.6,372.9c-4.1,4.8-8.6,9.4-13.4,13.5-4.1,3.4-8.5,6.5-13.3,8.8-4.1,2-8.5,3.4-13.1,3.9-4.3.5-8.7,0-12.8-1.1-4.5-1.2-8.7-3.4-12.5-6-4.5-3.1-8.6-6.8-12.2-10.9-4.4-4.8-8.3-10.1-11.9-15.5"/>
        <path class="cls-4" d="M-1445.8-153.2c-.5-.6,0,1.9.2,3.9"/>
        <path class="cls-4" d="M-1321.6,375.2c3.5,4.6,7.4,9,11.7,12.8,3.6,3.2,7.6,6,12.1,8.1,3.9,1.8,8.1,2.9,12.4,3.2,4.3.2,8.6-.5,12.7-1.8,4.6-1.5,8.9-3.9,12.9-6.7,4.8-3.4,9.1-7.3,13.2-11.5"/>
        <path class="cls-4" d="M-1009.6-137.3c3.4-3.7,7-7.2,11.1-10.1,3.2-2.3,6.8-4.3,10.6-5.3,3.3-.9,6.9-1,10.2-.3,3.5.8,6.8,2.5,9.7,4.6,3.6,2.7,6.6,6,9.2,9.5,3.3,4.5,6.2,9.3,8.7,14.2"/>
        <path class="cls-4" d="M-901.4,389.5c-.8,2.6-1.7,5.2-3.7,7.4-1.2,1.3-2.8,2.4-4.4,2.4-1.8,0-3.5-1.2-5-2.5-2.5-2.2-4.1-4.8-5.6-7.4"/>
        <path class="cls-4" d="M-1107.8-124.9c-4.1-5-8.6-9.8-13.5-14.1-4.2-3.6-8.7-6.9-13.7-9.4-4.3-2.2-9-3.8-13.7-4.5-4.6-.7-9.3-.5-13.8.4-4.9,1-9.5,2.9-13.8,5.4-5,2.8-9.6,6.3-13.8,10.2-5,4.6-9.5,9.6-13.7,14.9"/>
        <path class="cls-4" d="M-1405.7,390.9c-1.9,2.5-4.1,4.9-6.9,6.6-1.9,1.2-4.2,2-6.3,1.7-2.1-.3-4.1-1.6-5.6-3.2-2.3-2.4-3.8-5.2-5-8.2"/>
        <path class="cls-4" d="M-1404.4-127.3c2.2-4.7,4.6-9.2,7.6-13.5,2.3-3.3,4.9-6.3,8.1-8.7,2.6-1.9,5.5-3.4,8.7-3.8,3.1-.5,6.3,0,9.2,1.1,3.6,1.3,6.8,3.6,9.7,6.1,3.8,3.3,7.1,7,10.2,10.9"/>
        <path class="cls-4" d="M-1132.6,366c4.2,5.4,8.7,10.6,13.6,15.4,4.1,4,8.6,7.7,13.5,10.8,4.2,2.6,8.6,4.7,13.4,5.9,4.3,1.1,8.8,1.5,13.2,1,4.5-.5,8.9-1.9,12.9-4,4.6-2.3,8.8-5.4,12.7-8.9,4.6-4.1,8.6-8.7,12.4-13.6"/>
        <path class="cls-4" d="M-895.7-150.3c.5-1.5,1-3.4,1.5-3.1"/>
        <path class="cls-4" d="M-893.3-151.6c.7,2.7.4,4.7.2,6.8"/>
        <path class="cls-4" d="M-1000.4,368.5c-3.3,5.2-7,10.2-11.1,14.7-3.4,3.8-7.2,7.3-11.5,10.1-3.6,2.4-7.7,4.3-11.9,5.2-4,.9-8.2,1-12.2.3-4.4-.8-8.6-2.5-12.5-4.7-4.7-2.6-8.9-5.9-12.8-9.6-4.7-4.4-9-9.2-13.1-14.3"/>
        <path class="cls-4" d="M-1312-131.7c-3.6-4.3-7.4-8.5-11.7-12.1-3.4-2.9-7.1-5.5-11.3-7.3-3.4-1.5-7.1-2.4-10.9-2.4-3.6,0-7.2,1-10.4,2.6-3.8,1.8-7,4.5-9.9,7.5-3.6,3.7-6.7,7.9-9.5,12.3"/>
        <path class="cls-4" d="M-1439.1,394.4c.8,1.9,1.7,3.9,3.4,4.5,1.2.4,2.8.2,4-.5,2.2-1.1,3.5-3.3,4.7-5.4"/>
        <path class="cls-4" d="M-1251-117.7c4.1-5.6,8.5-11,13.3-16,4.1-4.2,8.6-8.1,13.5-11.4,4.2-2.8,8.8-5.1,13.6-6.6,4.4-1.3,9.1-1.9,13.7-1.7,4.7.3,9.4,1.5,13.8,3.3,5,2.1,9.6,4.9,13.8,8.2,5,3.9,9.6,8.3,13.8,13,5,5.5,9.5,11.4,13.8,17.5"/>
        <path class="cls-4" d="M-944.6,386.6c2.3,3.1,4.7,6.1,7.7,8.7,2.1,1.8,4.5,3.4,7.2,3.8,2.2.3,4.6-.1,6.6-1.2,2.5-1.4,4.4-3.7,6-6.1"/>
        <path class="cls-4" d="M-930.9-135.7c-2-3.8-4.3-7.5-7.3-10.7-2.2-2.5-4.8-4.7-7.9-5.9-2.6-1.1-5.6-1.4-8.4-.9-3.2.5-6.2,2.1-9,4-3.6,2.5-6.6,5.6-9.5,8.9"/>
        <path class="cls-4" d="M-1199.5,375.5c-4.2,4.6-8.7,8.9-13.7,12.7-4.2,3.2-8.7,6-13.6,8-4.3,1.7-8.8,2.9-13.4,3.1-4.5.2-9-.5-13.3-1.9-4.7-1.5-9-4-13.1-6.8-4.7-3.4-8.9-7.4-12.8-11.6-4.6-5.1-8.7-10.5-12.5-16.2"/>
        <path class="cls-4" d="M-1439.6-147.5c-.5-2.1-.8-4.3-2.6-5.2"/>
        <path class="cls-4" d="M-1444.1-152.9c-1.4.4-1.2,2.7-1.2,4.7"/>
        <path class="cls-4" d="M-1354.3,361c3.1,5.8,6.6,11.4,10.5,16.6,3.2,4.4,6.8,8.5,10.9,12.1,3.4,3,7.2,5.5,11.3,7.3,3.7,1.5,7.7,2.4,11.7,2.3,4.1,0,8.2-1,12.1-2.6,4.5-1.9,8.6-4.5,12.4-7.5,4.6-3.7,8.8-7.9,12.7-12.3"/>
        <path class="cls-4" d="M-1044.9-125.2c3.7-4.9,7.7-9.7,12.2-14,3.6-3.5,7.5-6.8,11.8-9.3,3.5-2.1,7.4-3.8,11.5-4.5,3.7-.6,7.5-.5,11.1.5,3.9,1,7.4,3,10.6,5.4,3.9,2.9,7.2,6.5,10.2,10.3,3.7,4.7,6.8,9.7,9.7,15"/>
        <path class="cls-4" d="M-896,391c-.3,2.3-.7,4.7-2.4,6.6-.8.9-2,1.7-3,1.6-1.5,0-2.7-1.8-3.7-3.3"/>
        <path class="cls-4" d="M-1081.4-127.6c-4-4.8-8.4-9.4-13.2-13.4-4.1-3.4-8.5-6.4-13.4-8.6-4.3-2-8.9-3.3-13.5-3.7-4.6-.4-9.2,0-13.7,1.2-4.9,1.3-9.5,3.5-13.7,6.2-5,3.1-9.6,6.9-13.8,11-5,4.8-9.6,10.1-13.8,15.6"/>
        <path class="cls-4" d="M-1390.3,392.3c-2.3,2.4-4.9,4.6-8,5.8-2.4,1-5,1.4-7.5.9-2.6-.5-4.9-2.2-6.9-4.1-2.7-2.6-4.6-5.7-6.3-8.9"/>
        <path class="cls-4" d="M-1411.3-142.5c1.9-3,4.1-5.8,7-7.9,2.2-1.6,4.9-2.8,7.6-3,2.8-.2,5.6.7,8.1,1.9,3.3,1.7,6.1,4.2,8.7,6.9"/>
        <path class="cls-4" d="M-1160,368.8c4.2,5.2,8.8,10.2,13.8,14.7,4.2,3.8,8.8,7.2,13.7,10,4.3,2.4,8.9,4.2,13.6,5.1,4.4.9,9.1.9,13.5.2,4.7-.8,9.2-2.5,13.4-4.8,4.8-2.6,9.2-6,13.2-9.6,4.7-4.4,9-9.2,12.9-14.3"/>
        <path class="cls-4" d="M-904.4-143.9c.9-2.4,1.7-4.7,3.6-7.2.9-1.2,2-2.4,2.9-2.3.9.1,1.7,1.4,2.2,2.7,1.2,2.8,1.4,5.1,1.5,7.6"/>
        <path class="cls-4" d="M-979.5,371.2c-3,4.9-6.4,9.7-10.3,14-3.2,3.5-6.7,6.8-10.7,9.3-3.4,2.1-7.2,3.7-11.1,4.4-3.8.6-7.8.4-11.5-.5-4.3-1.1-8.2-3.1-11.9-5.5-4.5-2.9-8.5-6.5-12.2-10.3"/>
        <path class="cls-4" d="M-1287.8-134c-3.8-4.1-7.8-8-12.3-11.3-3.7-2.7-7.7-5-12-6.5-3.7-1.3-7.7-1.9-11.7-1.6-3.9.3-7.8,1.6-11.3,3.4-4.1,2.1-7.6,5-10.9,8.3-3.9,4-7.3,8.4-10.4,13"/>
        <path class="cls-4" d="M-1443.8,395.4c.4,1.6.9,3.5,2,3.7"/>
        <path class="cls-4" d="M-1439,397.9c2-1.8,2.6-4,3.4-6.2"/>
        <path class="cls-4" d="M-1276.8-120.6c3.9-5.4,8.1-10.6,12.9-15.3,4-4,8.3-7.6,13.1-10.6,4.1-2.6,8.6-4.6,13.3-5.8,4.4-1.1,9-1.4,13.5-.9,4.7.6,9.3,2,13.6,4.1,4.9,2.4,9.5,5.5,13.7,9,5,4.1,9.5,8.8,13.8,13.7"/>
        <path class="cls-4" d="M-961.6,388.4c2.6,3,5.4,5.7,8.8,7.9,2.5,1.6,5.4,2.8,8.3,3,2.7.1,5.4-.7,7.7-2,2.9-1.7,5.2-4.2,7.2-6.9,2.7-3.7,4.7-7.6,6.6-11.7"/>
        <path class="cls-4" d="M-918.2-137.7c-1.6-3.5-3.5-6.9-6.1-9.9-1.8-2.2-4-4.2-6.7-5.1-2.3-.8-4.9-.8-7.3-.1-3,.8-5.6,2.7-7.9,4.8-3.2,2.9-5.9,6.2-8.4,9.7"/>
        <path class="cls-4" d="M-1158.2,361.3c-4.3,5.8-8.8,11.4-13.8,16.5-4.2,4.4-8.8,8.5-13.8,12-4.3,3-8.9,5.5-13.8,7.2-4.4,1.5-9.1,2.3-13.7,2.2-4.6,0-9.3-1.1-13.6-2.7-4.8-1.8-9.3-4.5-13.4-7.6-4.9-3.6-9.2-7.9-13.3-12.4-4.8-5.3-9.1-11-13.1-17"/>
        <path class="cls-4" d="M-1432.5-148.7c-1-1.9-2.1-3.9-3.9-4.4"/>
        <path class="cls-4" d="M-1439.6-152.5c-1.7,1.1-2.1,3.4-2.6,5.5"/>
        <path class="cls-4" d="M-1373.8,364c2.8,5.5,5.9,10.9,9.6,15.9,2.9,4.1,6.2,8,10,11.3,3.1,2.7,6.6,5,10.5,6.5,3.5,1.3,7.3,1.8,10.9,1.5,4-.3,7.8-1.6,11.3-3.4,4.3-2.2,8.2-5.1,11.7-8.3,4.4-4,8.4-8.4,12.1-13.1"/>
        <path class="cls-4" d="M-1070.1-127.9c3.9-4.7,8.1-9.2,12.8-13.3,3.8-3.3,7.9-6.3,12.5-8.5,3.8-1.9,7.9-3.2,12.2-3.6,4-.4,8,0,11.8,1.3,4.2,1.3,8,3.6,11.5,6.3,4.2,3.2,7.8,7,11.1,11.1,4,4.9,7.5,10.2,10.6,15.7"/>
        <polyline class="cls-5" points="2146.9 -153.5 2160.7 -153.1 2174.5 -152.1 2188.2 -150.3 2201.8 -147.9 2215.3 -144.7 2228.6 -140.9 2241.7 -136.4 2254.5 -131.3 2267.1 -125.5 2279.4 -119.1 2291.4 -112.1 2303 -104.4 2314.2 -96.2 2325 -87.5 2335.3 -78.2 2345.2 -68.4 2354.6 -58.1 2363.4 -47.3 2371.7 -36.1 2379.5 -24.5 2386.7 -12.6 2393.2 -.3 2399.2 12.3 2404.5 25.2 2409.2 38.4 2413.2 51.8 2416.6 65.3 2419.3 79 2421.3 92.8 2422.6 106.7 2423.2 120.6 2423.2 134.5 2422.4 148.4 2421 162.2 2418.9 176 2416.1 189.6 2412.6 203 2408.5 216.2 2403.7 229.2 2398.2 241.9 2392.2 254.3 2385.5 266.4 2378.2 278.1 2370.4 289.5 2362 300.4 2353 310.8 2343.6 320.8 2333.6 330.2 2323.2 339.2 2312.3 347.6 2301.1 355.4 2289.4 362.6 2277.4 369.3 2265 375.3 2252.4 380.6 2239.5 385.3 2226.4 389.3 2213 392.7 2199.6 395.4 2185.9 397.4 2172.2 398.6 2158.4 399.2 2144.6 399.1 2130.8 398.3 2117 396.8 2103.3 394.6 2089.7 391.7 2076.3 388.1 2063 383.8 2050 378.9 2037.2 373.3 2024.6 367.1 2012.4 360.3 2000.5 352.9 1989 344.8 1977.8 336.3 1967.1 327.1 1956.9 317.5 1947.1 307.4 1937.8 296.8 1929 285.7 1920.8 274.3 1913.1 262.4 1906.1 250.2 1899.6 237.7 1893.7 224.9 1888.5 211.8 1883.9 198.5 1880 185.1 1876.8 171.4 1874.2 157.6 1872.3 143.8 1871.1 129.9 1870.6 115.9 1870.8 102 1871.6 88.2 1873.2 74.4 1875.4 60.8 1878.3 47.3 1881.9 34 1886.2 20.9 1891.1 8.1 1896.6 -4.4 1902.8 -16.6 1909.6 -28.5 1916.9 -39.9 1924.9 -51 1933.4 -61.6 1942.4 -71.7 1951.9 -81.3 1962 -90.4 1972.5 -99 1983.4 -107 1994.7 -114.5 2006.5 -121.3 2018.5 -127.5 2030.9 -133.1 2043.6 -138 2056.5 -142.3 2069.7 -145.8 2083.1 -148.7 2096.6 -151 2110.2 -152.5 2124 -153.3 2137.8 -153.4 2151.6 -152.8 2165.4 -151.5 2179.1 -149.6 2192.8 -146.9 2206.4 -143.5 2219.8 -139.5 2233 -134.8 2246 -129.4 2258.8 -123.4 2271.3 -116.8 2283.5 -109.6 2295.3 -101.8 2306.8 -93.4 2317.9 -84.4 2328.5 -75 2338.7 -65 2348.4 -54.5 2357.6 -43.6 2366.3 -32.3 2374.4 -20.6 2382 -8.5 2388.9 3.9 2395.3 16.6 2401 29.6 2406.2 42.8 2410.6 56.3 2414.4 69.9 2417.6 83.6 2420 97.4 2421.8 111.3 2422.9 125.2 2423.3 139.2 2423 153 2422 166.8 2420.4 180.5 2418 194.1 2415 207.4 2411.3 220.6 2406.9 233.5 2401.9 246.1 2396.3 258.4 2390 270.4 2383.1 282 2375.6 293.1 2367.6 303.9 2359 314.2 2349.9 324 2340.3 333.3 2330.1 342 2319.6 350.3 2308.6 357.9 2297.2 364.9 2285.4 371.3 2273.3 377.1 2260.8 382.3 2248.1 386.7 2235.1 390.5 2221.9 393.7 2208.5 396.1 2195 397.9 2181.3 398.9 2167.6 399.3 2153.8 398.9 2140 397.9 2126.2 396.1 2112.4 393.7 2098.8 390.5 2085.2 386.7 2071.8 382.2 2058.6 377.1 2045.6 371.3 2032.9 364.9 2020.5 357.9 2008.4 350.2 1996.6 342 1985.2 333.3 1974.2 324 1963.6 314.2 1953.5 303.9 1943.9 293.1 1934.8 281.9 1926.2 270.4 1918.1 258.4 1910.7 246.1 1903.8 233.5 1897.5 220.6 1891.9 207.4 1886.9 194.1 1882.5 180.5 1878.9 166.8 1875.8 153 1873.5 139.1 1871.8 125.2 1870.9 111.3 1870.6 97.4 1871 83.6 1872.1 69.8 1873.9 56.2 1876.3 42.8 1879.5 29.6 1883.3 16.6 1887.7 3.9 1892.9 -8.5 1898.6 -20.6 1905 -32.3 1912 -43.6 1919.5 -54.5 1927.7 -65 1936.3 -75 1945.6 -84.4 1955.3 -93.4 1965.5 -101.8 1976.1 -109.6 1987.2 -116.8 1998.6 -123.4 2010.5 -129.4 2022.7 -134.8 2035.2 -139.5 2047.9 -143.5 2060.9 -146.9 2074.2 -149.6 2087.6 -151.5 2101.2 -152.8 2114.8 -153.4 2128.6 -153.3 2142.4 -152.5 2156.2 -151 2170 -148.7 2183.7 -145.8 2197.4 -142.3 2210.9 -138 2224.3 -133.1 2237.4 -127.5 2250.4 -121.3 2263 -114.5 2275.4 -107 2287.5 -99 2299.2 -90.4 2310.6 -81.3 2321.5 -71.7 2332 -61.5 2342 -50.9 2351.5 -39.9 2360.6 -28.4 2369.1 -16.6 2377 -4.4 2384.4 8.1 2391.1 20.9 2397.3 34 2402.8 47.3 2407.7 60.8 2412 74.4 2415.6 88.2 2418.5 102 2420.7 116 2422.2 129.9 2423.1 143.8 2423.3 157.6 2422.7 171.4 2421.5 185.1 2419.6 198.5 2417.1 211.8 2413.8 224.9 2409.9 237.7 2405.3 250.2 2400.1 262.4 2394.2 274.3 2387.7 285.7 2380.7 296.8 2373 307.4 2364.8 317.5 2356 327.2 2346.7 336.3 2336.9 344.8 2326.6 352.9 2315.9 360.3 2304.8 367.1 2293.3 373.3 2281.4 378.9 2269.1 383.8 2256.6 388.1 2243.8 391.7 2230.7 394.6 2217.4 396.8 2204 398.3 2190.4 399.1 2176.7 399.2 2162.9 398.6 2149.1 397.4 2135.3 395.4 2121.5 392.7 2107.8 389.3 2094.2 385.3 2080.7 380.6 2067.4 375.3 2054.2 369.3 2041.3 362.6 2028.7 355.4 2016.4 347.6 2004.4 339.2 1992.7 330.2 1981.4 320.8 1970.6 310.8 1960.2 300.3 1950.2 289.4 1940.8 278.1 1931.8 266.4 1923.4 254.3 1915.6 241.9 1908.3 229.2 1901.6 216.2 1895.6 203 1890.2 189.6 1885.4 176 1881.2 162.2 1877.8 148.4 1875 134.5 1872.9 120.6 1871.4 106.7 1870.7 92.8 1870.6 79 1871.3 65.3 1872.6 51.7 1874.6 38.4 1877.3 25.2 1880.7 12.3 1884.7 -.3 1889.4 -12.6 1894.7 -24.6 1900.7 -36.1 1907.3 -47.3 1914.4 -58.1 1922.2 -68.4 1930.5 -78.2 1939.4 -87.5 1948.8 -96.2 1958.6 -104.4 1969 -112.1 1979.8 -119.1 1991 -125.5 2002.6 -131.3 2014.5 -136.4 2026.8 -140.9 2039.4 -144.7 2052.3 -147.9 2065.4 -150.3 2078.7 -152.1 2092.1 -153.1 2105.8 -153.5 2119.5 -153.1 2133.2 -152 2147.1 -150.3 2160.9 -147.9 2174.6 -144.7 2188.3 -140.9 2202 -136.4 2215.4 -131.3 2228.7 -125.5 2241.8 -119.1 2254.7 -112.1 2267.2 -104.4 2279.5 -96.2 2291.5 -87.5 2303.1 -78.2 2314.3 -68.4 2325.1 -58.1 2335.4 -47.3 2345.3 -36.1 2354.6 -24.5 2363.5 -12.6 2371.8 -.3 2379.5 12.4 2386.7 25.3 2393.3 38.4 2399.2 51.8 2404.6 65.3 2409.2 79 2413.3 92.8 2416.6 106.7 2419.3 120.6 2421.3 134.5 2422.6 148.4 2423.2 162.3 2423.2 176 2422.4 189.6 2421 203 2418.8 216.2 2416 229.2 2412.6 241.9 2408.4 254.3 2403.6 266.4 2398.2 278.1 2392.1 289.5 2385.4 300.4 2378.1 310.8 2370.3 320.8 2361.9 330.3 2352.9 339.2 2343.5 347.6 2333.5 355.4 2323.1 362.6 2312.2 369.3 2300.9 375.3 2289.3 380.6 2277.3 385.3 2264.9 389.4 2252.3 392.7 2239.4 395.4 2226.3 397.4 2212.9 398.7 2199.4 399.2 2185.8 399.1 2172.1 398.3 2158.3 396.8 2144.5 394.6 2130.7 391.7 2116.9 388.1 2103.2 383.8 2089.6 378.9 2076.2 373.3 2062.9 367.1 2049.9 360.3 2037.1 352.9 2024.5 344.8 2012.3 336.3 2000.4 327.1 1988.9 317.5 1977.7 307.4 1967 296.8 1956.8 285.7 1947 274.3 1937.7 262.4 1928.9 250.2 1920.7 237.7 1913.1 224.9 1906 211.8 1899.5 198.5 1893.7 185 1888.5 171.4 1883.9 157.6 1880 143.8 1876.7 129.9 1874.2 115.9 1872.3 102 1871.1 88.2 1870.6 74.4 1870.8 60.8 1871.6 47.3 1873.2 34 1875.4 20.9 1878.4 8.1 1882 -4.4 1886.2 -16.6 1891.1 -28.5 1896.7 -39.9 1902.8 -51 1909.6 -61.6 1917 -71.7 1924.9 -81.3 1933.4 -90.5 1942.5 -99 1952 -107 1962.1 -114.5 1972.6 -121.3 1983.5 -127.5 1994.8 -133.1 2006.6 -138 2018.6 -142.3 2031 -145.8 2043.7 -148.8 2056.7 -151 2069.8 -152.5 2083.2 -153.3 2096.7 -153.4 2110.4 -152.8 2124.1 -151.5 2137.9 -149.6 2151.7 -146.9 2165.5 -143.5 2179.3 -139.5 2192.9 -134.8 2206.5 -129.4 2219.9 -123.4 2233.1 -116.8 2246.2 -109.6 2258.9 -101.7 2271.4 -93.4 2283.6 -84.4 2295.4 -74.9 2306.9 -65 2318 -54.5 2328.6 -43.6 2338.8 -32.3 2348.5 -20.6 2357.7 -8.5 2366.3 3.9 2374.5 16.6 2382 29.6 2389 42.8 2395.4 56.3 2401.1 69.9 2406.2 83.6 2410.7 97.4 2414.5 111.3 2417.6 125.2 2420 139.2 2421.8 153 2422.9 166.8 2423.3 180.5 2423 194.1 2422 207.4 2420.3 220.6 2418 233.5 2414.9 246.1 2411.2 258.4 2406.9 270.4 2401.9 282 2396.2 293.2 2389.9 303.9 2383 314.2 2375.6 324 2367.5 333.3 2358.9 342.1 2349.8 350.3 2340.2 357.9 2330.1 364.9 2319.5 371.3 2308.5 377.1 2297.1 382.3 2285.3 386.7 2273.2 390.5 2260.7 393.7 2248 396.1 2235 397.9 2221.8 398.9 2208.4 399.3 2194.9 398.9 2181.2 397.9 2167.5 396.1 2153.7 393.7 2139.8 390.5 2126 386.7 2112.3 382.2 2098.6 377.1 2085.1 371.3 2071.7 364.9 2058.5 357.9 2045.5 350.2 2032.8 342 2020.4 333.3 2008.3 324 1996.5 314.2 1985.1 303.9 1974.1 293.1 1963.5 281.9 1953.4 270.3 1943.8 258.4 1934.7 246.1 1926.1 233.5 1918.1 220.6 1910.6 207.4 1903.8 194 1897.5 180.5 1891.9 166.8 1886.9 153 1882.5 139.1 1878.8 125.2 1875.8 111.3 1873.5 97.4 1871.8 83.6 1870.8 69.8 1870.6 56.2 1871 42.8 1872.1 29.6 1873.9 16.6 1876.3 3.9 1879.5 -8.5 1883.3 -20.6 1887.8 -32.3 1892.9 -43.7 1898.7 -54.6 1905 -65 1912 -75 1919.6 -84.4 1927.7 -93.4 1936.4 -101.8 1945.6 -109.6 1955.4 -116.8 1965.5 -123.4 1976.2 -129.4 1987.3 -134.8 1998.7 -139.5 2010.6 -143.5 2022.8 -146.9 2035.3 -149.6 2048 -151.5 2061.1 -152.8 2074.3 -153.4 2087.7 -153.3 2101.3 -152.5 2115 -151 2128.7 -148.7 2142.5 -145.8 2156.3 -142.3 2170.1 -138 2183.9 -133.1 2197.5 -127.5 2211 -121.3 2224.4 -114.5 2237.5 -107 2250.5 -99 2263.2 -90.4 2275.5 -81.3 2287.6 -71.7 2299.3 -61.5 2310.7 -50.9 2321.6 -39.9 2332.1 -28.4 2342.1 -16.6 2351.6 -4.4 2360.6 8.1 2369.1 20.9 2377.1 34 2384.4 47.3 2391.2 60.8 2397.4 74.4 2402.9 88.2 2407.8 102.1 2412 116 2415.6 129.9 2418.5 143.8 2420.7 157.7 2422.3 171.4 2423.1 185.1 2423.3 198.6 2422.7 211.9 2421.5 224.9 2419.6 237.7 2417 250.3 2413.8 262.4 2409.8 274.3 2405.3 285.7 2400 296.8 2394.2 307.4 2387.7 317.5 2380.6 327.2 2372.9 336.3 2364.7 344.9 2355.9 352.9 2346.6 360.3 2336.8 367.1 2326.6 373.3 2315.8 378.9 2304.7 383.8 2293.1 388.1 2281.2 391.7 2269 394.6 2256.5 396.8 2243.6 398.3 2230.6 399.1 2217.3 399.2 2203.9 398.6 2190.3 397.4 2176.6 395.4 2162.8 392.7 2149 389.3 2135.2 385.3 2121.4 380.6 2107.7 375.2 2094.1 369.2 2080.6 362.6 2067.2 355.4 2054.1 347.6 2041.2 339.2 2028.6 330.2 2016.3 320.8 2004.3 310.8 1992.6 300.3 1981.3 289.4 1970.5 278.1 1960.1 266.4 1950.1 254.3 1940.7 241.9 1931.7 229.2 1923.3 216.2 1915.5 203 1908.2 189.5 1901.6 175.9 1895.5 162.2 1890.1 148.4 1885.3 134.5 1881.2 120.6 1877.7 106.6 1874.9 92.8 1872.8 79 1871.4 65.3 1870.7 51.7 1870.6 38.4 1871.3 25.2 1872.6 12.3 1874.6 -.3 1877.3 -12.6 1880.7 -24.6 1884.7 -36.2 1889.4 -47.3 1894.8 -58.1 1900.7 -68.4 1907.3 -78.2 1914.5 -87.5 1922.3 -96.2 1930.6 -104.4 1939.5 -112.1 1948.8 -119.1 1958.7 -125.5 1969.1 -131.3 1979.9 -136.4 1991.1 -140.9 2002.7 -144.7 2014.6 -147.9 2026.9 -150.3 2039.5 -152.1 2052.4 -153.1 2065.5 -153.5 2078.8 -153.1 2092.3 -152 2105.9 -150.3 2119.6 -147.9 2133.4 -144.7 2147.2 -140.9 2161 -136.4 2174.8 -131.3 2188.5 -125.5 2202.1 -119.1 2215.5 -112 2228.8 -104.4 2241.9 -96.2 2254.8 -87.4 2267.4 -78.2 2279.6 -68.3 2291.6 -58.1 2303.2 -47.3 2314.4 -36.1 2325.2 -24.5 2335.5 -12.6 2345.4 -.3 2354.7 12.4 2363.6 25.3 2371.9 38.4 2379.6 51.8 2386.8 65.3 2393.3 79 2399.3 92.8 2404.6 106.7 2409.3 120.6 2413.3 134.5 2416.6 148.4 2419.3 162.3 2421.3 176 2422.6 189.6 2423.2 203 2423.2 216.2 2422.4 229.2 2421 241.9 2418.8 254.4 2416 266.4 2412.5 278.2 2408.4 289.5 2403.6 300.4 2398.1 310.8 2392 320.8 2385.4 330.3 2378.1 339.2 2370.2 347.6 2361.8 355.4 2352.9 362.6 2343.4 369.3 2333.4 375.3 2323 380.6 2312.1 385.3 2300.8 389.4 2289.2 392.7 2277.2 395.4 2264.8 397.4 2252.2 398.7 2239.3 399.2 2226.1 399.1 2212.8 398.3 2199.3 396.8 2185.7 394.6 2172 391.7 2158.2 388.1 2144.4 383.8 2130.6 378.9 2116.8 373.3 2103.1 367.1 2089.5 360.3 2076.1 352.8 2062.8 344.8 2049.8 336.2 2036.9 327.1 2024.4 317.5 2012.2 307.4 2000.3 296.8 1988.8 285.7 1977.6 274.2 1966.9 262.4 1956.7 250.2 1946.9 237.7 1937.6 224.9 1928.9 211.8 1920.6 198.5 1913 185 1905.9 171.4 1899.5 157.6 1893.6 143.8 1888.4 129.8 1883.9 115.9 1880 102 1876.7 88.2 1874.2 74.4 1872.3 60.7 1871.1 47.3 1870.6 34 1870.8 20.9 1871.6 8.1 1873.2 -4.4 1875.5 -16.6 1878.4 -28.5 1882 -39.9 1886.2 -51 1891.2 -61.6 1896.7 -71.7 1902.9 -81.3 1909.7 -90.5 1917.1 -99 1925 -107.1 1933.5 -114.5 1942.6 -121.3 1952.1 -127.5 1962.2 -133.1 1972.7 -138 1983.6 -142.3 1994.9 -145.9 2006.7 -148.8 2018.7 -151 2031.1 -152.5 2043.8 -153.3 2056.8 -153.4 2069.9 -152.8 2083.3 -151.5 2096.8 -149.6 2110.5 -146.9 2124.2 -143.5 2138 -139.5 2151.8 -134.8 2165.6 -129.4 2179.4 -123.4 2193.1 -116.8 2206.6 -109.6 2220 -101.7 2233.3 -93.3 2246.3 -84.4 2259 -74.9 2271.5 -65 2283.7 -54.5 2295.5 -43.6 2307 -32.3 2318 -20.6 2328.7 -8.5 2338.9 3.9 2348.6 16.6 2357.8 29.6 2366.4 42.9 2374.5 56.3 2382.1 69.9 2389 83.6 2395.4 97.4 2401.1 111.3 2406.2 125.3 2410.7 139.2 2414.5 153.1 2417.6 166.9 2420.1 180.5 2421.8 194.1 2422.9 207.5 2423.3 220.6 2423 233.5 2422 246.1 2420.3 258.4 2418 270.4 2414.9 282 2411.2 293.2 2406.8 303.9 2401.8 314.2 2396.1 324 2389.9 333.3 2383 342.1 2375.5 350.3 2367.5 357.9 2358.9 364.9 2349.7 371.3 2340.1 377.1 2330 382.3 2319.4 386.7 2308.4 390.6 2297 393.7 2285.2 396.1 2273 397.9 2260.6 398.9 2247.9 399.3 2234.9 398.9 2221.7 397.9 2208.3 396.1 2194.7 393.7 2181.1 390.5 2167.3 386.7 2153.5 382.2 2139.7 377.1 2125.9 371.3 2112.2 364.9 2098.5 357.9 2085 350.2 2071.6 342 2058.4 333.3 2045.4 324 2032.7 314.2 2020.3 303.9 2008.1 293.1 1996.4 281.9 1985 270.3 1974 258.4 1963.4 246.1 1953.3 233.4 1943.7 220.5 1934.6 207.4 1926 194 1918 180.5 1910.6 166.8 1903.7 153 1897.4 139.1 1891.8 125.2 1886.8 111.3 1882.5 97.4 1878.8 83.5 1875.8 69.8 1873.5 56.2 1871.8 42.8 1870.8 29.6 1870.6 16.6 1871 3.9 1872.1 -8.5 1873.9 -20.6 1876.4 -32.3 1879.5 -43.7 1883.3 -54.6 1887.8 -65 1893 -75 1898.7 -84.4 1905.1 -93.4 1912.1 -101.8 1919.7 -109.6 1927.8 -116.8 1936.5 -123.5 1945.7 -129.4 1955.4 -134.8 1965.6 -139.5 1976.3 -143.5 1987.4 -146.9 1998.8 -149.6 2010.7 -151.5 2022.9 -152.8 2035.4 -153.4 2048.2 -153.3 2061.2 -152.5 2074.4 -151 2087.8 -148.7 2101.4 -145.8 2115.1 -142.2 2128.8 -138 2142.6 -133.1 2156.5 -127.5 2170.3 -121.3 2184 -114.5 2197.6 -107 2211.1 -99 2224.5 -90.4 2237.7 -81.3 2250.6 -71.7 2263.3 -61.5 2275.7 -50.9 2287.7 -39.9 2299.4 -28.4 2310.8 -16.6 2321.7 -4.4 2332.2 8.1 2342.2 20.9 2351.7 34 2360.7 47.3 2369.2 60.8 2377.1 74.4 2384.5 88.2 2391.3 102.1 2397.4 116 2402.9 129.9 2407.8 143.8 2412 157.7 2415.6 171.4 2418.5 185.1 2420.7 198.6 2422.3 211.9 2423.1 224.9 2423.3 237.7 2422.7 250.3 2421.5 262.5 2419.6 274.3 2417 285.8 2413.7 296.8 2409.8 307.4 2405.2 317.5 2400 327.2 2394.1 336.3 2387.6 344.9 2380.5 352.9 2372.9 360.3 2364.6 367.1 2355.8 373.3 2346.5 378.9 2336.7 383.8 2326.5 388.1 2315.7 391.7 2304.6 394.6 2293 396.8 2281.1 398.3 2268.9 399.1 2256.3 399.2 2243.5 398.6 2230.5 397.4 2217.2 395.4 2203.7 392.7 2190.2 389.3 2176.5 385.3 2162.7 380.6 2148.9 375.2 2135.1 369.2 2121.3 362.6 2107.6 355.4 2093.9 347.6 2080.5 339.2 2067.1 330.2 2054 320.8 2041.1 310.8 2028.5 300.3 2016.2 289.4 2004.1 278.1 1992.5 266.4 1981.2 254.3 1970.4 241.9 1960 229.2 1950 216.2 1940.6 203 1931.7 189.5 1923.3 175.9 1915.4 162.2 1908.2 148.4 1901.5 134.5 1895.5 120.6 1890.1 106.6 1885.3 92.8 1881.2 79 1877.7 65.3 1874.9 51.7 1872.8 38.4 1871.4 25.2 1870.7 12.3 1870.6 -.3 1871.3 -12.6 1872.6 -24.6 1874.6 -36.2 1877.4 -47.3 1880.7 -58.1 1884.8 -68.4 1889.5 -78.2 1894.8 -87.5 1900.8 -96.2 1907.4 -104.5 1914.6 -112.1 1922.3 -119.1 1930.7 -125.5 1939.5 -131.3 1948.9 -136.4 1958.8 -140.9 1969.2 -144.7 1980 -147.9 1991.2 -150.3 2002.8 -152.1 2014.8 -153.1 2027.1 -153.5 2039.6 -153.1 2052.5 -152 2065.6 -150.3 2078.9 -147.8 2092.4 -144.7 2106 -140.9 2119.7 -136.4 2133.5 -131.3 2147.3 -125.5 2161.1 -119.1 2174.9 -112 2188.6 -104.4 2202.2 -96.2 2215.7 -87.4 2229 -78.1 2242 -68.3 2254.9 -58 2267.5 -47.3 2279.7 -36.1 2291.7 -24.5 2303.3 -12.6 2314.5 -.2 2325.2 12.4 2335.6 25.3 2345.4 38.4 2354.8 51.8 2363.6 65.3 2371.9 79 2379.7 92.8 2386.8 106.7 2393.4 120.6 2399.3 134.6 2404.6 148.4 2409.3 162.3 2413.3 176 2416.7 189.6 2419.3 203 2421.3 216.3 2422.6 229.2 2423.2 242 2423.2 254.4 2422.4 266.5 2420.9 278.2 2418.8 289.5 2416 300.4 2412.5 310.8 2408.3 320.8 2403.5 330.3 2398.1 339.2 2392 347.6 2385.3 355.4 2378 362.7 2370.2 369.3 2361.7 375.3 2352.8 380.6 2343.3 385.3 2333.3 389.4 2322.9 392.7 2312 395.4 2300.7 397.4 2289.1 398.7 2277.1 399.2 2264.7 399.1 2252.1 398.3 2239.2 396.8 2226 394.6 2212.7 391.7 2199.2 388.1 2185.6 383.8 2171.8 378.9 2158.1 373.3 2144.2 367.1 2130.4 360.3 2116.7 352.8 2103 344.8 2089.4 336.2 2076 327.1 2062.7 317.5 2049.6 307.3 2036.8 296.7 2024.3 285.7 2012.1 274.2 2000.2 262.4 1988.7 250.2 1977.5 237.7 1966.8 224.9 1956.6 211.8 1946.8 198.5 1937.5 185 1928.8 171.4 1920.6 157.6 1912.9 143.7 1905.9 129.8 1899.4 115.9 1893.6 102 1888.4 88.1 1883.8 74.4 1879.9 60.7 1876.7 47.2 1874.1 33.9 1872.3 20.9 1871.1 8.1 1870.6 -4.4 1870.8 -16.6 1871.7 -28.5 1873.2 -39.9 1875.5 -51 1878.4 -61.6 1882 -71.7 1886.3 -81.4 1891.2 -90.5 1896.8 -99 1902.9 -107.1 1909.7 -114.5 1917.1 -121.3 1925.1 -127.5 1933.6 -133.1 1942.6 -138 1952.2 -142.3 1962.2 -145.9 1972.8 -148.8 1983.7 -151 1995 -152.5 2006.8 -153.3 2018.9 -153.4 2031.3 -152.8 2043.9 -151.5 2056.9 -149.6 2070.1 -146.9 2083.4 -143.5 2096.9 -139.5 2110.6 -134.8 2124.3 -129.4 2138.1 -123.4 2151.9 -116.8 2165.7 -109.6 2179.5 -101.7 2193.2 -93.3 2206.7 -84.4 2220.1 -74.9 2233.4 -65 2246.4 -54.5 2259.2 -43.6 2271.6 -32.3 2283.8 -20.6 2295.6 -8.5 2307.1 3.9 2318.1 16.7 2328.8 29.6 2338.9 42.9 2348.6 56.3 2357.8 69.9 2366.5 83.6 2374.6 97.5 2382.2 111.3 2389.1 125.3 2395.5 139.2 2401.2 153.1 2406.3 166.9 2410.7 180.6 2414.5 194.1 2417.6 207.5 2420.1 220.6 2421.8 233.5 2422.9 246.1 2423.3 258.4 2423 270.4 2422 282 2420.3 293.2 2417.9 303.9 2414.9 314.2 2411.2 324 2406.8 333.3 2401.8 342.1 2396.1 350.3 2389.8 357.9 2382.9 364.9 2375.4 371.3 2367.4 377.1 2358.8 382.3 2349.6 386.7 2340 390.6 2329.9 393.7 2319.3 396.1 2308.3 397.9 2296.9 398.9 2285.1 399.3 2272.9 398.9 2260.5 397.9 2247.8 396.1 2234.8 393.7 2221.6 390.5 2208.2 386.7 2194.6 382.2 2181 377.1 2167.2 371.3 2153.4 364.9 2139.6 357.9 2125.8 350.2 2112 342 2098.4 333.3 2084.9 324 2071.5 314.2 2058.3 303.9 2045.3 293.1 2032.6 281.9 2020.2 270.3 2008 258.4 1996.3 246.1 1984.9 233.4 1973.9 220.5 1963.3 207.4 1953.2 194 1943.6 180.5 1934.5 166.8 1926 153 1917.9 139.1 1910.5 125.2 1903.6 111.3 1897.4 97.4 1891.8 83.5 1886.8 69.8 1882.4 56.2 1878.8 42.8 1875.8 29.6 1873.4 16.6 1871.8 3.9 1870.8 -8.6 1870.6 -20.6 1871 -32.4 1872.1 -43.7 1873.9 -54.6 1876.4 -65 1879.6 -75 1883.4 -84.5 1887.9 -93.4 1893 -101.8 1898.8 -109.6 1905.2 -116.8 1912.2 -123.5 1919.7 -129.5 1927.9 -134.8 1936.6 -139.5 1945.8 -143.5 1955.5 -146.9 1965.7 -149.6 1976.4 -151.6 1987.5 -152.8 1998.9 -153.4 2010.8 -153.3 2023 -152.5 2035.5 -151 2048.3 -148.7"/>
      </g>
    </g>
  </g>
</svg>