<?xml version="1.0" encoding="utf-8" standalone="no"?>
<!DOCTYPE svg PUBLIC "-//W3C//DTD SVG 1.1//EN" "http://www.w3.org/Graphics/SVG/1.1/DTD/svg11.dtd">
<svg version="1.1" width="360pt" height="360pt" viewBox="0 0 360 360" overflow="visible" xmlns="http://www.w3.org/2000/svg">
  <path d="M916.7232,55.45232 C916.7248,55.43019 916.8471,55.46599 916.9507,55.49775" stroke="#009600" stroke-width="0.48" fill="none" />
  <path d="M177.0138,55.44827 L184.4078,55.53015 L191.7833,55.77568 L199.1219,56.18452 L206.4052,56.7561 L213.6151,57.48964 L220.7335,58.38412 L227.7426,59.4383 L234.6249,60.65071 L241.3632,62.0197 L247.9407,63.54335 L254.3409,65.21957 L260.5478,67.04603 L266.5459,69.0202 L272.3203,71.13936 L277.8564,73.40057 L283.1404,75.8007 L288.1593,78.33643 L292.9003,81.00426 L297.3516,83.80048 L301.5022,86.72124 L305.3416,89.76249 L308.8603,92.92003 L312.0493,96.18948 L314.9009,99.56631 L317.4079,103.0459 L319.5639,106.6233 L321.3636,110.2937 L322.8026,114.052 L323.8771,117.893 L324.5846,121.8113 L324.9232,125.8016 L324.8921,129.8582 L324.4914,133.9757 L323.7221,138.1483 L322.586,142.3702 L321.0862,146.6356 L319.2262,150.9386 L317.0107,155.2732 L314.4454,159.6335 L311.5365,164.0134 L308.2914,168.4068 L304.7182,172.8077 L300.8258,177.2099 L296.6239,181.6075 L292.123,185.9942 L287.3344,190.364 L282.2701,194.711 L276.9427,199.029 L271.3656,203.3121 L265.5526,207.5544 L259.5183,211.75 L253.2778,215.893 L246.8466,219.9778 L240.241,223.9988 L233.4772,227.9502 L226.5724,231.8268 L219.5437,235.623 L212.4087,239.3338 L205.1852,242.9538 L197.8913,246.4782 L190.5452,249.9019 L183.1653,253.2204 L175.77,256.429 L168.3778,259.5233 L161.0072,262.499 L153.6767,265.3519 L146.4044,268.0782 L139.2087,270.674 L132.1074,273.1357 L125.1184,275.4601 L118.2591,277.6437 L111.5467,279.6837 L104.9979,281.5771 L98.62909,283.3215 L92.45621,284.9143 L86.49467,286.3533 L80.7594,287.6367 L75.2647,288.7625 L70.02433,289.7292 L65.05137,290.5355 L60.35826,291.1803 L55.95673,291.6627 L51.85778,291.982 L48.07165,292.1378 L44.60781,292.1299 L41.47492,291.9582 L38.68081,291.623 L36.23245,291.1248 L34.13597,290.4642 L32.39662,289.6423 L31.01873,288.66 L30.00575,287.5188 L29.36022,286.2203 L29.08375,284.7662 L29.17702,283.1586 L29.6398,281.3997 L30.47095,279.4919 L31.66838,277.4378 L33.22909,275.2403 L35.14919,272.9025 L37.42388,270.4276 L40.04747,267.8189 L43.0134,265.0802 L46.31427,262.2151 L49.94182,259.2278 L53.88698,256.1222 L58.13989,252.9027 L62.68993,249.5738 L67.52572,246.14 L72.63517,242.6062 L78.00551,238.9771 L83.62332,235.2578 L89.47456,231.4536 L95.5446,227.5695 L101.8183,223.611 L108.2799,219.5836 L114.9133,215.4929 L121.702,211.3445 L128.6288,207.1441 L135.6767,202.8976 L142.8278,198.6109 L150.0644,194.2898 L157.3684,189.9403 L164.7214,185.5686 L172.1052,181.1805 L179.5013,176.7823 L186.8911,172.3799 L194.2562,167.9794 L201.5783,163.5871 L208.8389,159.2089 L216.02,154.8508 L223.1037,150.519 L230.0721,146.2194 L236.9079,141.958 L243.5939,137.7406 L250.1136,133.5731 L256.4506,129.4613 L262.589,125.4108 L268.5135,121.4273 L274.2093,117.5163 L279.6622,113.6831 L284.8585,109.9332 L289.7852,106.2715 L294.4301,102.7034 L298.7815,99.2336 L302.8286,95.867 L306.5612,92.60823 L309.9699,89.46181 L313.0464,86.43208 L315.7828,83.52325 L318.1724,80.73933 L320.2092,78.08418 L321.888,75.56147 L323.2048,73.1747 L324.1561,70.92716 L324.7397,68.82197 L324.954,66.86203 L324.7986,65.05006 L324.2737,63.38857 L323.3808,61.87986 L322.1221,60.52601 L320.5006,59.3289 L318.5206,58.29018 L316.1868,57.41129 L313.5051,56.69344 L310.4824,56.13764 L307.1259,55.74465 L303.4443,55.51501 L299.4467,55.44904 L295.1431,55.54683 L290.5442,55.80825 L285.6615,56.23293 L280.5073,56.82029 L275.0944,57.56952 L269.4363,58.47957 L263.5472,59.54919 L257.4419,60.7769 L251.1355,62.161 L244.6439,63.69957 L237.9832,65.3905 L231.1701,67.23141 L224.2216,69.2198 L217.1552,71.35289 L209.9884,73.62774 L202.7392,76.0412 L195.4258,78.58992 L188.0662,81.27039 L180.6791,84.07889 L173.2828,87.01154 L165.8958,90.06428 L158.5366,93.23288 L151.2236,96.51296 L143.9751,99.89999 L136.8091,103.3893 L129.7437,106.976 L122.7964,110.6552 L115.9846,114.4217 L109.3253,118.2704 L102.8352,122.196 L96.53055,126.1929 L90.42704,130.2558 L84.53996,134.3788 L78.88402,138.5565 L73.47335,142.7829 L68.32148,147.0522 L63.44128,151.3585 L58.84495,155.6959 L54.54398,160.0583 L50.54913,164.4398 L46.87037,168.8342 L43.5169,173.2355 L40.4971,177.6375 L37.81853,182.0343 L35.48787,186.4196 L33.51095,190.7875 L31.89271,195.1319 L30.6372,199.4468 L29.74756,203.7262 L29.226,207.9642 L29.07384,212.1549 L29.29145,216.2926 L29.87829,220.3714 L30.83289,224.3859 L32.15287,228.3303 L33.83492,232.1993 L35.87485,235.9875 L38.26755,239.6896 L41.00704,243.3005 L44.08648,246.8153 L47.49817,250.2291 L51.23358,253.5371 L55.28338,256.7348 L59.63744,259.8177 L64.28487,262.7816 L69.21407,265.6224 L74.41272,268.3362 L79.86781,270.9191 L85.56572,273.3677 L91.4922,275.6785 L97.63244,277.8483 L103.9711,279.8741 L110.4923,281.7532 L117.1798,283.4829 L124.0168,285.0609 L130.9864,286.4849 L138.0709,287.753 L145.2528,288.8634 L152.5141,289.8146 L159.8366,290.6053 L167.202,291.2343 L174.592,291.7009 L181.988,292.0043 L189.3716,292.1442 L196.7243,292.1204 L204.0278,291.9328 L211.2637,291.5817 L218.414,291.0677 L225.4608,290.3914 L232.3866,289.5538 L239.1739,288.5561 L245.8058,287.3995 L252.2659,286.0858 L258.5378,284.6167 L264.606,282.9943 L270.4552,281.2208 L276.0709,279.2986 L281.439,277.2305 L286.546,275.0193 L291.3793,272.668 L295.9268,270.1799 L300.177,267.5584 L304.1194,264.8073 L307.7441,261.9302 L311.042,258.9312 L314.0049,255.8143 L316.6254,252.584 L318.897,249.2447 L320.8139,245.801 L322.3714,242.2576 L323.5656,238.6196 L324.3935,234.8918 L324.853,231.0795 L324.943,227.188 L324.6632,223.2226 L324.0144,219.1888 L322.9982,215.0923 L321.6171,210.9385 L319.8745,206.7334 L317.7749,202.4828 L315.3235,198.1924 L312.5263,193.8683 L309.3904,189.5164 L305.9237,185.1428 L302.1348,180.7535 L298.0331,176.3546 L293.6289,171.9521 L288.9333,167.5522 L283.9579,163.1609 L278.7152,158.7844 L273.2183,154.4286 L267.4809,150.0997 L261.5175,145.8036 L255.3428,141.5461 L248.9723,137.3334 L242.422,133.171 L235.7081,129.0649 L228.8476,125.0207 L221.8575,121.044 L214.7554,117.1403 L207.5589,113.315 L200.286,109.5734 L192.955,105.9207 L185.5842,102.3618 L178.1919,98.90187 L170.7966,95.54555 L163.417,92.29749 L156.0713,89.16222 L148.7779,86.14407 L141.5551,83.24719 L134.421,80.47562 L127.3933,77.83318 L120.4896,75.32354 L113.7272,72.95015 L107.123,70.71631 L100.6935,68.62511 L94.45476,66.67943 L88.42236,64.88198 L82.6114,63.23524 L77.03638,61.74148 L71.71127,60.40278 L66.64935,59.22099 L61.8633,58.19774 L57.36505,57.33445 L53.16586,56.63232 L49.27623,56.0923 L45.70588,55.71516 L42.46373,55.50142 L39.55788,55.45136 L36.99561,55.56506 L34.7833,55.84236 L32.9265,56.28288 L31.42984,56.88601 L30.29706,57.65091 L29.531,58.57653 L29.13357,59.66158 L29.10576,60.90456 L29.44765,62.30376 L30.15837,63.85723 L31.23616,65.56284 L32.67831,67.4182 L34.48123,69.42077 L36.64041,71.56777 L39.15044,73.85622 L42.00507,76.28297 L45.19714,78.84466 L48.71869,81.53773 L52.56091,84.35847 L56.71419,87.30297 L61.16816,90.36715 L65.91169,93.54678 L70.93291,96.83746 L76.21928,100.2346 L81.75758,103.7336 L87.53397,107.3295 L93.53402,111.0174 L99.74273,114.7922 L106.1446,118.6486 L112.7235,122.5813 L119.4632,126.5849 L126.3467,130.6538 L133.3569,134.7825 L140.4762,138.9651 L147.6868,143.1959 L154.9707,147.4691 L162.3097,151.7787 L169.6854,156.1188 L177.0795,160.4833 L184.4734,164.8663 L191.8486,169.2616 L199.1868,173.6633 L206.4696,178.0651 L213.6787,182.461 L220.7962,186.8449 L227.8043,191.2108 L234.6854,195.5526 L241.4223,199.8643 L247.9983,204.1399 L254.3969,208.3736 L260.602,212.5594 L266.5982,216.6916 L272.3705,220.7645 L277.9044,224.7723 L283.1862,228.7096 L288.2026,232.571 L292.9411,236.351 L297.3898,240.0445 L301.5377,243.6464 L305.3743,247.1516 L308.89,250.5553 L312.0762,253.8528 L314.9247,257.0395 L317.4286,260.111 L319.5815,263.0631 L321.378,265.8918 L322.8138,268.593 L323.885,271.163 L324.5892,273.5983 L324.9245,275.8955 L324.8902,278.0515 L324.4862,280.0632 L323.7136,281.9279 L322.5743,283.643 L321.0712,285.2061 L319.2081,286.615 L316.9895,287.8678 L314.4211,288.9628 L311.5092,289.8985 L308.2611,290.6735 L304.685,291.2868 L300.7898,291.7375 L296.5852,292.0251 L292.0817,292.1491 L287.2907,292.1093 L282.224,291.9058 L276.8943,291.5389 L271.315,291.0091 L265.4999,290.3171 L259.4637,289.4639 L253.2215,288.4507 L246.7887,287.2787 L240.1816,285.9499 L233.4165,284.4658 L226.5105,282.8286 L219.4808,281.0405 L212.3449,279.104 L205.1207,277.0219 L197.8262,274.7969 L190.4798,272.4322 L183.0996,269.931 L175.7043,267.2968 L168.3123,264.5332 L160.9419,261.644 L153.6118,258.6334 L146.3401,255.5053 L139.1452,252.2642 L132.0448,248.9146 L125.0569,245.461 L118.1988,241.9082 L111.4878,238.2612 L104.9405,234.525 L98.57338,230.7048 L92.40231,226.8059 L86.44272,222.8336 L80.70952,218.7934 L75.21702,214.6911 L69.97897,210.5321 L65.00844,206.3223 L60.31787,202.0675 L55.91898,197.7736 L51.82276,193.4465 L48.03946,189.0923 L44.57852,184.7169 L41.4486,180.3264 L38.65753,175.9268 L36.21227,171.5244 L34.11895,167.125 L32.38278,162.7349 L31.00812,158.3602 L29.9984,154.0067 L29.35614,149.6807 L29.08295,145.3881 L29.1795,141.1347 L29.64557,136.9266 L30.47998,132.7695 L31.68064,128.6691 L33.24457,124.6313 L35.16784,120.6614 L37.44566,116.7651 L40.07232,112.9477 L43.04126,109.2145 L46.34507,105.5706 L49.97548,102.0212 L53.92341,98.57112 L58.17902,95.22511 L62.73164,91.98782 L67.56991,88.86375 L72.68173,85.85719 L78.05434,82.97233 L83.67428,80.21313 L89.52753,77.58344 L95.59945,75.08688 L101.8749,72.72691 L108.3381,70.50681 L114.9729,68.42962 L121.7629,66.49823 L128.6909,64.71532 L135.7397,63.08334 L142.8917,61.60457 L150.129,60.28104 L157.4335,59.11459 L164.7869,58.10682 L172.1709,57.25914 L179.5669,56.57272 L186.9566,56.0485 L194.3215,55.68722 L201.6431,55.48937 L208.9031,55.45522 L216.0834,55.58483 L223.1661,55.87801 L230.1334,56.33437 L236.9679,56.95325 L243.6526,57.73382 L250.1707,58.67499 L256.506,59.77546 L262.6425,61.0337 L268.5651,62.44797 L274.2588,64.01633 L279.7095,65.73659 L284.9034,67.60638 L289.8278,69.6231 L294.4701,71.78398 L298.8188,74.08602 L302.8631,76.52603 L306.5929,79.10064 L309.9987,81.80628 L313.0722,84.63922 L315.8056,87.59553 L318.192,90.67112 L320.2257,93.86173 L321.9013,97.16296 L323.2148,100.5702 L324.1629,104.0788 L324.7432,107.6839 L324.9543,111.3805 L324.7955,115.1634 L324.2674,119.0275 L323.3712,122.9673 L322.1093,126.9775 L320.4846,131.0525 L318.5014,135.1866 L316.1645,139.3742 L313.4798,143.6094 L310.454,147.8864 L307.0947,152.1992 L303.4102,156.5419 L299.4098,160.9085 L295.1035,165.293 L290.502,169.6892 L285.6169,174.0911 L280.4603,178.4926 L275.0452,182.8876 L269.385,187.2701 L263.494,191.6339 L257.3867,195.973 L251.0786,200.2814 L244.5854,204.5533 L237.9233,208.7825 L231.1089,212.9634 L224.1594,217.0901 L217.092,221.1568 L209.9244,225.1581 L202.6745,229.0883 L195.3606,232.942 L188.0007,236.7138 L180.6134,240.3986 L173.2171,243.9913 L165.8303,247.4868 L158.4715,250.8804 L151.159,254.1673 L143.9111,257.343 L136.7459,260.4032 L129.6814,263.3435 L122.7352,266.1599 L115.9247,268.8485 L109.2669,271.4056 L102.7784,273.8276 L96.47543,276.1113 L90.37378,278.2534 L84.48869,280.2509 L78.83486,282.1012 L73.42644,283.8016 L68.27692,285.3498 L63.39919,286.7436 L58.80544,287.9812 L54.50714,289.0608 L50.51505,289.9809 L46.83914,290.7402 L43.4886,291.3378 L40.4718,291.7727 L37.79629,292.0443 L35.46875,292.1524 L33.49499,292.0967 L31.87996,291.8773 L30.62769,291.4946 L29.7413,290.949 L29.22302,290.2413 L29.07415,289.3724 L29.29504,288.3437 L29.88515,287.1565 L30.84301,285.8124 L32.16622,284.3134 L33.85147,282.6614 L35.89455,280.8588 L38.29036,278.9081 L41.03291,276.8119 L44.11533,274.5732 L47.52993,272.1951 L51.26818,269.6808 L55.32072,267.0338 L59.67744,264.2579 L64.32743,261.3568 L69.25908,258.3345 L74.46006,255.1953 L79.91737,251.9434 L85.61737,248.5835 L91.54581,245.12 L97.68789,241.5579 L104.0282,237.902 L110.551,234.1574 L117.2399,230.3293 L124.0782,226.423 L131.0488,222.4439 L138.1343,218.3975 L145.317,214.2893 L152.5789,210.1252 L159.9018,205.9108 L167.2676,201.6519 L174.6577,197.3545 L182.0537,193.0246 L189.4371,188.668 L196.7894,184.2908 L204.0923,179.8992 L211.3276,175.4991 L218.4771,171.0966 L225.5229,166.698 L232.4475,162.3091 L239.2335,157.9361 L245.864,153.5851 L252.3224,149.262 L258.5926,144.973 L264.6589,140.7238 L270.5061,136.5203 L276.1197,132.3685 L281.4855,128.274 L286.5902,124.2424 L291.421,120.2795 L295.9659,116.3906 L300.2134,112.5812 L304.153,108.8564 L307.7748,105.2215 L311.0698,101.6815 L314.0297,98.24135 L316.6472,94.90571 L318.9156,91.67923 L320.8293,88.56638 L322.3836,85.57147 L323.5746,82.69864 L324.3992,79.95187 L324.8554,77.33496 L324.9421,74.85152 L324.6591,72.505 L324.007,70.29865 L322.9875,68.2355 L321.6032,66.31843 L319.8575,64.55008 L317.7547,62.9329 L315.3001,61.46912 L312.4999,60.16078 L309.3611,59.00968 L305.8914,58.01741 L302.0997,57.18535 L297.9953,56.51465 L293.5885,56.00624 L288.8903,55.66082 L283.9124,55.47887 L278.6674,55.46064 L273.1684,55.60615 L267.4289,55.91521 L261.4635,56.38738 L255.287,57.02202 L248.9149,57.81825 L242.363,58.77496 L235.6478,59.89082 L228.7861,61.16431 L221.7949,62.59364 L214.6918,64.17686 L207.4946,65.91175 L200.2211,67.79594 L192.8897,69.8268 L185.5186,72.00153 L178.1262,74.31712 L170.731,76.77036 L163.3515,79.35786 L156.0062,82.07603 L148.7134,84.92113 L141.4913,87.88921 L134.3581,90.97617 L127.3314,94.17773 L120.4289,97.48946 L113.6678,100.9068 L107.0651,104.425 L100.6372,108.0392 L94.40025,111.7443 L88.36975,115.5354 L82.56082,119.407 L76.98797,123.354 L71.66514,127.3707 L66.60561,131.4517 L61.82206,135.5913 L57.32642,139.7837 L53.12994,144.0232 L49.24311,148.3039 L45.67563,152.6199 L42.43643,156.9653 L39.5336,161.3339 L36.97441,165.7197 L34.76524,170.1167 L32.91161,174.5189 L31.41817,178.92 L30.28864,183.3141 L29.52585,187.695 L29.13169,192.0567 L29.10717,196.3931 L29.45234,200.6982 L30.16633,204.9662 L31.24737,209.191 L32.69275,213.3668 L34.49885,217.4879 L36.66117,221.5486 L39.17429,225.5432 L42.03194,229.4662 L45.22698,233.3121 L48.75142,237.0758 L52.59644,240.7518 L56.75244,244.3353 L61.20903,247.8211 L65.95508,251.2045 L70.97871,254.4809 L76.26738,257.6455 L81.80786,260.6942 L87.5863,263.6227 L93.58827,266.4268 L99.79876,269.1028 L106.2022,271.6469 L112.7827,274.0557 L119.5237,276.3257 L126.4085,278.4539 L133.4197,280.4372 L140.5398,282.273 L147.7512,283.9587 L155.0356,285.492 L162.375,286.8708 L169.751,288.093 L177.1452,289.1572 L184.539,290.0617 L191.914,290.8054 L199.2518,291.3871 L206.534,291.8062 L213.7424,292.062 L220.859,292.1542 L227.866,292.0826 L234.7459,291.8473 L241.4815,291.4487 L248.056,290.8873 L254.4529,290.1639 L260.6562,289.2795 L266.6505,288.2353 L272.4207,287.0327 L277.9525,285.6735 L283.232,284.1595 L288.2459,282.4928 L292.9819,280.6757 L297.428,278.7107 L301.5731,276.6006 L305.4069,274.3482 L308.9198,271.9567 L312.103,269.4294 L314.9485,266.7697 L317.4493,263.9814 L319.599,261.0684 L321.3924,258.0345 L322.8249,254.8842 L323.8929,251.6216 L324.5938,248.2514 L324.9259,244.7781 L324.8882,241.2067 L324.4809,237.5419 L323.7051,233.789 L322.5626,229.9531 L321.0562,226.0395 L319.1899,222.0536 L316.9682,218.0009 L314.3967,213.8871 L311.4818,209.7178 L308.2308,205.4988 L304.6518,201.2359 L300.7538,196.9351 L296.5465,192.6023 L292.0404,188.2435 L287.2469,183.8646 L282.1778,179.4719 L276.8458,175.0713 L271.2643,170.669 L265.4473,166.271 L259.4092,161.8834 L253.1652,157.5123 L246.7308,153.1637 L240.1221,148.8437 L233.3558,144.5582 L226.4486,140.3132 L219.4178,136.1145 L212.2811,131.968 L205.0562,127.8794 L197.7612,123.8543 L190.4143,119.8983 L183.034,116.0169 L175.6386,112.2154 L168.2467,108.4992 L160.8766,104.8733 L153.5469,101.3428 L146.2759,97.91257 L139.0817,94.58733 L131.9823,91.3717 L124.9954,88.27013 L118.1386,85.2869 L111.4289,82.42615 L104.8831,79.69183 L98.51768,77.08773 L92.34843,74.61745 L86.39079,72.28442 L80.65965,70.09184 L75.16936,68.04277 L69.93362,66.14004 L64.96553,64.38627 L60.2775,62.7839 L55.88125,61.33514 L51.78777,60.042 L48.00729,58.90627 L44.54925,57.92951 L41.42231,57.11309 L38.63428,56.45812 L36.19212,55.96552 L34.10195,55.63596 L32.36898,55.46991 L30.99754,55.46759 L29.99108,55.62901 L29.35209,55.95395 L29.08218,56.44194 L29.18202,57.09232 L29.65136,57.90419 L30.48903,58.87642 L31.69294,60.00768 L33.26007,61.29639 L35.18652,62.74076 L37.46746,64.33882 L40.09719,66.08833 L43.06914,67.98689 L46.37589,70.03185 L50.00916,72.2204 L53.95987,74.54951 L58.21816,77.01595 L62.77337,79.6163 L67.61413,82.34698 L72.72832,85.20421 L78.10318,88.18403 L83.72527,91.28231 L89.58052,94.49477 L95.65431,97.81697 L101.9315,101.2443 L108.3963,104.772 L115.0326,108.3953 L121.8238,112.109 L128.753,115.9081 L135.8028,119.7874 L142.9557,123.7413 L150.1936,127.7645 L157.4986,131.8514 L164.8524,135.9964 L172.2365,140.1937 L179.6326,144.4375 L187.0222,148.7219 L194.3867,153.041 L201.7079,157.3888 L208.9672,161.7594 L216.1468,166.1466 L223.2285,170.5444 L230.1947,174.9467 L237.028,179.3474 L243.7112,183.7404 L250.2278,188.1198 L256.5614,192.4792 L262.6961,196.8129 L268.6167,201.1147 L274.3083,205.3787 L279.7567,209.599 L284.9484,213.7698 L289.8702,217.8853 L294.51,221.9397 L298.8561,225.9276 L302.8976,229.8433 L306.6245,233.6815 L310.0275,237.4369 L313.098,241.1042 L315.8283,244.6784 L318.2117,248.1544 L320.2421,251.5277 L321.9146,254.7933 L323.2249,257.9469 L324.1697,260.9841 L324.7467,263.9006 L324.9545,266.6925 L324.7924,269.3559 L324.2611,271.887 L323.3617,274.2824 L322.0964,276.5388 L320.4686,278.653 L318.4822,280.6221 L316.1422,282.4434 L313.4544,284.1144 L310.4256,285.6328 L307.0634,286.9964 L303.3761,288.2034 L299.3729,289.2521 L295.0639,290.1411 L290.4599,290.869 L285.5723,291.435 L280.4134,291.8383 L274.996,292.0782 L269.3337,292.1544 L263.4406,292.0669 L257.3316,291.8157 L251.0218,291.4013 L244.527,290.8241 L237.8634,290.085 L231.0478,289.185 L224.0971,288.1253 L217.0287,286.9075 L209.8603,285.5332 L202.6098,284.0042 L195.2954,282.3228 L187.9352,280.4912 L180.5477,278.512 L173.1514,276.3879 L165.7648,274.1219 L158.4063,271.717 L151.0943,269.1767 L143.847,266.5043 L136.6827,263.7038 L129.6192,260.7788 L122.6741,257.7335 L115.8649,254.572 L109.2085,251.2988 L102.7216,247.9183 L96.42033,244.4353 L90.32054,240.8546 L84.43744,237.1811 L78.78573,233.4198 L73.37954,229.5761 L68.23238,225.6552 L63.35712,221.6626 L58.76594,217.6037 L54.47032,213.4843 L50.481,209.3099 L46.80794,205.0864 L43.46032,200.8196 L40.44653,196.5154 L37.77407,192.1798 L35.44965,187.8188 L33.47906,183.4383 L31.86724,179.0445 L30.6182,174.6435 L29.73508,170.2413 L29.22008,165.8441 L29.07448,161.4578 L29.29866,157.0886 L29.89204,152.7426 L30.85316,148.4257 L32.1796,144.1439 L33.86805,139.9031 L35.91429,135.7092 L38.31321,131.5681 L41.0588,127.4854 L44.14421,123.4668 L47.56173,119.5178 L51.3028,115.6439 L55.3581,111.8505 L59.71746,108.1428 L64.37001,104.526 L69.30411,101.005 L74.50742,97.58478 L79.96695,94.26999 L85.66904,91.06525 L91.59945,87.97499 L97.74335,85.00349 L104.0854,82.15485 L110.6097,79.43302 L117.3,76.84177 L124.1395,74.38468 L131.1113,72.06516 L138.1977,69.8864 L145.3811,67.85143 L152.6437,65.96305 L159.9671,64.22389 L167.3331,62.63635 L174.7234,61.20263 L182.1193,59.92471 L189.5025,58.80436 L196.8545,57.84313 L204.1569,57.04234 L211.3915,56.40312 L218.5401,55.92633 L225.5849,55.61265 L232.5084,55.46251 L239.2931,55.4761 L245.9221,55.65342 L252.379,55.99422 L258.6474,56.49802 L264.7118,57.16414 L270.557,57.99165 L276.1684,58.9794 L281.532,60.12602 L286.6343,61.42994 L291.4626,62.88934 L296.0049,64.50221 L300.2498,66.26631 L304.1866,68.17921 L307.8055,70.23826 L311.0976,72.44061 L314.0545,74.7832 L316.6689,77.2628 L318.9342,79.87598 L320.8448,82.61913 L322.3958,85.48845 L323.5835,88.47996 L324.4049,91.58952 L324.8578,94.81284 L324.9413,98.14546 L324.6549,101.5828 L323.9996,105.12 L322.9768,108.7523 L321.5893,112.4745 L319.8404,116.2816 L317.7344,120.1684 L315.2768,124.1293 L312.4735,128.159 L309.3317,132.2518 L305.8592,136.4021 L302.0646,140.6041 L297.9574,144.8521 L293.548,149.1401 L288.8473,153.4623 L283.867,157.8126 L278.6197,162.185 L273.1184,166.5735 L267.3769,170.972 L261.4096,175.3745 L255.2313,179.7747 L248.8575,184.1667 L242.3041,188.5443 L235.5875,192.9016 L228.7245,197.2324 L221.7323,201.5307 L214.6283,205.7908 L207.4303,210.0065 L200.1563,214.1722 L192.8244,218.282 L185.453,222.3302 L178.0605,226.3113 L170.6654,230.2198 L163.2861,234.0502 L155.9412,237.7972 L148.6489,241.4556 L141.4276,245.0205 L134.2952,248.4868 L127.2695,251.8498 L120.3682,255.1048 L113.6085,258.2472 L107.0072,261.2729 L100.581,264.1775 L94.34576,266.957 L88.31716,269.6077 L82.51026,272.1257 L76.93958,274.5078 L71.61902,276.7505 L66.5619,278.8507 L61.78085,280.8056 L57.28782,282.6124 L53.09404,284.2687 L49.21,285.7721 L45.6454,287.1206 L42.40916,288.3123 L39.50935,289.3455 L36.95324,290.2189 L34.7472,290.9312 L32.89676,291.4814 L31.40653,291.8687 L30.28025,292.0927 L29.52072,292.1531 L29.12985,292.0497 L29.10861,291.7826 L29.45706,291.3523 L30.17432,290.7594 L31.25861,290.0046 L32.70721,289.089 L34.51649,288.0139 L36.68195,286.7808 L39.19817,285.3914 L42.05885,283.8475 L45.25684,282.1514 L48.78417,280.3053 L52.632,278.3119 L56.79071,276.1739 L61.24993,273.8942 L65.99849,271.476 L71.02454,268.9227 L76.3155,266.2378 L81.85815,263.4249 L87.63865,260.4881 L93.64253,257.4313 L99.8548,254.2588 L106.2599,250.9749 L112.8419,247.5843 L119.5843,244.0916 L126.4702,240.5016 L133.4824,236.8194 L140.6035,233.0499 L147.8156,229.1984 L155.1006,225.2703 L162.4404,221.271 L169.8167,217.206 L177.2109,213.081 L184.6046,208.9016 L191.9794,204.6736 L199.3167,200.4029 L206.5983,196.0954 L213.806,191.757 L220.9217,187.3939 L227.9277,183.0119 L234.8064,178.6171 L241.5406,174.2157 L248.1136,169.8137 L254.5088,165.4173 L260.7104,161.0324 L266.7027,156.6652 L272.4709,152.3217 L278.0005,148.008 L283.2777,143.7299 L288.2892,139.4934 L293.0227,135.3044 L297.4662,131.1687 L301.6086,127.092 L305.4395,123.0799 L308.9495,119.138 L312.1298,115.2717 L314.9723,111.4864 L317.4699,107.7873 L319.6165,104.1796 L321.4067,100.6682 L322.836,97.25798 L323.9008,93.95369 L324.5984,90.75988 L324.9272,87.68098 L324.8862,84.72123 L324.4757,81.88475 L323.6965,79.17545 L322.5508,76.59708 L321.0413,74.15321 L319.1718,71.84722 L316.9469,69.6823 L314.3723,67.66146 L311.4544,65.78748 L308.2004,64.06294 L304.6186,62.49026 L300.7178,61.07159 L296.5078,59.80891 L291.9991,58.70396 L287.203,57.75826 L282.1316,56.97313 L276.7973,56.34965 L271.2137,55.88869 L265.3946,55.59089 L259.3546,55.45664 L253.1088,55.48615 L246.6728,55.67937 L240.0627,56.03603 L233.295,56.55564 L226.3867,57.23749 L219.3549,58.08062 L212.2173,59.08387 L204.9917,60.24585 L197.6961,61.56496 L190.3489,63.03936 L182.9684,64.66703 L175.5729,66.4457 L168.1811,68.37292 L160.8113,70.44602 L153.4821,72.66213 L146.2116,75.01818 L139.0182,77.51092 L131.9197,80.13689 L124.9339,82.89247 L118.0783,85.77383 L111.37,88.777 L104.8258,91.89781 L98.46201,95.13195 L92.29456,98.47495 L86.33887,101.9222 L80.60981,105.4688 L75.12172,109.1101 L69.8883,112.8408 L64.92264,116.6559 L60.23715,120.5501 L55.84354,124.5179 L51.7528,128.554 L47.97514,132.6526 L44.52001,136.8082 L41.39605,141.015 L38.61106,145.2671 L36.172,149.5587 L34.08498,153.8839 L32.3552,158.2366 L30.98699,162.6109 L29.98378,167.0006 L29.34806,171.3997 L29.08143,175.8022 L29.18456,180.2019 L29.65718,184.5928 L30.49812,188.9687 L31.70527,193.3236 L33.27561,197.6516 L35.20523,201.9465 L37.48929,206.2025 L40.12209,210.4136 L43.09705,214.5741 L46.40673,218.6781 L50.04286,222.7201 L53.99635,226.6944 L58.25732,230.5955 L62.81512,234.418 L67.65836,238.1566 L72.77493,241.8062 L78.15205,245.3617 L83.77626,248.8182 L89.63352,252.1709 L95.70919,255.4151 L101.9881,258.5464 L108.4545,261.5605 L115.0923,264.4531 L121.8848,267.2203 L128.8151,269.8582 L135.866,272.3632 L143.0196,274.7319 L150.2582,276.9608 L157.5637,279.0471 L164.9178,280.9877 L172.3022,282.78 L179.6983,284.4215 L187.0877,285.91 L194.452,287.2433 L201.7726,288.4196 L209.0314,289.4374 L216.2101,290.2952 L223.2909,290.9917 L230.256,291.5262 L237.088,291.8977 L243.7699,292.1058 L250.2849,292.1502 L256.6168,292.0309 L262.7497,291.748 L268.6683,291.3018 L274.3578,290.6931 L279.804,289.9226 L284.9933,288.9915 L289.9127,287.901 L294.5499,286.6526 L298.8933,285.2481 L302.9321,283.6893 L306.6562,281.9785 L310.0562,280.118 L313.1237,278.1104 L315.851,275.9585 L318.2313,273.6653 L320.2586,271.2338 L321.9278,268.6675 L323.2349,265.97 L324.1765,263.145 L324.7502,260.1963 L324.9547,257.128 L324.7894,253.9445 L324.2547,250.6501 L323.352,247.2493 L322.0836,243.7469 L320.4525,240.1478 L318.4629,236.4568 L316.1198,232.6792 L313.429,228.82 L310.3972,224.8848 L307.032,220.8788 L303.3419,216.8077 L299.336,212.6772 L295.0243,208.4928 L290.4177,204.2604 L285.5276,199.9859 L280.3664,195.6751 L274.9467,191.3341 L269.2823,186.9688 L263.3873,182.5853 L257.2764,178.1896 L250.9649,173.7879 L244.4685,169.3862 L237.8035,164.9906 L230.9866,160.6072 L224.0348,156.242 L216.9655,151.9012 L209.7963,147.5906 L202.5451,143.3163 L195.2302,139.0842 L187.8697,134.9001 L180.4821,130.7699 L173.0858,126.6992 L165.6993,122.6937 L158.3411,118.7589 L151.0296,114.9002 L143.783,111.1231 L136.6195,107.4327 L129.5569,103.8341 L122.613,100.3323 L115.8051,96.93218 L109.1501,93.63843 L102.6647,90.4556 L96.36524,87.38808 L90.26731,84.44014 L84.3862,81.61584 L78.73661,78.91911 L73.33266,76.35365 L68.18787,73.92303 L63.31507,71.63062 L58.72647,69.47958 L54.43353,67.47288 L50.44697,65.6133 L46.77676,63.90343 L43.43208,62.34562 L40.42128,60.94203 L37.75189,59.6946 L35.43058,58.60506 L33.46316,57.67491 L31.85454,56.90544 L30.60874,56.29772 L29.72888,55.85259 L29.21716,55.57066 C29.07645,55.43019 29.19871,55.46599 29.3023,55.49775 L29.89896,55.70686 L30.86334,56.07938 L32.19301,56.6148 L33.88465,57.31236 L35.93405,58.1711 L38.33607,59.18984 L41.08472,60.36716 L44.17311,61.70144 L47.59354,63.19083 L51.33745,64.83327 L55.39549,66.6265 L59.75751,68.56801 L64.41261,70.65514 L69.34915,72.88498 L74.5548,75.25446 L80.01655,77.7603 L85.72073,80.39902 L91.6531,83.16699 L97.79883,86.06037 L104.1426,89.07515 L110.6684,92.20717 L117.3601,95.45209 L124.2009,98.80541 L131.1737,102.2625 L138.2611,105.8186 L145.4453,109.4687 L152.7085,113.2079 L160.0324,117.0309 L167.3987,120.9325 L174.7891,124.9072 L182.185,128.9496 L189.568,133.054 L196.9196,137.2148 L204.2215,141.4262 L211.4554,145.6825 L218.6032,149.9776 L225.647,154.3057 L232.5693,158.6608 L239.3527,163.0368 L245.9803,167.4277 L252.4355,171.8275 L258.7022,176.23 L264.7647,180.6291 L270.6079,185.0187 L276.2172,189.3929 L281.5785,193.7455 L286.6784,198.0704 L291.5042,202.3618 L296.0439,206.6137 L300.2861,210.8202 L304.2201,214.9754 L307.8362,219.0737 L311.1253,223.1093 L314.0792,227.0768 L316.6905,230.9705 L318.9527,234.785 L320.8601,238.5153 L322.408,242.1559 L323.5924,245.702 L324.4105,249.1486 L324.8602,252.491 L324.9403,255.7244 L324.6507,258.8445 L323.9921,261.847 L322.9661,264.7275 L321.5753,267.4823 L319.8232,270.1075 L317.7141,272.5994 L315.2534,274.9546 L312.4471,277.1699 L309.3023,279.2421 L305.8269,281.1684 L302.0295,282.9462 L297.9196,284.5729 L293.5075,286.0464 L288.8043,287.3645 L283.8216,288.5255 L278.5719,289.5278 L273.0685,290.3699 L267.3249,291.0508 L261.3556,291.5694 L255.1755,291.9251 L248.8,292.1173 L242.2451,292.1458 L235.5272,292.0106 L228.663,291.7117 L221.6697,291.2498 L214.5648,290.6253 L207.366,289.8392 L200.0914,288.8925 L192.759,287.7866 L185.3874,286.5229 L177.9948,285.1033 L170.5997,283.5297 L163.2207,281.8043 L155.8762,279.9294 L148.5845,277.9076 L141.3638,275.7419 L134.2323,273.435 L127.2076,270.9903 L120.3075,268.4111 L113.5491,265.701 L106.9494,262.8638 L100.5247,259.9033 L94.29128,256.8237 L88.26459,253.6292 L82.45972,250.3242 L76.8912,246.9134 L71.57293,243.4014 L66.5182,239.7931 L61.73966,236.0935 L57.24924,232.3076 L53.05817,228.4409 L49.17692,224.4985 L45.6152,220.486 L42.38191,216.4089 L39.48513,212.2728 L36.93209,208.0835 L34.72919,203.8468 L32.88193,199.5685 L31.39492,195.2545 L30.27188,190.9109 L29.51563,186.5436 L29.12803,182.1586 L29.11008,177.7621 L29.46181,173.3601 L30.18234,168.9587 L31.26987,164.564 L32.72169,160.1821 L34.53416,155.8191 L36.70276,151.4809 L39.22206,147.1736 L42.08578,142.9032 L45.28674,138.6755 L48.81694,134.4964 L52.66758,130.3717 L56.82901,126.3071 L61.29085,122.3082 L66.04193,118.3805 L71.07038,114.5295 L76.36364,110.7606 L81.90847,107.0789 L87.69101,103.4895 L93.69682,99.99738 L99.91087,96.60739 L106.3176,93.32422 L112.9011,90.1524 L119.6448,87.09632 L126.5319,84.16022 L133.5452,81.34815 L140.6672,78.66401 L147.88,76.1115 L155.1656,73.69417 L162.5058,71.41535 L169.8823,69.27821 L177.2766,67.28569 L184.6702,65.44055 L192.0447,63.74535 L199.3817,62.20244 L206.6627,60.81394 L213.8696,59.58178 L220.9844,58.50766 L227.9893,57.59307 L234.8668,56.83928 L241.5997,56.24733 L248.1712,55.81803 L254.5648,55.55198 L260.7645,55.44955 L266.755,55.51089 L272.5211,55.7359 L278.0485,56.12428 L283.3234,56.67548 L288.3325,57.38874 L293.0634,58.26309 L297.5043,59.29731 L301.644,60.48996 L305.4721,61.83939 L308.9792,63.34375 L312.1565,65.00095 L314.9959,66.80869 L317.4905,68.76447 L319.634,70.86559 L321.421,73.10915 L322.847,75.49202 L323.9086,78.01093 L324.6029,80.66238 L324.9284,83.4427 L324.8842,86.34805 L324.4704,89.37441 L323.688,92.51759 L322.539,95.77325 L321.0262,99.13686 L319.1535,102.6038 L316.9256,106.1692 L314.3479,109.8283 L311.4269,113.5758 L308.17,117.4067 L304.5853,121.3156 L300.6817,125.2971 L296.469,129.3458 L291.9578,133.4559 L287.1592,137.6219 L282.0853,141.8379 L276.7488,146.0982 L271.163,150.3968 L265.3419,154.7278 L259.3,159.0852 L253.0525,163.4629 L246.6149,167.855 L240.0033,172.2552 L233.2343,176.6577 L226.3247,181.0561 L219.2919,185.4445 L212.1535,189.8169 L204.9272,194.167 L197.6311,198.489 L190.2835,202.7768 L182.9027,207.0245 L175.5072,211.2263 L168.1155,215.3763 L160.746,219.4687 L153.4172,223.4979 L146.1474,227.4584 L138.9547,231.3447 L131.8571,235.1513 L124.8724,238.873 L118.0181,242.5047 L111.3111,246.0414 L104.7685,249.478 L98.40634,252.81 L92.24071,256.0326 L86.28696,259.1415 L80.55998,262.1323 L75.0741,265.0008 L69.843,267.7432 L64.87978,270.3556 L60.19683,272.8343 L55.80586,275.1761 L51.71785,277.3775 L47.94302,279.4357 L44.4908,281.3477 L41.36981,283.1109 L38.58786,284.7228 L36.15191,286.1813 L34.06804,287.4843 L32.34145,288.6299 L30.97647,289.6167 L29.97651,290.4432 L29.34407,291.1083 L29.08072,291.6111 L29.18713,291.9509 L29.66303,292.1273 L30.50723,292.1398 L31.71762,291.9887 L33.29118,291.674 L35.22396,291.1962 L37.51115,290.556 L40.14701,289.7542 L43.12498,288.792 L46.4376,287.6707 L50.07659,286.3918 L54.03286,284.9572 L58.29652,283.3687 L62.8569,281.6286 L67.70262,279.7393 L72.82156,277.7035 L78.20093,275.5238 L83.82728,273.2035 L89.68655,270.7455 L95.76408,268.1535 L102.0447,265.4308 L108.5127,262.5815 L115.1519,259.6092 L121.9458,256.5182 L128.8773,253.3128 L135.9291,249.9974 L143.0835,246.5765 L150.3228,243.0549 L157.6289,239.4375 L164.9833,235.7293 L172.3679,231.9354 L179.764,228.061 L187.1533,224.1116 L194.5172,220.0926 L201.8374,216.0095 L209.0955,211.868 L216.2735,207.6738 L223.3533,203.4328 L230.3173,199.1508 L237.148,194.8337 L243.8285,190.4874 L250.342,186.1181 L256.6721,181.7318 L262.8032,177.3345 L268.7198,172.9323 L274.4073,168.5313 L279.8513,164.1376 L285.0382,159.7572 L289.9551,155.3963 L294.5898,151.0609 L298.9306,146.7569 L302.9666,142.4904 L306.6878,138.2672 L310.085,134.0931 L313.1494,129.974 L315.8737,125.9155 L318.2509,121.9233 L320.275,118.0029 L321.941,114.1596 L323.2448,110.3989 L324.1832,106.726 L324.7536,103.1458 L324.9548,99.66342 L324.7863,96.28361 L324.2483,93.01106 L323.3423,89.8503 L322.0707,86.80569 L320.4364,83.88147 L318.4437,81.08167 L316.0974,78.41015 L313.4036,75.87063 L310.3688,73.46661 L307.0007,71.20143 L303.3077,69.07821 L299.299,67.09989 L294.9847,65.26922 L290.3755,63.58871 L285.483,62.06071 L280.3193,60.68732 L274.8975,59.47045 L269.231,58.41177 L263.334,57.51276 L257.2212,56.77465 L250.908,56.19846 L244.41,55.78501 L237.7436,55.53485 L230.9255,55.44833 L223.9725,55.52558 L216.9022,55.76648 L209.7322,56.1707 L202.4804,56.73769 L195.165,57.46666 L187.8042,58.35659 L180.4164,59.40627 L173.0201,60.61423 L165.6338,61.97881 L158.2759,63.49811 L150.9649,65.17004 L143.719,66.99228 L136.5563,68.9623 L129.4947,71.0774 L122.5519,73.33463 L115.7453,75.73087 L109.0917,78.26281 L102.608,80.92695 L96.31017,83.71959 L90.2141,86.63688 L84.33498,89.67478 L78.68752,92.82908 L73.28581,96.09542 L68.14337,99.46928 L63.27305,102.946 L58.68703,106.5208 L54.39676,110.1886 L50.41296,113.9445 L46.74561,117.7832 L43.40385,121.6994 L40.39606,125.6877 L37.72973,129.7425 L35.41154,133.8584 L33.44729,138.0295 L31.84187,142.2501 L30.59931,146.5143 L29.72271,150.8163 L29.21426,155.1501 L29.07524,159.5098 L29.30598,163.8892 L29.90591,168.2823 L30.87354,172.683 L32.20644,177.0853 L33.90129,181.4831 L35.95384,185.8702 L38.35897,190.2406 L41.11066,194.5883 L44.20204,198.9072 L47.62538,203.1914 L51.37213,207.4349 L55.43291,211.6319 L59.79758,215.7765 L64.45523,219.8631 L69.39422,223.8859 L74.6022,227.8394 L80.06616,231.7181 L85.77244,235.5167 L91.70676,239.2299 L97.85432,242.8526 L104.1997,246.3797 L110.7271,249.8065 L117.4202,253.128 L124.2623,256.3398 L131.2362,259.4373 L138.3245,262.4164 L145.5095,265.2729 L152.7733,268.0028 L160.0976,270.6023 L167.4643,273.0679 L174.8548,275.3962 L182.2507,277.5839 L189.6335,279.628 L196.9847,281.5256 L204.2861,283.2742 L211.5193,284.8713 L218.6662,286.3147 L225.709,287.6025 L232.6302,288.7328 L239.4123,289.704 L246.0384,290.5149 L252.492,291.1643 L258.757,291.6513 L264.8176,291.9753 L270.6588,292.1357 L276.2659,292.1323 L281.6249,291.9653 L286.7225,291.6347 L291.5458,291.1411 L296.0829,290.4852 L300.3224,289.6678 L304.2537,288.69 L307.8669,287.5533 L311.153,286.2592 L314.1039,284.8095 L316.7122,283.2062 L318.9712,281.4515 L320.8755,279.5479 L322.4201,277.4979 L323.6013,275.3045 L324.4161,272.9706 L324.8625,270.4995 L324.9394,267.8946 L324.6465,265.1595 L323.9846,262.298 L322.9554,259.314 L321.5614,256.2117 L319.806,252.9954 L317.6938,249.6695 L315.23,246.2386 L312.4207,242.7075 L309.2729,239.0811 L305.7946,235.3643 L301.9943,231.5624 L297.8817,227.6805 L293.467,223.7241 L288.7612,219.6985 L283.7761,215.6095 L278.5242,211.4627 L273.0185,207.2637 L267.2729,203.0184 L261.3016,198.7327 L255.1197,194.4125 L248.7426,190.0638 L242.1861,185.6926 L235.4668,181.3049 L228.6014,176.9069 L221.607,172.5045 L214.5012,168.1039 L207.3017,163.7113 L200.0265,159.3326 L192.6937,154.9739 L185.3218,150.6412 L177.9291,146.3406 L170.5341,142.078 L163.1553,137.8593 L155.8111,133.6903 L148.52,129.5769 L141.3,125.5246 L134.1694,121.5391 L127.1458,117.6259 L120.2468,113.7905 L113.4898,110.0381 L106.8915,106.3739 L100.4685,102.8031 L94.23682,99.33043 L88.21204,95.96084 L82.40921,92.69896 L76.84284,89.54929 L71.52686,86.5162 L66.47453,83.60389 L61.69849,80.81638 L57.21068,78.15754 L53.02232,75.63103 L49.14387,73.24036 L45.58503,70.98884 L42.35469,68.87958 L39.46093,66.91549 L36.91098,65.0993 L34.71122,63.43351 L32.86713,61.92045 L31.38334,60.56219 L30.26355,59.36061 L29.51056,58.31739 L29.12625,57.43396 L29.11158,56.71154 L29.46659,56.15114 L30.19039,55.75353 L31.28117,55.51926 L32.73621,55.44865 L34.55186,55.54181 L36.72361,55.7986 L39.24599,56.21867 L42.11273,56.80143 L45.31665,57.54609 L48.84975,58.45161 L52.70319,59.51673 L56.86734,60.73999 L61.33179,62.11968 L66.08539,63.65391 L71.11625,65.34055 L76.4118,67.17726 L81.9588,69.16151 L87.74339,71.29054 L93.75111,73.56142 L99.96694,75.971 L106.3754,78.51595 L112.9603,81.19273 L119.7054,83.99766 L126.5937,86.92685 L133.608,89.97624 L140.7309,93.14162 L147.9444,96.41862 L155.2306,99.80267 L162.5712,103.2891 L169.9479,106.8731 L177.3423,110.5498 L184.7358,114.3139 L192.1101,118.1604 L199.4466,122.0838 L206.7271,126.0788 L213.9333,130.1399 L221.0472,134.2613 L228.051,138.4375 L234.9273,142.6626 L241.6588,146.9308 L248.2288,151.2361 L254.6207,155.5727 L260.8187,159.9345 L266.8072,164.3155 L272.5713,168.7097 L278.0965,173.1108 L283.369,177.513 L288.3758,181.9099 L293.1042,186.2957 L297.5424,190.6642 L301.6794,195.0093 L305.5047,199.3251 L309.0089,203.6056 L312.1832,207.8449 L315.0197,212.037 L317.5111,216.1762 L319.6515,220.2569 L321.4352,224.2732 L322.8581,228.2197 L323.9164,232.0908 L324.6075,235.8814 L324.9297,239.586 L324.8821,243.1996 L324.465,246.7172 L323.6794,250.1339 L322.5271,253.445 L321.0112,256.6458 L319.1353,259.7321 L316.9042,262.6994 L314.3235,265.5438 L311.3995,268.2611 L308.1396,270.8478 L304.552,273.3003 L300.6457,275.615 L296.4303,277.7888 L291.9164,279.8188 L287.1153,281.7021 L282.0391,283.4361 L276.7003,285.0183 L271.1123,286.4467 L265.2892,287.7192 L259.2454,288.8341 L252.9961,289.7899 L246.5569,290.5851 L239.9438,291.2188 L233.1735,291.6899 L226.2628,291.998 L219.229,292.1425 L212.0896,292.1233 L204.8626,291.9403 L197.566,291.5939 L190.218,291.0845 L182.8371,290.4128 L175.4415,289.5798 L168.0499,288.5865 L160.6807,287.4344 L153.3524,286.1252 L146.0831,284.6604 L138.8912,283.0423 L131.7946,281.273 L124.8109,279.3551 L117.9578,277.291 L111.2523,275.0838 L104.7111,272.7365 L98.35069,270.2522 L92.18687,267.6345 L86.23508,264.8869 L80.51018,262.0133 L75.02649,259.0177 L69.79772,255.9041 L64.83693,252.677 L60.15653,249.3407 L55.7682,245.8998 L51.68293,242.3593 L47.91092,238.7238 L44.46161,234.9985 L41.3436,231.1886 L38.56469,227.2992 L36.13184,223.3358 L34.05112,219.3039 L32.32773,215.209 L30.96598,211.0569 L29.96927,206.8531 L29.34011,202.6037 L29.08004,198.3143 L29.18973,193.9911 L29.66891,189.64 L30.51637,185.2669 L31.73,180.8779 L33.30677,176.4792 L35.24272,172.0767 L37.53303,167.6767 L40.17197,163.2851 L43.15294,158.9081 L46.4685,154.5516 L50.11035,150.2218 L54.06939,145.9247 L58.33573,141.6661 L62.8987,137.452 L67.7469,133.2881 L72.86821,129.1803 L78.24983,125.1343 L83.87831,121.1556 L89.73959,117.2498 L95.81899,113.4222 L102.1013,109.6781 L108.5709,106.0228 L115.2116,102.4613 L122.0068,98.99841 L128.9394,95.63909 L135.9922,92.38791 L143.1475,89.24939 L150.3875,86.22785 L157.694,83.3275 L165.0488,80.55232 L172.4335,77.90618 L179.8297,75.39272 L187.2188,73.01543 L194.5824,70.7776 L201.9022,68.68231 L209.1597,66.73248 L216.3368,64.9308 L223.4157,63.27976 L230.3786,61.78164 L237.2081,60.43853 L243.8871,59.25227 L250.399,58.22452 L256.7275,57.35668 L262.8567,56.64997 L268.7714,56.10535 L274.4567,55.72359 L279.8985,55.50521 L285.0831,55.45052 L289.9976,55.55959 L294.6297,55.83226 L298.9678,56.26817 L303.0011,56.86671 L306.7195,57.62704 L310.1136,58.54812 L313.1752,59.62868 L315.8963,60.86721 L318.2704,62.26202 L320.2914,63.81115 L321.9542,65.51248 L323.2548,67.36364 L324.1898,69.36208 L324.757,71.50503 L324.955,73.78953 L324.7831,76.21241 L324.2419,78.77032 L323.3327,81.45972 L322.0577,84.2769 L320.4203,87.21795 L318.4244,90.2788 L316.075,93.45522 L313.3781,96.74282 L310.3403,100.137 L306.9693,103.6332 L303.2734,107.2264 L299.262,110.9118 L294.945,114.6842 L290.3333,118.5383 L285.4383,122.469 L280.2723,126.4706 L274.8482,130.5378 L269.1796,134.6648 L263.2806,138.846 L257.166,143.0755 L250.851,147.3476 L244.3515,151.6563 L237.6837,155.9956 L230.8643,160.3595 L223.9102,164.742 L216.8389,169.1371 L209.6681,173.5386 L202.4157,177.9405 L195.0998,182.3367 L187.7386,186.721 L180.3507,191.0875 L172.9544,195.4301 L165.5683,199.7427 L158.2108,204.0195 L150.9002,208.2544 L143.655,212.4416 L136.4931,216.5754 L129.4325,220.65 L122.4909,224.6598 L115.6855,228.5992 L109.0334,232.4628 L102.5512,236.2452 L96.25512,239.9412 L90.16091,243.5457 L84.28378,247.0537 L78.63844,250.4603 L73.23898,253.7609 L68.0989,256.9508 L63.23105,260.0257 L58.64761,262.9813 L54.36001,265.8134 L50.37899,268.5183 L46.71448,271.0921 L43.37566,273.5313 L40.37086,275.8324 L37.7076,277.9924 L35.39253,280.0083 L33.43144,281.8772 L31.82924,283.5965 L30.58991,285.1639 L29.71658,286.5772 L29.2114,287.8345 L29.07566,288.934 L29.30968,289.8742 L29.91289,290.6538 L30.88378,291.2717 L32.21991,291.7271 L33.91795,292.0192 L35.97366,292.1478 L38.38189,292.1127 L41.13663,291.9138 L44.231,291.5515 L47.65725,291.0263 L51.40683,290.3389 L55.47035,289.4903 L59.83768,288.4815 L64.49788,287.3141 L69.43931,285.9896 L74.64963,284.5099 L80.1158,282.877 L85.82416,281.0932 L91.76045,279.1609 L97.90984,277.0828 L104.2569,274.8618 L110.7859,272.501 L117.4804,270.0036 L124.3237,267.3731 L131.2987,264.6132 L138.3879,261.7275 L145.5737,258.7202 L152.8381,255.5955 L160.1629,252.3575 L167.5298,249.0108 L174.9205,245.5601 L182.3163,242.0101 L189.6989,238.3657 L197.0498,234.632 L204.3507,230.8141 L211.5831,226.9173 L218.7292,222.947 L225.7711,218.9087 L232.691,214.808 L239.4718,210.6506 L246.0965,206.4421 L252.5485,202.1885 L258.8117,197.8957 L264.8705,193.5694 L270.7096,189.2159 L276.3146,184.841 L281.6714,180.4508 L286.7666,176.0515 L291.5874,171.649 L296.1219,167.2495 L300.3587,162.859 L304.2872,158.4837 L307.8975,154.1296 L311.1807,149.8027 L314.1286,145.5091 L316.7338,141.2545 L318.9897,137.045 L320.8907,132.8864 L322.4322,128.7844 L323.6102,124.7447 L324.4217,120.7728 L324.8649,116.8743 L324.9384,113.0546 L324.6422,109.319 L323.9771,105.6725 L322.9446,102.1204 L321.5474,98.66737 L319.7888,95.31836 L317.6735,92.07793 L315.2065,88.95058 L312.3942,85.94065 L309.2434,83.05228 L305.7622,80.28948 L301.9592,77.65607 L297.8438,75.15569 L293.4265,72.79182 L288.7181,70.5677 L283.7306,68.48643 L278.4763,66.55087 L272.9685,64.76373 L267.2208,63.12745 L261.2476,61.64431 L255.0639,60.31635 L248.6851,59.14543 L242.1272,58.13315 L235.4065,57.28093 L228.5398,56.58992 L221.5444,56.0611 L214.4377,55.6952 L207.2374,55.49272 L199.9616,55.45394 L192.6284,55.57891 L185.2562,55.86747 L177.8634,56.31921 L170.4685,56.93351 L163.0899,57.70951 L155.7461,58.64615 L148.4555,59.74212 L141.2363,60.99592 L134.1065,62.40581 L127.0839,63.96983 L120.1862,65.68582 L113.4305,67.55141 L106.8337,69.56402 L100.4123,71.72086 L94.18238,74.01894 L88.1595,76.45509 L82.35871,79.02594 L76.79451,81.72792 L71.4808,84.55731 L66.43087,87.51018 L61.65734,90.58245 L57.17215,93.76987 L52.98649,97.06803 L49.11084,100.4724 L45.55488,103.9782 L42.3275,107.5806 L39.43676,111.2746 L36.88989,115.0552 L34.69326,118.917 L32.85236,122.8548 L31.37179,126.8631 L30.25524,130.9363 L29.50552,135.0688 L29.12449,139.2549 L29.1131,143.4889 L29.4714,147.7648 L30.19846,152.0766 L31.2925,156.4186 L32.75076,160.7846 L34.5696,165.1686 L36.74447,169.5646 L39.26995,173.9664 L42.13972,178.368 L45.3466,182.7633 L48.88258,187.1462 L52.73882,191.5106 L56.90568,195.8505 L61.37275,200.1599 L66.12887,204.4329 L71.16213,208.6634 L76.45998,212.8457 L82.00915,216.974 L87.79579,221.0426 L93.80542,225.0458 L100.023,228.978 L106.4331,232.834 L113.0196,236.6082 L119.766,240.2955 L126.6555,243.8909 L133.6709,247.3893 L140.7946,250.7858 L148.0088,254.0758 L155.2955,257.2547 L162.6366,260.3182 L170.0135,263.2619 L177.408,266.0819 L184.8014,268.7742 L192.1754,271.3351 L199.5116,273.761 L206.7914,276.0486 L213.9969,278.1947 L221.1099,280.1964 L228.1127,282.0508 L234.9877,283.7555 L241.7179,285.308 L248.2863,286.7063 L254.6766,287.9483 L260.8728,289.0324 L266.8594,289.957 L272.6214,290.7209 L278.1444,291.3231 L283.4147,291.7626 L288.419,292.0389 L293.1449,292.1516 L297.5805,292.1005 L301.7147,291.8858 L305.5373,291.5077 L309.0386,290.9666 L312.2099,290.2635 L315.0433,289.3992 L317.5317,288.375 L319.6689,287.1923 L321.4495,285.8526 L322.8691,284.3579 L323.9241,282.7102 L324.6119,280.9119 L324.9309,278.9653 L324.8801,276.8732 L324.4597,274.6385 L323.6707,272.2643 L322.5153,269.7538 L320.9961,267.1106 L319.117,264.3382 L316.8828,261.4406 L314.299,258.4217 L311.372,255.2857 L308.1092,252.037 L304.5187,248.68 L300.6096,245.2194 L296.3915,241.66 L291.875,238.0067 L287.0714,234.2646 L281.9928,230.4388 L276.6517,226.5346 L271.0616,222.5575 L265.2365,218.5129 L259.1908,214.4064 L252.9397,210.2438 L246.4989,206.0307 L239.8844,201.773 L233.1127,197.4767 L226.2008,193.1475 L219.166,188.7916 L212.0258,184.415 L204.7981,180.0237 L197.501,175.6237 L190.1526,171.2213 L182.7714,166.8224 L175.3758,162.4331 L167.9844,158.0596 L160.6154,153.7079 L153.2875,149.384 L146.0189,145.0939 L138.8277,140.8434 L131.732,136.6386 L124.7495,132.4852 L117.8976,128.389 L111.1934,124.3557 L104.6538,120.3907 L98.29506,116.4996 L92.13306,112.6879 L86.18321,108.9606 L80.4604,105.3232 L74.97891,101.7804 L69.75246,98.33732 L64.79411,94.99865 L60.11625,91.76902 L55.73057,88.65289 L51.64804,85.65459 L47.87886,82.77825 L44.43244,80.02785 L41.31741,77.40722 L38.54155,74.91996 L36.1118,72.56952 L34.03423,70.35915 L32.31404,68.29192 L30.95552,66.37067 L29.96207,64.59807 L29.33617,62.97658 L29.07939,61.50843 L29.19237,60.19566 L29.67482,59.04008 L30.52554,58.0433 L31.74241,57.20669 L33.32238,56.53141 L35.26151,56.01839 L37.55494,55.66835 L40.19695,55.48177 L43.18093,55.4589 L46.49942,55.59978 L50.14413,55.90421 L54.10595,56.37178 L58.37497,57.00183 L62.94052,57.7935 L67.79121,58.74568 L72.91489,59.85706 L78.29876,61.1261 L83.92937,62.55106 L89.79264,64.12994 L95.87392,65.86058 L102.158,67.74057 L108.6292,69.76732 L115.2713,71.93801 L122.0677,74.24966 L129.0015,76.69904 L136.0553,79.28279 L143.2115,81.99732 L150.4521,84.83888 L157.7591,87.80354 L165.1143,90.88719 L172.4992,94.08556 L179.8954,97.39424 L187.2844,100.8086 L194.6477,104.324 L201.9669,107.9356 L209.2238,111.6382 L216.4001,115.4269 L223.4781,119.2964 L230.4398,123.2413 L237.2681,127.2561 L243.9457,131.3353 L250.4561,135.4733 L256.7828,139.6644 L262.9102,143.9026 L268.8229,148.1823 L274.5061,152.4973 L279.9457,156.8419 L285.1279,161.2099 L290.04,165.5954 L294.6695,169.9922 L299.0049,174.3943 L303.0355,178.7955 L306.751,183.1898 L310.1423,187.5712 L313.2008,191.9335 L315.9189,196.2707 L318.2899,200.5768 L320.3077,204.8459 L321.9674,209.072 L323.2647,213.2493 L324.1965,217.3721 L324.7604,221.4345 L324.955,225.4311 L324.7799,229.3562 L324.2354,233.2044 L323.323,236.9704 L322.0448,240.649 L320.4041,244.2352 L318.4051,247.7238 L316.0526,251.1102 L313.3526,254.3896 L310.3118,257.5575 L306.9379,260.6096 L303.2392,263.5414 L299.225,266.3492 L294.9054,269.0288 L290.291,271.5768 L285.3936,273.9894 L280.2253,276.2634 L274.7989,278.3956 L269.1282,280.3831 L263.2272,282.2231 L257.1108,283.9131 L250.7941,285.4507 L244.293,286.8339 L237.6238,288.0606 L230.8031,289.1292 L223.8479,290.0383 L216.7757,290.7866 L209.604,291.3729 L202.351,291.7966 L195.0346,292.057 L187.6731,292.1538 L180.285,292.0869 L172.8887,291.8562 L165.5028,291.4622 L158.1456,290.9054 L150.8356,290.1866 L143.591,289.3067 L136.4299,288.267 L129.3703,287.0689 L122.4298,285.7141 L115.6257,284.2045 L108.975,282.5421 L102.4944,280.7292 L96.20008,278.7683 L90.10773,276.6623 L84.2326,274.4139 L78.58938,272.0262 L73.19216,269.5027 L68.05445,266.8468 L63.18908,264.0621 L58.60821,261.1525 L54.32329,258.122 L50.34503,254.9749 L46.68338,251.7155 L43.34749,248.3482 L40.3457,244.8778 L37.6855,241.3091 L35.37355,237.6469 L33.41563,233.8964 L31.81663,230.0628 L30.58054,226.1513 L29.71046,222.1673 L29.20857,218.1165 L29.07611,214.0043 L29.31342,209.8365 L29.9199,205.6188 L30.89404,201.3571 L32.2334,197.0573 L33.93464,192.7253 L35.9935,188.3672 L38.40484,183.9888 L41.16263,179.5964 L44.25998,175.1959 L47.68914,170.7936 L51.44155,166.3953 L55.50782,162.0074 L59.87779,157.6357 L64.54054,153.2864 L69.48442,148.9655 L74.69707,144.679 L80.16545,140.4328 L85.8759,136.2327 L91.81416,132.0846 L97.96535,127.9943 L104.3141,123.9673 L110.8446,120.0093 L117.5405,116.1257 L124.3851,112.3219 L131.3611,108.6032 L138.4513,104.9747 L145.6379,101.4414 L152.9029,98.00825 L160.2282,94.67998 L167.5954,91.46118 L174.9861,88.35632 L182.382,85.36968 L189.7644,82.50541 L197.1149,79.76746 L204.4152,77.15963 L211.647,74.68552 L218.7923,72.34854 L225.8331,70.15195 L232.7519,68.09878 L239.5314,66.19186 L246.1546,64.43385 L252.605,62.82716 L258.8665,61.37402 L264.9233,60.07645 L270.7605,58.93624 L276.3633,57.95496 L281.7178,57.13398 L286.8106,56.47443 L291.629,55.97722 L296.1609,55.64305 L300.395,55.47236 L304.3206,55.46541 L307.9281,55.62219 L311.2084,55.9425 L314.1533,56.42588 L316.7553,57.07168 L319.0081,57.87899 L320.906,58.84671 L322.4443,59.97348 L323.619,61.25776 L324.4273,62.69775 L324.8671,64.29149 L324.9374,66.03674 L324.638,67.93111 L323.9695,69.97197 L322.9338,72.1565 L321.5333,74.48167 L319.7716,76.94427 L317.6531,79.54089 L315.1831,82.26793 L312.3677,85.12162 L309.214,88.09802 L305.7298,91.19301 L301.924,94.4023 L297.8059,97.72145 L293.3859,101.1459 L288.675,104.6708 L283.6851,108.2914 L278.4285,112.0027 L272.9185,115.7995 L267.1687,119.6765 L261.1936,123.6284 L255.0081,127.6497 L248.6276,131.7349 L242.0682,135.8783 L235.3461,140.0742 L228.4782,144.3167 L221.4817,148.6001 L214.3741,152.9183 L207.1731,157.2654 L199.8967,161.6354 L192.5631,166.0222 L185.1906,170.4198 L177.7977,174.8221 L170.4028,179.2229 L163.0245,183.6163 L155.6811,187.996 L148.3911,192.3562 L141.1725,196.6906 L134.0436,200.9934 L127.0221,205.2585 L120.1255,209.4802 L113.3711,213.6524 L106.7758,217.7696 L100.3561,221.8258 L94.12795,225.8157 L88.10698,229.7335 L82.30823,233.574 L76.74619,237.3318 L71.43477,241.0016 L66.38725,244.5785 L61.61622,248.0574 L57.13364,251.4336 L52.95069,254.7024 L49.07784,257.8593 L45.52475,260.8998 L42.30033,263.8198 L39.41262,266.6152 L36.86883,269.2823 L34.67534,271.8172 L32.83762,274.2165 L31.36026,276.4768 L30.24697,278.5951 L29.50051,280.5684 L29.12276,282.3939 L29.11466,284.0692 L29.47623,285.5919 L30.20657,286.96 L31.30385,288.1714 L32.76533,289.2246 L34.58735,290.1181 L36.76537,290.8506 L39.29393,291.4212 L42.16673,291.8291 L45.37656,292.0736 L48.91543,292.1545 L52.77447,292.0716 L56.94405,291.8251 L61.41374,291.4153 L66.17237,290.8427 L71.20805,290.1081 L76.50818,289.2127 L82.05952,288.1575 L87.84821,286.9442 L93.85976,285.5742 L100.0791,284.0496 L106.4908,282.3725 L113.0788,280.5451 L119.8266,278.57 L126.7173,276.45 L133.7337,274.1879 L140.8583,271.787 L148.0732,269.2504 L155.3605,266.5818 L162.702,263.7848 L170.0791,260.8633 L177.4737,257.8213 L184.8671,254.6631 L192.2408,251.3929 L199.5765,248.0155 L206.8558,244.5353 L214.0605,240.9572 L221.1726,237.2863 L228.1743,233.5275 L235.0482,229.686 L241.777,225.7672 L248.3439,221.7766 L254.7326,217.7195 L260.9269,213.6017 L266.9116,209.4288 L272.6715,205.2066 L278.1924,200.9409 L283.4603,196.6377 L288.4622,192.3029 L293.1856,187.9425 L297.6185,183.5625 L301.7501,179.1691 L305.5698,174.7681 L309.0682,170.3659 L312.2366,165.9684 L315.0669,161.5818 L317.5522,157.212 L319.6862,152.8652 L321.4637,148.5474 L322.8801,144.2645 L323.9319,140.0225 L324.6164,135.8273 L324.932,131.6845 L324.878,127.6001 L324.4543,123.5796 L323.6621,119.6285 L322.5034,115.7525 L320.981,111.9567 L319.0988,108.2466 L316.8614,104.6271 L314.2745,101.1033 L311.3445,97.68017 L308.0787,94.36234 L304.4854,91.15442 L300.5735,88.06085 L296.3527,85.08593 L291.8336,82.23376 L287.0275,79.50829 L281.9465,76.9133 L276.6031,74.45236 L271.0109,72.12889 L265.1837,69.94611 L259.1362,67.90703 L252.8833,66.01447 L246.4409,64.27105 L239.8249,62.67919 L233.0519,61.24109 L226.1389,59.95873 L219.103,58.83389 L211.962,57.86814 L204.7336,57.0628 L197.4359,56.41898 L190.0872,55.93759 L182.7058,55.61928 L175.3102,55.4645 L167.9188,55.47346 L160.5501,55.64615 L153.2227,55.98233 L145.9546,56.48153 L138.7643,57.14306 L131.6695,57.96601 L124.688,58.94924 L117.8374,60.09139 L111.1346,61.39088 L104.5965,62.84591 L98.23944,64.45446 L92.07925,66.21432 L86.13136,68.12304 L80.41063,70.17799 L74.93135,72.37631 L69.70723,74.71498 L64.75131,77.19076 L60.076,79.80021 L55.69296,82.53973 L51.61317,85.40552 L47.84681,88.39362 L44.40331,91.49991 L41.29126,94.72008 L38.51844,98.04966 L36.09179,101.4841 L34.01738,105.0185 L32.30038,108.6482 L30.94508,112.368 L29.95489,116.1728 L29.33226,120.0573 L29.07876,124.0162 L29.19502,128.044 L29.68076,132.1351 L30.53474,136.2838 L31.75485,140.4845 L33.33803,144.7313 L35.28033,149.0182 L37.57689,153.3395 L40.22196,157.6891 L43.20894,162.061 L46.53037,166.4491 L50.17793,170.8474 L54.14252,175.2498 L58.41423,179.6502 L62.98237,184.0425 L67.83553,188.4207 L72.96158,192.7785 L78.3477,197.1102 L83.98044,201.4096 L89.84571,205.6708 L95.92886,209.8878 L102.2147,214.055 L108.6875,218.1665 L115.331,222.2165 L122.1288,226.1996 L129.0637,230.1102 L136.1184,233.9429 L143.2754,237.6923 L150.5167,241.3533 L157.8243,244.9209 L165.1798,248.3901 L172.5649,251.756 L179.9611,255.0141 L187.3499,258.1599 L194.7129,261.1889 L202.0317,264.097 L209.2879,266.8801 L216.4635,269.5344 L223.5404,272.0563 L230.5011,274.4423 L237.3281,276.6889 L244.0043,278.7932 L250.5131,280.7523 L256.8381,282.5633 L262.9637,284.2239 L268.8744,285.7317 L274.5555,287.0846 L279.9929,288.2807 L285.1728,289.3185 L290.0824,290.1964 L294.7093,290.9132 L299.0421,291.468 L303.0699,291.86 L306.7826,292.0887 L310.171,292.1536 L313.2265,292.0548 L315.9416,291.7924 L318.3094,291.3667 L320.324,290.7784 L321.9805,290.0282 L323.2746,289.1171 L324.2031,288.0465 L324.7638,286.8179 L324.9551,285.4328 L324.7767,283.8933 L324.2289,282.2014 L323.3132,280.3596 L322.0318,278.3703 L320.3879,276.2364 L318.3857,273.9607 L316.0301,271.5464 L313.3271,268.9968 L310.2833,266.3156" stroke="#000000" stroke-width="0.48" fill="none" />
</svg>